%TF.GenerationSoftware,KiCad,Pcbnew,9.0.7*%
%TF.CreationDate,2026-02-15T13:03:06+01:00*%
%TF.ProjectId,handheldAerosolSensor,68616e64-6865-46c6-9441-65726f736f6c,Rev. 1.0*%
%TF.SameCoordinates,Original*%
%TF.FileFunction,Soldermask,Top*%
%TF.FilePolarity,Negative*%
%FSLAX46Y46*%
G04 Gerber Fmt 4.6, Leading zero omitted, Abs format (unit mm)*
G04 Created by KiCad (PCBNEW 9.0.7) date 2026-02-15 13:03:06*
%MOMM*%
%LPD*%
G01*
G04 APERTURE LIST*
G04 Aperture macros list*
%AMRoundRect*
0 Rectangle with rounded corners*
0 $1 Rounding radius*
0 $2 $3 $4 $5 $6 $7 $8 $9 X,Y pos of 4 corners*
0 Add a 4 corners polygon primitive as box body*
4,1,4,$2,$3,$4,$5,$6,$7,$8,$9,$2,$3,0*
0 Add four circle primitives for the rounded corners*
1,1,$1+$1,$2,$3*
1,1,$1+$1,$4,$5*
1,1,$1+$1,$6,$7*
1,1,$1+$1,$8,$9*
0 Add four rect primitives between the rounded corners*
20,1,$1+$1,$2,$3,$4,$5,0*
20,1,$1+$1,$4,$5,$6,$7,0*
20,1,$1+$1,$6,$7,$8,$9,0*
20,1,$1+$1,$8,$9,$2,$3,0*%
G04 Aperture macros list end*
%ADD10RoundRect,0.250000X-0.400000X-0.625000X0.400000X-0.625000X0.400000X0.625000X-0.400000X0.625000X0*%
%ADD11RoundRect,0.250001X0.462499X0.624999X-0.462499X0.624999X-0.462499X-0.624999X0.462499X-0.624999X0*%
%ADD12RoundRect,0.250000X0.400000X0.625000X-0.400000X0.625000X-0.400000X-0.625000X0.400000X-0.625000X0*%
%ADD13RoundRect,0.150000X-0.587500X-0.150000X0.587500X-0.150000X0.587500X0.150000X-0.587500X0.150000X0*%
%ADD14C,2.500000*%
%ADD15RoundRect,0.250000X0.625000X-0.400000X0.625000X0.400000X-0.625000X0.400000X-0.625000X-0.400000X0*%
%ADD16C,2.700000*%
%ADD17RoundRect,0.250000X0.725000X-0.600000X0.725000X0.600000X-0.725000X0.600000X-0.725000X-0.600000X0*%
%ADD18O,1.950000X1.700000*%
%ADD19C,2.000000*%
%ADD20RoundRect,0.250000X0.650000X-0.412500X0.650000X0.412500X-0.650000X0.412500X-0.650000X-0.412500X0*%
%ADD21RoundRect,0.250000X-0.750000X0.600000X-0.750000X-0.600000X0.750000X-0.600000X0.750000X0.600000X0*%
%ADD22O,2.000000X1.700000*%
%ADD23RoundRect,0.250000X0.600000X0.750000X-0.600000X0.750000X-0.600000X-0.750000X0.600000X-0.750000X0*%
%ADD24O,1.700000X2.000000*%
%ADD25RoundRect,0.190500X-1.079500X-0.444500X1.079500X-0.444500X1.079500X0.444500X-1.079500X0.444500X0*%
%ADD26RoundRect,0.250001X0.624999X-0.462499X0.624999X0.462499X-0.624999X0.462499X-0.624999X-0.462499X0*%
%ADD27C,3.000000*%
%ADD28RoundRect,0.102000X-1.000000X1.000000X-1.000000X-1.000000X1.000000X-1.000000X1.000000X1.000000X0*%
%ADD29C,2.204000*%
%ADD30R,2.000000X2.000000*%
%ADD31R,1.700000X1.700000*%
%ADD32C,1.700000*%
%ADD33RoundRect,0.250000X-0.600000X-0.750000X0.600000X-0.750000X0.600000X0.750000X-0.600000X0.750000X0*%
%ADD34RoundRect,0.250000X-0.625000X0.400000X-0.625000X-0.400000X0.625000X-0.400000X0.625000X0.400000X0*%
%ADD35RoundRect,0.250000X-0.412500X-0.650000X0.412500X-0.650000X0.412500X0.650000X-0.412500X0.650000X0*%
%ADD36RoundRect,0.250000X-0.650000X0.412500X-0.650000X-0.412500X0.650000X-0.412500X0.650000X0.412500X0*%
%ADD37RoundRect,0.150000X0.587500X0.150000X-0.587500X0.150000X-0.587500X-0.150000X0.587500X-0.150000X0*%
%ADD38RoundRect,0.190500X-0.444500X1.079500X-0.444500X-1.079500X0.444500X-1.079500X0.444500X1.079500X0*%
%ADD39C,2.704000*%
%ADD40RoundRect,0.102000X-1.250000X1.250000X-1.250000X-1.250000X1.250000X-1.250000X1.250000X1.250000X0*%
%ADD41C,3.200000*%
%ADD42O,3.644000X7.084000*%
G04 APERTURE END LIST*
D10*
%TO.C,R205*%
X161700000Y-115600000D03*
X164800000Y-115600000D03*
%TD*%
%TO.C,R204*%
X213700000Y-115600000D03*
X216800000Y-115600000D03*
%TD*%
D11*
%TO.C,D201*%
X223775000Y-115600000D03*
X220800000Y-115600000D03*
%TD*%
D12*
%TO.C,R6*%
X216600000Y-56600000D03*
X213500000Y-56600000D03*
%TD*%
D13*
%TO.C,Q2*%
X187125000Y-54150000D03*
X187125000Y-56050000D03*
X189000000Y-55100000D03*
%TD*%
D14*
%TO.C,H201*%
X133800000Y-110400000D03*
%TD*%
D15*
%TO.C,R3*%
X182175000Y-56650000D03*
X182175000Y-53550000D03*
%TD*%
D16*
%TO.C,H5*%
X224600000Y-69000000D03*
%TD*%
D17*
%TO.C,J2*%
X134500000Y-66600000D03*
D18*
X134500000Y-64100000D03*
X134500000Y-61600000D03*
X134500000Y-59100000D03*
X134500000Y-56600000D03*
X134500000Y-54100000D03*
X134500000Y-51600000D03*
X134500000Y-49100000D03*
%TD*%
D19*
%TO.C,SW201*%
X174800000Y-120085786D03*
X174800000Y-126585786D03*
X170300000Y-120085786D03*
X170300000Y-126585786D03*
%TD*%
%TO.C,SW1*%
X161000000Y-80600000D03*
X161000000Y-74100000D03*
X165500000Y-80600000D03*
X165500000Y-74100000D03*
%TD*%
D10*
%TO.C,R11*%
X159400000Y-67100000D03*
X162500000Y-67100000D03*
%TD*%
D17*
%TO.C,J6*%
X150000000Y-66600000D03*
D18*
X150000000Y-64100000D03*
X150000000Y-61600000D03*
X150000000Y-59100000D03*
X150000000Y-56600000D03*
X150000000Y-54100000D03*
X150000000Y-51600000D03*
X150000000Y-49100000D03*
%TD*%
D14*
%TO.C,H202*%
X224400000Y-111000000D03*
%TD*%
D20*
%TO.C,C1*%
X193000000Y-56275000D03*
X193000000Y-53150000D03*
%TD*%
D12*
%TO.C,R203*%
X188500000Y-131385786D03*
X185400000Y-131385786D03*
%TD*%
D21*
%TO.C,J201*%
X223400000Y-122085786D03*
D22*
X223400000Y-124585786D03*
%TD*%
D23*
%TO.C,J202*%
X164000000Y-131985786D03*
D24*
X161500000Y-131985786D03*
%TD*%
D15*
%TO.C,R9*%
X193000000Y-62700000D03*
X193000000Y-59600000D03*
%TD*%
D13*
%TO.C,Q1*%
X187250000Y-48150000D03*
X187250000Y-50050000D03*
X189125000Y-49100000D03*
%TD*%
D25*
%TO.C,U202*%
X191600000Y-123385786D03*
X191600000Y-127385786D03*
X209600000Y-127385786D03*
X209500000Y-119285786D03*
%TD*%
D13*
%TO.C,Q202*%
X180325000Y-126235786D03*
X180325000Y-128135786D03*
X182200000Y-127185786D03*
%TD*%
D14*
%TO.C,H203*%
X224400000Y-135800000D03*
%TD*%
D15*
%TO.C,R1*%
X193000000Y-50550000D03*
X193000000Y-47450000D03*
%TD*%
D26*
%TO.C,D1*%
X182175000Y-50537500D03*
X182175000Y-47562500D03*
%TD*%
D16*
%TO.C,H4*%
X130000000Y-105400000D03*
%TD*%
D17*
%TO.C,J1*%
X134425000Y-81100000D03*
D18*
X134425000Y-78600000D03*
X134425000Y-76100000D03*
X134425000Y-73600000D03*
%TD*%
D27*
%TO.C,U3*%
X222450000Y-75260000D03*
X175500000Y-75260000D03*
X222450000Y-99770000D03*
X175500000Y-99770000D03*
D28*
X214490000Y-74840000D03*
D29*
X211950000Y-74840000D03*
X209410000Y-74840000D03*
X206870000Y-74840000D03*
X204330000Y-74840000D03*
X201790000Y-74840000D03*
X199250000Y-74840000D03*
X196710000Y-74840000D03*
X194170000Y-74840000D03*
X191630000Y-74840000D03*
X189090000Y-74840000D03*
X186550000Y-74840000D03*
X184010000Y-74840000D03*
X181470000Y-74840000D03*
X178930000Y-74840000D03*
X178930000Y-100240000D03*
X181470000Y-100240000D03*
X184010000Y-100240000D03*
X186550000Y-100240000D03*
X189090000Y-100240000D03*
X191630000Y-100240000D03*
X194170000Y-100240000D03*
X196710000Y-100240000D03*
X199250000Y-100240000D03*
X201790000Y-100240000D03*
X204330000Y-100240000D03*
X206870000Y-100240000D03*
X209410000Y-100240000D03*
X211950000Y-100240000D03*
X214490000Y-100240000D03*
%TD*%
D26*
%TO.C,D2*%
X177675000Y-50550000D03*
X177675000Y-47575000D03*
%TD*%
D30*
%TO.C,U201*%
X153300000Y-130285786D03*
X153300000Y-128085786D03*
X153300000Y-119285786D03*
X153300000Y-117085786D03*
X130300000Y-117085786D03*
X130400000Y-130785786D03*
%TD*%
D10*
%TO.C,R10*%
X159400000Y-56600000D03*
X162500000Y-56600000D03*
%TD*%
D31*
%TO.C,J4*%
X135500000Y-100600000D03*
D32*
X135500000Y-98060000D03*
X135500000Y-95520000D03*
X135500000Y-92980000D03*
X135500000Y-90440000D03*
X135500000Y-87900000D03*
%TD*%
D33*
%TO.C,J5*%
X180000000Y-67100000D03*
D24*
X182500000Y-67100000D03*
%TD*%
D10*
%TO.C,R8*%
X213950000Y-47600000D03*
X217050000Y-47600000D03*
%TD*%
D34*
%TO.C,R5*%
X204500000Y-57600000D03*
X204500000Y-60700000D03*
%TD*%
D35*
%TO.C,C201*%
X185275000Y-115385786D03*
X188400000Y-115385786D03*
%TD*%
D10*
%TO.C,R201*%
X185500000Y-127785786D03*
X188600000Y-127785786D03*
%TD*%
%TO.C,R202*%
X185337500Y-118985786D03*
X188437500Y-118985786D03*
%TD*%
D36*
%TO.C,C2*%
X207500000Y-57475000D03*
X207500000Y-60600000D03*
%TD*%
D13*
%TO.C,Q3*%
X187000000Y-60200000D03*
X187000000Y-62100000D03*
X188875000Y-61150000D03*
%TD*%
D15*
%TO.C,R7*%
X203500000Y-95200000D03*
X203500000Y-92100000D03*
%TD*%
D16*
%TO.C,H2*%
X224250000Y-47600000D03*
%TD*%
%TO.C,H3*%
X224250000Y-105200000D03*
%TD*%
D14*
%TO.C,H204*%
X133800000Y-135800000D03*
%TD*%
D34*
%TO.C,R2*%
X177675000Y-53450000D03*
X177675000Y-56550000D03*
%TD*%
D13*
%TO.C,Q203*%
X180525000Y-118835786D03*
X180525000Y-120735786D03*
X182400000Y-119785786D03*
%TD*%
D37*
%TO.C,Q201*%
X186837500Y-124385786D03*
X186837500Y-122485786D03*
X184962500Y-123435786D03*
%TD*%
D16*
%TO.C,H1*%
X129500000Y-47600000D03*
%TD*%
D34*
%TO.C,R4*%
X204500000Y-51600000D03*
X204500000Y-54700000D03*
%TD*%
D17*
%TO.C,J3*%
X142500000Y-63775000D03*
D18*
X142500000Y-61275000D03*
X142500000Y-58775000D03*
X142500000Y-56275000D03*
X142500000Y-53775000D03*
%TD*%
D38*
%TO.C,U2*%
X201100000Y-48600000D03*
X205100000Y-48600000D03*
X205100000Y-66600000D03*
X197000000Y-66500000D03*
%TD*%
D39*
%TO.C,LS1*%
X215500000Y-60200000D03*
D40*
X215500000Y-52600000D03*
%TD*%
D41*
%TO.C,BT1*%
X207700000Y-87750000D03*
X153000000Y-87650000D03*
D42*
X216650000Y-87750000D03*
X143750000Y-87750000D03*
%TD*%
D41*
%TO.C,BT201*%
X204050000Y-123585786D03*
X149350000Y-123485786D03*
D42*
X213000000Y-123585786D03*
X140100000Y-123585786D03*
%TD*%
D30*
%TO.C,U1*%
X171200000Y-71100000D03*
X169000000Y-71100000D03*
X160200000Y-71100000D03*
X158000000Y-71100000D03*
X158000000Y-48100000D03*
X171700000Y-48200000D03*
%TD*%
M02*
