%TF.GenerationSoftware,KiCad,Pcbnew,9.0.7*%
%TF.CreationDate,2026-02-15T13:03:06+01:00*%
%TF.ProjectId,handheldAerosolSensor,68616e64-6865-46c6-9441-65726f736f6c,Rev. 1.0*%
%TF.SameCoordinates,Original*%
%TF.FileFunction,AssemblyDrawing,Top*%
%FSLAX46Y46*%
G04 Gerber Fmt 4.6, Leading zero omitted, Abs format (unit mm)*
G04 Created by KiCad (PCBNEW 9.0.7) date 2026-02-15 13:03:06*
%MOMM*%
%LPD*%
G01*
G04 APERTURE LIST*
%ADD10C,0.120000*%
%ADD11C,0.110000*%
%ADD12C,0.150000*%
%ADD13C,0.100000*%
%ADD14C,0.127000*%
%ADD15C,0.200000*%
G04 APERTURE END LIST*
D10*
X162354762Y-115963855D02*
X162088095Y-115582902D01*
X161897619Y-115963855D02*
X161897619Y-115163855D01*
X161897619Y-115163855D02*
X162202381Y-115163855D01*
X162202381Y-115163855D02*
X162278571Y-115201950D01*
X162278571Y-115201950D02*
X162316666Y-115240045D01*
X162316666Y-115240045D02*
X162354762Y-115316236D01*
X162354762Y-115316236D02*
X162354762Y-115430521D01*
X162354762Y-115430521D02*
X162316666Y-115506712D01*
X162316666Y-115506712D02*
X162278571Y-115544807D01*
X162278571Y-115544807D02*
X162202381Y-115582902D01*
X162202381Y-115582902D02*
X161897619Y-115582902D01*
X162659523Y-115240045D02*
X162697619Y-115201950D01*
X162697619Y-115201950D02*
X162773809Y-115163855D01*
X162773809Y-115163855D02*
X162964285Y-115163855D01*
X162964285Y-115163855D02*
X163040476Y-115201950D01*
X163040476Y-115201950D02*
X163078571Y-115240045D01*
X163078571Y-115240045D02*
X163116666Y-115316236D01*
X163116666Y-115316236D02*
X163116666Y-115392426D01*
X163116666Y-115392426D02*
X163078571Y-115506712D01*
X163078571Y-115506712D02*
X162621428Y-115963855D01*
X162621428Y-115963855D02*
X163116666Y-115963855D01*
X163611905Y-115163855D02*
X163688095Y-115163855D01*
X163688095Y-115163855D02*
X163764286Y-115201950D01*
X163764286Y-115201950D02*
X163802381Y-115240045D01*
X163802381Y-115240045D02*
X163840476Y-115316236D01*
X163840476Y-115316236D02*
X163878571Y-115468617D01*
X163878571Y-115468617D02*
X163878571Y-115659093D01*
X163878571Y-115659093D02*
X163840476Y-115811474D01*
X163840476Y-115811474D02*
X163802381Y-115887664D01*
X163802381Y-115887664D02*
X163764286Y-115925760D01*
X163764286Y-115925760D02*
X163688095Y-115963855D01*
X163688095Y-115963855D02*
X163611905Y-115963855D01*
X163611905Y-115963855D02*
X163535714Y-115925760D01*
X163535714Y-115925760D02*
X163497619Y-115887664D01*
X163497619Y-115887664D02*
X163459524Y-115811474D01*
X163459524Y-115811474D02*
X163421428Y-115659093D01*
X163421428Y-115659093D02*
X163421428Y-115468617D01*
X163421428Y-115468617D02*
X163459524Y-115316236D01*
X163459524Y-115316236D02*
X163497619Y-115240045D01*
X163497619Y-115240045D02*
X163535714Y-115201950D01*
X163535714Y-115201950D02*
X163611905Y-115163855D01*
X164602381Y-115163855D02*
X164221429Y-115163855D01*
X164221429Y-115163855D02*
X164183333Y-115544807D01*
X164183333Y-115544807D02*
X164221429Y-115506712D01*
X164221429Y-115506712D02*
X164297619Y-115468617D01*
X164297619Y-115468617D02*
X164488095Y-115468617D01*
X164488095Y-115468617D02*
X164564286Y-115506712D01*
X164564286Y-115506712D02*
X164602381Y-115544807D01*
X164602381Y-115544807D02*
X164640476Y-115620998D01*
X164640476Y-115620998D02*
X164640476Y-115811474D01*
X164640476Y-115811474D02*
X164602381Y-115887664D01*
X164602381Y-115887664D02*
X164564286Y-115925760D01*
X164564286Y-115925760D02*
X164488095Y-115963855D01*
X164488095Y-115963855D02*
X164297619Y-115963855D01*
X164297619Y-115963855D02*
X164221429Y-115925760D01*
X164221429Y-115925760D02*
X164183333Y-115887664D01*
X214354762Y-115963855D02*
X214088095Y-115582902D01*
X213897619Y-115963855D02*
X213897619Y-115163855D01*
X213897619Y-115163855D02*
X214202381Y-115163855D01*
X214202381Y-115163855D02*
X214278571Y-115201950D01*
X214278571Y-115201950D02*
X214316666Y-115240045D01*
X214316666Y-115240045D02*
X214354762Y-115316236D01*
X214354762Y-115316236D02*
X214354762Y-115430521D01*
X214354762Y-115430521D02*
X214316666Y-115506712D01*
X214316666Y-115506712D02*
X214278571Y-115544807D01*
X214278571Y-115544807D02*
X214202381Y-115582902D01*
X214202381Y-115582902D02*
X213897619Y-115582902D01*
X214659523Y-115240045D02*
X214697619Y-115201950D01*
X214697619Y-115201950D02*
X214773809Y-115163855D01*
X214773809Y-115163855D02*
X214964285Y-115163855D01*
X214964285Y-115163855D02*
X215040476Y-115201950D01*
X215040476Y-115201950D02*
X215078571Y-115240045D01*
X215078571Y-115240045D02*
X215116666Y-115316236D01*
X215116666Y-115316236D02*
X215116666Y-115392426D01*
X215116666Y-115392426D02*
X215078571Y-115506712D01*
X215078571Y-115506712D02*
X214621428Y-115963855D01*
X214621428Y-115963855D02*
X215116666Y-115963855D01*
X215611905Y-115163855D02*
X215688095Y-115163855D01*
X215688095Y-115163855D02*
X215764286Y-115201950D01*
X215764286Y-115201950D02*
X215802381Y-115240045D01*
X215802381Y-115240045D02*
X215840476Y-115316236D01*
X215840476Y-115316236D02*
X215878571Y-115468617D01*
X215878571Y-115468617D02*
X215878571Y-115659093D01*
X215878571Y-115659093D02*
X215840476Y-115811474D01*
X215840476Y-115811474D02*
X215802381Y-115887664D01*
X215802381Y-115887664D02*
X215764286Y-115925760D01*
X215764286Y-115925760D02*
X215688095Y-115963855D01*
X215688095Y-115963855D02*
X215611905Y-115963855D01*
X215611905Y-115963855D02*
X215535714Y-115925760D01*
X215535714Y-115925760D02*
X215497619Y-115887664D01*
X215497619Y-115887664D02*
X215459524Y-115811474D01*
X215459524Y-115811474D02*
X215421428Y-115659093D01*
X215421428Y-115659093D02*
X215421428Y-115468617D01*
X215421428Y-115468617D02*
X215459524Y-115316236D01*
X215459524Y-115316236D02*
X215497619Y-115240045D01*
X215497619Y-115240045D02*
X215535714Y-115201950D01*
X215535714Y-115201950D02*
X215611905Y-115163855D01*
X216564286Y-115430521D02*
X216564286Y-115963855D01*
X216373810Y-115125760D02*
X216183333Y-115697188D01*
X216183333Y-115697188D02*
X216678572Y-115697188D01*
X220935119Y-115963855D02*
X220935119Y-115163855D01*
X220935119Y-115163855D02*
X221125595Y-115163855D01*
X221125595Y-115163855D02*
X221239881Y-115201950D01*
X221239881Y-115201950D02*
X221316071Y-115278140D01*
X221316071Y-115278140D02*
X221354166Y-115354331D01*
X221354166Y-115354331D02*
X221392262Y-115506712D01*
X221392262Y-115506712D02*
X221392262Y-115620998D01*
X221392262Y-115620998D02*
X221354166Y-115773379D01*
X221354166Y-115773379D02*
X221316071Y-115849569D01*
X221316071Y-115849569D02*
X221239881Y-115925760D01*
X221239881Y-115925760D02*
X221125595Y-115963855D01*
X221125595Y-115963855D02*
X220935119Y-115963855D01*
X221697023Y-115240045D02*
X221735119Y-115201950D01*
X221735119Y-115201950D02*
X221811309Y-115163855D01*
X221811309Y-115163855D02*
X222001785Y-115163855D01*
X222001785Y-115163855D02*
X222077976Y-115201950D01*
X222077976Y-115201950D02*
X222116071Y-115240045D01*
X222116071Y-115240045D02*
X222154166Y-115316236D01*
X222154166Y-115316236D02*
X222154166Y-115392426D01*
X222154166Y-115392426D02*
X222116071Y-115506712D01*
X222116071Y-115506712D02*
X221658928Y-115963855D01*
X221658928Y-115963855D02*
X222154166Y-115963855D01*
X222649405Y-115163855D02*
X222725595Y-115163855D01*
X222725595Y-115163855D02*
X222801786Y-115201950D01*
X222801786Y-115201950D02*
X222839881Y-115240045D01*
X222839881Y-115240045D02*
X222877976Y-115316236D01*
X222877976Y-115316236D02*
X222916071Y-115468617D01*
X222916071Y-115468617D02*
X222916071Y-115659093D01*
X222916071Y-115659093D02*
X222877976Y-115811474D01*
X222877976Y-115811474D02*
X222839881Y-115887664D01*
X222839881Y-115887664D02*
X222801786Y-115925760D01*
X222801786Y-115925760D02*
X222725595Y-115963855D01*
X222725595Y-115963855D02*
X222649405Y-115963855D01*
X222649405Y-115963855D02*
X222573214Y-115925760D01*
X222573214Y-115925760D02*
X222535119Y-115887664D01*
X222535119Y-115887664D02*
X222497024Y-115811474D01*
X222497024Y-115811474D02*
X222458928Y-115659093D01*
X222458928Y-115659093D02*
X222458928Y-115468617D01*
X222458928Y-115468617D02*
X222497024Y-115316236D01*
X222497024Y-115316236D02*
X222535119Y-115240045D01*
X222535119Y-115240045D02*
X222573214Y-115201950D01*
X222573214Y-115201950D02*
X222649405Y-115163855D01*
X223677976Y-115963855D02*
X223220833Y-115963855D01*
X223449405Y-115963855D02*
X223449405Y-115163855D01*
X223449405Y-115163855D02*
X223373214Y-115278140D01*
X223373214Y-115278140D02*
X223297024Y-115354331D01*
X223297024Y-115354331D02*
X223220833Y-115392426D01*
X214916667Y-56963855D02*
X214650000Y-56582902D01*
X214459524Y-56963855D02*
X214459524Y-56163855D01*
X214459524Y-56163855D02*
X214764286Y-56163855D01*
X214764286Y-56163855D02*
X214840476Y-56201950D01*
X214840476Y-56201950D02*
X214878571Y-56240045D01*
X214878571Y-56240045D02*
X214916667Y-56316236D01*
X214916667Y-56316236D02*
X214916667Y-56430521D01*
X214916667Y-56430521D02*
X214878571Y-56506712D01*
X214878571Y-56506712D02*
X214840476Y-56544807D01*
X214840476Y-56544807D02*
X214764286Y-56582902D01*
X214764286Y-56582902D02*
X214459524Y-56582902D01*
X215602381Y-56163855D02*
X215450000Y-56163855D01*
X215450000Y-56163855D02*
X215373809Y-56201950D01*
X215373809Y-56201950D02*
X215335714Y-56240045D01*
X215335714Y-56240045D02*
X215259524Y-56354331D01*
X215259524Y-56354331D02*
X215221428Y-56506712D01*
X215221428Y-56506712D02*
X215221428Y-56811474D01*
X215221428Y-56811474D02*
X215259524Y-56887664D01*
X215259524Y-56887664D02*
X215297619Y-56925760D01*
X215297619Y-56925760D02*
X215373809Y-56963855D01*
X215373809Y-56963855D02*
X215526190Y-56963855D01*
X215526190Y-56963855D02*
X215602381Y-56925760D01*
X215602381Y-56925760D02*
X215640476Y-56887664D01*
X215640476Y-56887664D02*
X215678571Y-56811474D01*
X215678571Y-56811474D02*
X215678571Y-56620998D01*
X215678571Y-56620998D02*
X215640476Y-56544807D01*
X215640476Y-56544807D02*
X215602381Y-56506712D01*
X215602381Y-56506712D02*
X215526190Y-56468617D01*
X215526190Y-56468617D02*
X215373809Y-56468617D01*
X215373809Y-56468617D02*
X215297619Y-56506712D01*
X215297619Y-56506712D02*
X215259524Y-56544807D01*
X215259524Y-56544807D02*
X215221428Y-56620998D01*
D11*
X188458437Y-55168571D02*
X188424151Y-55237142D01*
X188424151Y-55237142D02*
X188355580Y-55305714D01*
X188355580Y-55305714D02*
X188252722Y-55408571D01*
X188252722Y-55408571D02*
X188218437Y-55477142D01*
X188218437Y-55477142D02*
X188218437Y-55545714D01*
X188389865Y-55511428D02*
X188355580Y-55580000D01*
X188355580Y-55580000D02*
X188287008Y-55648571D01*
X188287008Y-55648571D02*
X188149865Y-55682857D01*
X188149865Y-55682857D02*
X187909865Y-55682857D01*
X187909865Y-55682857D02*
X187772722Y-55648571D01*
X187772722Y-55648571D02*
X187704151Y-55580000D01*
X187704151Y-55580000D02*
X187669865Y-55511428D01*
X187669865Y-55511428D02*
X187669865Y-55374285D01*
X187669865Y-55374285D02*
X187704151Y-55305714D01*
X187704151Y-55305714D02*
X187772722Y-55237142D01*
X187772722Y-55237142D02*
X187909865Y-55202857D01*
X187909865Y-55202857D02*
X188149865Y-55202857D01*
X188149865Y-55202857D02*
X188287008Y-55237142D01*
X188287008Y-55237142D02*
X188355580Y-55305714D01*
X188355580Y-55305714D02*
X188389865Y-55374285D01*
X188389865Y-55374285D02*
X188389865Y-55511428D01*
X187738437Y-54928571D02*
X187704151Y-54894285D01*
X187704151Y-54894285D02*
X187669865Y-54825714D01*
X187669865Y-54825714D02*
X187669865Y-54654285D01*
X187669865Y-54654285D02*
X187704151Y-54585714D01*
X187704151Y-54585714D02*
X187738437Y-54551428D01*
X187738437Y-54551428D02*
X187807008Y-54517142D01*
X187807008Y-54517142D02*
X187875580Y-54517142D01*
X187875580Y-54517142D02*
X187978437Y-54551428D01*
X187978437Y-54551428D02*
X188389865Y-54962856D01*
X188389865Y-54962856D02*
X188389865Y-54517142D01*
D12*
X129014285Y-129490605D02*
X129014285Y-128490605D01*
X129014285Y-128490605D02*
X129347618Y-129204890D01*
X129347618Y-129204890D02*
X129680951Y-128490605D01*
X129680951Y-128490605D02*
X129680951Y-129490605D01*
X130299999Y-129490605D02*
X130204761Y-129442986D01*
X130204761Y-129442986D02*
X130157142Y-129395366D01*
X130157142Y-129395366D02*
X130109523Y-129300128D01*
X130109523Y-129300128D02*
X130109523Y-129014414D01*
X130109523Y-129014414D02*
X130157142Y-128919176D01*
X130157142Y-128919176D02*
X130204761Y-128871557D01*
X130204761Y-128871557D02*
X130299999Y-128823938D01*
X130299999Y-128823938D02*
X130442856Y-128823938D01*
X130442856Y-128823938D02*
X130538094Y-128871557D01*
X130538094Y-128871557D02*
X130585713Y-128919176D01*
X130585713Y-128919176D02*
X130633332Y-129014414D01*
X130633332Y-129014414D02*
X130633332Y-129300128D01*
X130633332Y-129300128D02*
X130585713Y-129395366D01*
X130585713Y-129395366D02*
X130538094Y-129442986D01*
X130538094Y-129442986D02*
X130442856Y-129490605D01*
X130442856Y-129490605D02*
X130299999Y-129490605D01*
X131490475Y-128823938D02*
X131490475Y-129490605D01*
X131061904Y-128823938D02*
X131061904Y-129347747D01*
X131061904Y-129347747D02*
X131109523Y-129442986D01*
X131109523Y-129442986D02*
X131204761Y-129490605D01*
X131204761Y-129490605D02*
X131347618Y-129490605D01*
X131347618Y-129490605D02*
X131442856Y-129442986D01*
X131442856Y-129442986D02*
X131490475Y-129395366D01*
X131966666Y-128823938D02*
X131966666Y-129490605D01*
X131966666Y-128919176D02*
X132014285Y-128871557D01*
X132014285Y-128871557D02*
X132109523Y-128823938D01*
X132109523Y-128823938D02*
X132252380Y-128823938D01*
X132252380Y-128823938D02*
X132347618Y-128871557D01*
X132347618Y-128871557D02*
X132395237Y-128966795D01*
X132395237Y-128966795D02*
X132395237Y-129490605D01*
X132728571Y-128823938D02*
X133109523Y-128823938D01*
X132871428Y-128490605D02*
X132871428Y-129347747D01*
X132871428Y-129347747D02*
X132919047Y-129442986D01*
X132919047Y-129442986D02*
X133014285Y-129490605D01*
X133014285Y-129490605D02*
X133109523Y-129490605D01*
X133442857Y-129490605D02*
X133442857Y-128823938D01*
X133442857Y-128490605D02*
X133395238Y-128538224D01*
X133395238Y-128538224D02*
X133442857Y-128585843D01*
X133442857Y-128585843D02*
X133490476Y-128538224D01*
X133490476Y-128538224D02*
X133442857Y-128490605D01*
X133442857Y-128490605D02*
X133442857Y-128585843D01*
X133919047Y-128823938D02*
X133919047Y-129490605D01*
X133919047Y-128919176D02*
X133966666Y-128871557D01*
X133966666Y-128871557D02*
X134061904Y-128823938D01*
X134061904Y-128823938D02*
X134204761Y-128823938D01*
X134204761Y-128823938D02*
X134299999Y-128871557D01*
X134299999Y-128871557D02*
X134347618Y-128966795D01*
X134347618Y-128966795D02*
X134347618Y-129490605D01*
X135252380Y-128823938D02*
X135252380Y-129633462D01*
X135252380Y-129633462D02*
X135204761Y-129728700D01*
X135204761Y-129728700D02*
X135157142Y-129776319D01*
X135157142Y-129776319D02*
X135061904Y-129823938D01*
X135061904Y-129823938D02*
X134919047Y-129823938D01*
X134919047Y-129823938D02*
X134823809Y-129776319D01*
X135252380Y-129442986D02*
X135157142Y-129490605D01*
X135157142Y-129490605D02*
X134966666Y-129490605D01*
X134966666Y-129490605D02*
X134871428Y-129442986D01*
X134871428Y-129442986D02*
X134823809Y-129395366D01*
X134823809Y-129395366D02*
X134776190Y-129300128D01*
X134776190Y-129300128D02*
X134776190Y-129014414D01*
X134776190Y-129014414D02*
X134823809Y-128919176D01*
X134823809Y-128919176D02*
X134871428Y-128871557D01*
X134871428Y-128871557D02*
X134966666Y-128823938D01*
X134966666Y-128823938D02*
X135157142Y-128823938D01*
X135157142Y-128823938D02*
X135252380Y-128871557D01*
X135728571Y-129490605D02*
X135728571Y-128490605D01*
X135728571Y-128966795D02*
X136299999Y-128966795D01*
X136299999Y-129490605D02*
X136299999Y-128490605D01*
X136919047Y-129490605D02*
X136823809Y-129442986D01*
X136823809Y-129442986D02*
X136776190Y-129395366D01*
X136776190Y-129395366D02*
X136728571Y-129300128D01*
X136728571Y-129300128D02*
X136728571Y-129014414D01*
X136728571Y-129014414D02*
X136776190Y-128919176D01*
X136776190Y-128919176D02*
X136823809Y-128871557D01*
X136823809Y-128871557D02*
X136919047Y-128823938D01*
X136919047Y-128823938D02*
X137061904Y-128823938D01*
X137061904Y-128823938D02*
X137157142Y-128871557D01*
X137157142Y-128871557D02*
X137204761Y-128919176D01*
X137204761Y-128919176D02*
X137252380Y-129014414D01*
X137252380Y-129014414D02*
X137252380Y-129300128D01*
X137252380Y-129300128D02*
X137204761Y-129395366D01*
X137204761Y-129395366D02*
X137157142Y-129442986D01*
X137157142Y-129442986D02*
X137061904Y-129490605D01*
X137061904Y-129490605D02*
X136919047Y-129490605D01*
X137823809Y-129490605D02*
X137728571Y-129442986D01*
X137728571Y-129442986D02*
X137680952Y-129347747D01*
X137680952Y-129347747D02*
X137680952Y-128490605D01*
X138585714Y-129442986D02*
X138490476Y-129490605D01*
X138490476Y-129490605D02*
X138300000Y-129490605D01*
X138300000Y-129490605D02*
X138204762Y-129442986D01*
X138204762Y-129442986D02*
X138157143Y-129347747D01*
X138157143Y-129347747D02*
X138157143Y-128966795D01*
X138157143Y-128966795D02*
X138204762Y-128871557D01*
X138204762Y-128871557D02*
X138300000Y-128823938D01*
X138300000Y-128823938D02*
X138490476Y-128823938D01*
X138490476Y-128823938D02*
X138585714Y-128871557D01*
X138585714Y-128871557D02*
X138633333Y-128966795D01*
X138633333Y-128966795D02*
X138633333Y-129062033D01*
X138633333Y-129062033D02*
X138157143Y-129157271D01*
X132085714Y-126040605D02*
X132085714Y-125040605D01*
X132085714Y-125516795D02*
X132657142Y-125516795D01*
X132657142Y-126040605D02*
X132657142Y-125040605D01*
X133085714Y-125135843D02*
X133133333Y-125088224D01*
X133133333Y-125088224D02*
X133228571Y-125040605D01*
X133228571Y-125040605D02*
X133466666Y-125040605D01*
X133466666Y-125040605D02*
X133561904Y-125088224D01*
X133561904Y-125088224D02*
X133609523Y-125135843D01*
X133609523Y-125135843D02*
X133657142Y-125231081D01*
X133657142Y-125231081D02*
X133657142Y-125326319D01*
X133657142Y-125326319D02*
X133609523Y-125469176D01*
X133609523Y-125469176D02*
X133038095Y-126040605D01*
X133038095Y-126040605D02*
X133657142Y-126040605D01*
X134276190Y-125040605D02*
X134371428Y-125040605D01*
X134371428Y-125040605D02*
X134466666Y-125088224D01*
X134466666Y-125088224D02*
X134514285Y-125135843D01*
X134514285Y-125135843D02*
X134561904Y-125231081D01*
X134561904Y-125231081D02*
X134609523Y-125421557D01*
X134609523Y-125421557D02*
X134609523Y-125659652D01*
X134609523Y-125659652D02*
X134561904Y-125850128D01*
X134561904Y-125850128D02*
X134514285Y-125945366D01*
X134514285Y-125945366D02*
X134466666Y-125992986D01*
X134466666Y-125992986D02*
X134371428Y-126040605D01*
X134371428Y-126040605D02*
X134276190Y-126040605D01*
X134276190Y-126040605D02*
X134180952Y-125992986D01*
X134180952Y-125992986D02*
X134133333Y-125945366D01*
X134133333Y-125945366D02*
X134085714Y-125850128D01*
X134085714Y-125850128D02*
X134038095Y-125659652D01*
X134038095Y-125659652D02*
X134038095Y-125421557D01*
X134038095Y-125421557D02*
X134085714Y-125231081D01*
X134085714Y-125231081D02*
X134133333Y-125135843D01*
X134133333Y-125135843D02*
X134180952Y-125088224D01*
X134180952Y-125088224D02*
X134276190Y-125040605D01*
X135561904Y-126040605D02*
X134990476Y-126040605D01*
X135276190Y-126040605D02*
X135276190Y-125040605D01*
X135276190Y-125040605D02*
X135180952Y-125183462D01*
X135180952Y-125183462D02*
X135085714Y-125278700D01*
X135085714Y-125278700D02*
X134990476Y-125326319D01*
D10*
X182538855Y-55233332D02*
X182157902Y-55499999D01*
X182538855Y-55690475D02*
X181738855Y-55690475D01*
X181738855Y-55690475D02*
X181738855Y-55385713D01*
X181738855Y-55385713D02*
X181776950Y-55309523D01*
X181776950Y-55309523D02*
X181815045Y-55271428D01*
X181815045Y-55271428D02*
X181891236Y-55233332D01*
X181891236Y-55233332D02*
X182005521Y-55233332D01*
X182005521Y-55233332D02*
X182081712Y-55271428D01*
X182081712Y-55271428D02*
X182119807Y-55309523D01*
X182119807Y-55309523D02*
X182157902Y-55385713D01*
X182157902Y-55385713D02*
X182157902Y-55690475D01*
X181738855Y-54966666D02*
X181738855Y-54471428D01*
X181738855Y-54471428D02*
X182043617Y-54738094D01*
X182043617Y-54738094D02*
X182043617Y-54623809D01*
X182043617Y-54623809D02*
X182081712Y-54547618D01*
X182081712Y-54547618D02*
X182119807Y-54509523D01*
X182119807Y-54509523D02*
X182195998Y-54471428D01*
X182195998Y-54471428D02*
X182386474Y-54471428D01*
X182386474Y-54471428D02*
X182462664Y-54509523D01*
X182462664Y-54509523D02*
X182500760Y-54547618D01*
X182500760Y-54547618D02*
X182538855Y-54623809D01*
X182538855Y-54623809D02*
X182538855Y-54852380D01*
X182538855Y-54852380D02*
X182500760Y-54928571D01*
X182500760Y-54928571D02*
X182462664Y-54966666D01*
D12*
X219814285Y-73104819D02*
X219814285Y-72104819D01*
X219814285Y-72104819D02*
X220147618Y-72819104D01*
X220147618Y-72819104D02*
X220480951Y-72104819D01*
X220480951Y-72104819D02*
X220480951Y-73104819D01*
X221099999Y-73104819D02*
X221004761Y-73057200D01*
X221004761Y-73057200D02*
X220957142Y-73009580D01*
X220957142Y-73009580D02*
X220909523Y-72914342D01*
X220909523Y-72914342D02*
X220909523Y-72628628D01*
X220909523Y-72628628D02*
X220957142Y-72533390D01*
X220957142Y-72533390D02*
X221004761Y-72485771D01*
X221004761Y-72485771D02*
X221099999Y-72438152D01*
X221099999Y-72438152D02*
X221242856Y-72438152D01*
X221242856Y-72438152D02*
X221338094Y-72485771D01*
X221338094Y-72485771D02*
X221385713Y-72533390D01*
X221385713Y-72533390D02*
X221433332Y-72628628D01*
X221433332Y-72628628D02*
X221433332Y-72914342D01*
X221433332Y-72914342D02*
X221385713Y-73009580D01*
X221385713Y-73009580D02*
X221338094Y-73057200D01*
X221338094Y-73057200D02*
X221242856Y-73104819D01*
X221242856Y-73104819D02*
X221099999Y-73104819D01*
X222290475Y-72438152D02*
X222290475Y-73104819D01*
X221861904Y-72438152D02*
X221861904Y-72961961D01*
X221861904Y-72961961D02*
X221909523Y-73057200D01*
X221909523Y-73057200D02*
X222004761Y-73104819D01*
X222004761Y-73104819D02*
X222147618Y-73104819D01*
X222147618Y-73104819D02*
X222242856Y-73057200D01*
X222242856Y-73057200D02*
X222290475Y-73009580D01*
X222766666Y-72438152D02*
X222766666Y-73104819D01*
X222766666Y-72533390D02*
X222814285Y-72485771D01*
X222814285Y-72485771D02*
X222909523Y-72438152D01*
X222909523Y-72438152D02*
X223052380Y-72438152D01*
X223052380Y-72438152D02*
X223147618Y-72485771D01*
X223147618Y-72485771D02*
X223195237Y-72581009D01*
X223195237Y-72581009D02*
X223195237Y-73104819D01*
X223528571Y-72438152D02*
X223909523Y-72438152D01*
X223671428Y-72104819D02*
X223671428Y-72961961D01*
X223671428Y-72961961D02*
X223719047Y-73057200D01*
X223719047Y-73057200D02*
X223814285Y-73104819D01*
X223814285Y-73104819D02*
X223909523Y-73104819D01*
X224242857Y-73104819D02*
X224242857Y-72438152D01*
X224242857Y-72104819D02*
X224195238Y-72152438D01*
X224195238Y-72152438D02*
X224242857Y-72200057D01*
X224242857Y-72200057D02*
X224290476Y-72152438D01*
X224290476Y-72152438D02*
X224242857Y-72104819D01*
X224242857Y-72104819D02*
X224242857Y-72200057D01*
X224719047Y-72438152D02*
X224719047Y-73104819D01*
X224719047Y-72533390D02*
X224766666Y-72485771D01*
X224766666Y-72485771D02*
X224861904Y-72438152D01*
X224861904Y-72438152D02*
X225004761Y-72438152D01*
X225004761Y-72438152D02*
X225099999Y-72485771D01*
X225099999Y-72485771D02*
X225147618Y-72581009D01*
X225147618Y-72581009D02*
X225147618Y-73104819D01*
X226052380Y-72438152D02*
X226052380Y-73247676D01*
X226052380Y-73247676D02*
X226004761Y-73342914D01*
X226004761Y-73342914D02*
X225957142Y-73390533D01*
X225957142Y-73390533D02*
X225861904Y-73438152D01*
X225861904Y-73438152D02*
X225719047Y-73438152D01*
X225719047Y-73438152D02*
X225623809Y-73390533D01*
X226052380Y-73057200D02*
X225957142Y-73104819D01*
X225957142Y-73104819D02*
X225766666Y-73104819D01*
X225766666Y-73104819D02*
X225671428Y-73057200D01*
X225671428Y-73057200D02*
X225623809Y-73009580D01*
X225623809Y-73009580D02*
X225576190Y-72914342D01*
X225576190Y-72914342D02*
X225576190Y-72628628D01*
X225576190Y-72628628D02*
X225623809Y-72533390D01*
X225623809Y-72533390D02*
X225671428Y-72485771D01*
X225671428Y-72485771D02*
X225766666Y-72438152D01*
X225766666Y-72438152D02*
X225957142Y-72438152D01*
X225957142Y-72438152D02*
X226052380Y-72485771D01*
X226528571Y-73104819D02*
X226528571Y-72104819D01*
X226528571Y-72581009D02*
X227099999Y-72581009D01*
X227099999Y-73104819D02*
X227099999Y-72104819D01*
X227719047Y-73104819D02*
X227623809Y-73057200D01*
X227623809Y-73057200D02*
X227576190Y-73009580D01*
X227576190Y-73009580D02*
X227528571Y-72914342D01*
X227528571Y-72914342D02*
X227528571Y-72628628D01*
X227528571Y-72628628D02*
X227576190Y-72533390D01*
X227576190Y-72533390D02*
X227623809Y-72485771D01*
X227623809Y-72485771D02*
X227719047Y-72438152D01*
X227719047Y-72438152D02*
X227861904Y-72438152D01*
X227861904Y-72438152D02*
X227957142Y-72485771D01*
X227957142Y-72485771D02*
X228004761Y-72533390D01*
X228004761Y-72533390D02*
X228052380Y-72628628D01*
X228052380Y-72628628D02*
X228052380Y-72914342D01*
X228052380Y-72914342D02*
X228004761Y-73009580D01*
X228004761Y-73009580D02*
X227957142Y-73057200D01*
X227957142Y-73057200D02*
X227861904Y-73104819D01*
X227861904Y-73104819D02*
X227719047Y-73104819D01*
X228623809Y-73104819D02*
X228528571Y-73057200D01*
X228528571Y-73057200D02*
X228480952Y-72961961D01*
X228480952Y-72961961D02*
X228480952Y-72104819D01*
X229385714Y-73057200D02*
X229290476Y-73104819D01*
X229290476Y-73104819D02*
X229100000Y-73104819D01*
X229100000Y-73104819D02*
X229004762Y-73057200D01*
X229004762Y-73057200D02*
X228957143Y-72961961D01*
X228957143Y-72961961D02*
X228957143Y-72581009D01*
X228957143Y-72581009D02*
X229004762Y-72485771D01*
X229004762Y-72485771D02*
X229100000Y-72438152D01*
X229100000Y-72438152D02*
X229290476Y-72438152D01*
X229290476Y-72438152D02*
X229385714Y-72485771D01*
X229385714Y-72485771D02*
X229433333Y-72581009D01*
X229433333Y-72581009D02*
X229433333Y-72676247D01*
X229433333Y-72676247D02*
X228957143Y-72771485D01*
X223838095Y-69454819D02*
X223838095Y-68454819D01*
X223838095Y-68931009D02*
X224409523Y-68931009D01*
X224409523Y-69454819D02*
X224409523Y-68454819D01*
X225361904Y-68454819D02*
X224885714Y-68454819D01*
X224885714Y-68454819D02*
X224838095Y-68931009D01*
X224838095Y-68931009D02*
X224885714Y-68883390D01*
X224885714Y-68883390D02*
X224980952Y-68835771D01*
X224980952Y-68835771D02*
X225219047Y-68835771D01*
X225219047Y-68835771D02*
X225314285Y-68883390D01*
X225314285Y-68883390D02*
X225361904Y-68931009D01*
X225361904Y-68931009D02*
X225409523Y-69026247D01*
X225409523Y-69026247D02*
X225409523Y-69264342D01*
X225409523Y-69264342D02*
X225361904Y-69359580D01*
X225361904Y-69359580D02*
X225314285Y-69407200D01*
X225314285Y-69407200D02*
X225219047Y-69454819D01*
X225219047Y-69454819D02*
X224980952Y-69454819D01*
X224980952Y-69454819D02*
X224885714Y-69407200D01*
X224885714Y-69407200D02*
X224838095Y-69359580D01*
X136654819Y-58183333D02*
X137369104Y-58183333D01*
X137369104Y-58183333D02*
X137511961Y-58230952D01*
X137511961Y-58230952D02*
X137607200Y-58326190D01*
X137607200Y-58326190D02*
X137654819Y-58469047D01*
X137654819Y-58469047D02*
X137654819Y-58564285D01*
X136750057Y-57754761D02*
X136702438Y-57707142D01*
X136702438Y-57707142D02*
X136654819Y-57611904D01*
X136654819Y-57611904D02*
X136654819Y-57373809D01*
X136654819Y-57373809D02*
X136702438Y-57278571D01*
X136702438Y-57278571D02*
X136750057Y-57230952D01*
X136750057Y-57230952D02*
X136845295Y-57183333D01*
X136845295Y-57183333D02*
X136940533Y-57183333D01*
X136940533Y-57183333D02*
X137083390Y-57230952D01*
X137083390Y-57230952D02*
X137654819Y-57802380D01*
X137654819Y-57802380D02*
X137654819Y-57183333D01*
X172957200Y-125621499D02*
X173004819Y-125478642D01*
X173004819Y-125478642D02*
X173004819Y-125240547D01*
X173004819Y-125240547D02*
X172957200Y-125145309D01*
X172957200Y-125145309D02*
X172909580Y-125097690D01*
X172909580Y-125097690D02*
X172814342Y-125050071D01*
X172814342Y-125050071D02*
X172719104Y-125050071D01*
X172719104Y-125050071D02*
X172623866Y-125097690D01*
X172623866Y-125097690D02*
X172576247Y-125145309D01*
X172576247Y-125145309D02*
X172528628Y-125240547D01*
X172528628Y-125240547D02*
X172481009Y-125431023D01*
X172481009Y-125431023D02*
X172433390Y-125526261D01*
X172433390Y-125526261D02*
X172385771Y-125573880D01*
X172385771Y-125573880D02*
X172290533Y-125621499D01*
X172290533Y-125621499D02*
X172195295Y-125621499D01*
X172195295Y-125621499D02*
X172100057Y-125573880D01*
X172100057Y-125573880D02*
X172052438Y-125526261D01*
X172052438Y-125526261D02*
X172004819Y-125431023D01*
X172004819Y-125431023D02*
X172004819Y-125192928D01*
X172004819Y-125192928D02*
X172052438Y-125050071D01*
X172004819Y-124716737D02*
X173004819Y-124478642D01*
X173004819Y-124478642D02*
X172290533Y-124288166D01*
X172290533Y-124288166D02*
X173004819Y-124097690D01*
X173004819Y-124097690D02*
X172004819Y-123859595D01*
X172100057Y-123526261D02*
X172052438Y-123478642D01*
X172052438Y-123478642D02*
X172004819Y-123383404D01*
X172004819Y-123383404D02*
X172004819Y-123145309D01*
X172004819Y-123145309D02*
X172052438Y-123050071D01*
X172052438Y-123050071D02*
X172100057Y-123002452D01*
X172100057Y-123002452D02*
X172195295Y-122954833D01*
X172195295Y-122954833D02*
X172290533Y-122954833D01*
X172290533Y-122954833D02*
X172433390Y-123002452D01*
X172433390Y-123002452D02*
X173004819Y-123573880D01*
X173004819Y-123573880D02*
X173004819Y-122954833D01*
X172004819Y-122335785D02*
X172004819Y-122240547D01*
X172004819Y-122240547D02*
X172052438Y-122145309D01*
X172052438Y-122145309D02*
X172100057Y-122097690D01*
X172100057Y-122097690D02*
X172195295Y-122050071D01*
X172195295Y-122050071D02*
X172385771Y-122002452D01*
X172385771Y-122002452D02*
X172623866Y-122002452D01*
X172623866Y-122002452D02*
X172814342Y-122050071D01*
X172814342Y-122050071D02*
X172909580Y-122097690D01*
X172909580Y-122097690D02*
X172957200Y-122145309D01*
X172957200Y-122145309D02*
X173004819Y-122240547D01*
X173004819Y-122240547D02*
X173004819Y-122335785D01*
X173004819Y-122335785D02*
X172957200Y-122431023D01*
X172957200Y-122431023D02*
X172909580Y-122478642D01*
X172909580Y-122478642D02*
X172814342Y-122526261D01*
X172814342Y-122526261D02*
X172623866Y-122573880D01*
X172623866Y-122573880D02*
X172385771Y-122573880D01*
X172385771Y-122573880D02*
X172195295Y-122526261D01*
X172195295Y-122526261D02*
X172100057Y-122478642D01*
X172100057Y-122478642D02*
X172052438Y-122431023D01*
X172052438Y-122431023D02*
X172004819Y-122335785D01*
X173004819Y-121050071D02*
X173004819Y-121621499D01*
X173004819Y-121335785D02*
X172004819Y-121335785D01*
X172004819Y-121335785D02*
X172147676Y-121431023D01*
X172147676Y-121431023D02*
X172242914Y-121526261D01*
X172242914Y-121526261D02*
X172290533Y-121621499D01*
X168154819Y-78183332D02*
X167154819Y-78183332D01*
X167154819Y-78183332D02*
X167154819Y-77802380D01*
X167154819Y-77802380D02*
X167202438Y-77707142D01*
X167202438Y-77707142D02*
X167250057Y-77659523D01*
X167250057Y-77659523D02*
X167345295Y-77611904D01*
X167345295Y-77611904D02*
X167488152Y-77611904D01*
X167488152Y-77611904D02*
X167583390Y-77659523D01*
X167583390Y-77659523D02*
X167631009Y-77707142D01*
X167631009Y-77707142D02*
X167678628Y-77802380D01*
X167678628Y-77802380D02*
X167678628Y-78183332D01*
X167154819Y-77278570D02*
X168154819Y-77040475D01*
X168154819Y-77040475D02*
X167440533Y-76849999D01*
X167440533Y-76849999D02*
X168154819Y-76659523D01*
X168154819Y-76659523D02*
X167154819Y-76421428D01*
X168154819Y-75469047D02*
X167678628Y-75802380D01*
X168154819Y-76040475D02*
X167154819Y-76040475D01*
X167154819Y-76040475D02*
X167154819Y-75659523D01*
X167154819Y-75659523D02*
X167202438Y-75564285D01*
X167202438Y-75564285D02*
X167250057Y-75516666D01*
X167250057Y-75516666D02*
X167345295Y-75469047D01*
X167345295Y-75469047D02*
X167488152Y-75469047D01*
X167488152Y-75469047D02*
X167583390Y-75516666D01*
X167583390Y-75516666D02*
X167631009Y-75564285D01*
X167631009Y-75564285D02*
X167678628Y-75659523D01*
X167678628Y-75659523D02*
X167678628Y-76040475D01*
X163657200Y-78683332D02*
X163704819Y-78540475D01*
X163704819Y-78540475D02*
X163704819Y-78302380D01*
X163704819Y-78302380D02*
X163657200Y-78207142D01*
X163657200Y-78207142D02*
X163609580Y-78159523D01*
X163609580Y-78159523D02*
X163514342Y-78111904D01*
X163514342Y-78111904D02*
X163419104Y-78111904D01*
X163419104Y-78111904D02*
X163323866Y-78159523D01*
X163323866Y-78159523D02*
X163276247Y-78207142D01*
X163276247Y-78207142D02*
X163228628Y-78302380D01*
X163228628Y-78302380D02*
X163181009Y-78492856D01*
X163181009Y-78492856D02*
X163133390Y-78588094D01*
X163133390Y-78588094D02*
X163085771Y-78635713D01*
X163085771Y-78635713D02*
X162990533Y-78683332D01*
X162990533Y-78683332D02*
X162895295Y-78683332D01*
X162895295Y-78683332D02*
X162800057Y-78635713D01*
X162800057Y-78635713D02*
X162752438Y-78588094D01*
X162752438Y-78588094D02*
X162704819Y-78492856D01*
X162704819Y-78492856D02*
X162704819Y-78254761D01*
X162704819Y-78254761D02*
X162752438Y-78111904D01*
X162704819Y-77778570D02*
X163704819Y-77540475D01*
X163704819Y-77540475D02*
X162990533Y-77349999D01*
X162990533Y-77349999D02*
X163704819Y-77159523D01*
X163704819Y-77159523D02*
X162704819Y-76921428D01*
X163704819Y-76016666D02*
X163704819Y-76588094D01*
X163704819Y-76302380D02*
X162704819Y-76302380D01*
X162704819Y-76302380D02*
X162847676Y-76397618D01*
X162847676Y-76397618D02*
X162942914Y-76492856D01*
X162942914Y-76492856D02*
X162990533Y-76588094D01*
D10*
X160435714Y-67463855D02*
X160169047Y-67082902D01*
X159978571Y-67463855D02*
X159978571Y-66663855D01*
X159978571Y-66663855D02*
X160283333Y-66663855D01*
X160283333Y-66663855D02*
X160359523Y-66701950D01*
X160359523Y-66701950D02*
X160397618Y-66740045D01*
X160397618Y-66740045D02*
X160435714Y-66816236D01*
X160435714Y-66816236D02*
X160435714Y-66930521D01*
X160435714Y-66930521D02*
X160397618Y-67006712D01*
X160397618Y-67006712D02*
X160359523Y-67044807D01*
X160359523Y-67044807D02*
X160283333Y-67082902D01*
X160283333Y-67082902D02*
X159978571Y-67082902D01*
X161197618Y-67463855D02*
X160740475Y-67463855D01*
X160969047Y-67463855D02*
X160969047Y-66663855D01*
X160969047Y-66663855D02*
X160892856Y-66778140D01*
X160892856Y-66778140D02*
X160816666Y-66854331D01*
X160816666Y-66854331D02*
X160740475Y-66892426D01*
X161959523Y-67463855D02*
X161502380Y-67463855D01*
X161730952Y-67463855D02*
X161730952Y-66663855D01*
X161730952Y-66663855D02*
X161654761Y-66778140D01*
X161654761Y-66778140D02*
X161578571Y-66854331D01*
X161578571Y-66854331D02*
X161502380Y-66892426D01*
D12*
X152154819Y-58183333D02*
X152869104Y-58183333D01*
X152869104Y-58183333D02*
X153011961Y-58230952D01*
X153011961Y-58230952D02*
X153107200Y-58326190D01*
X153107200Y-58326190D02*
X153154819Y-58469047D01*
X153154819Y-58469047D02*
X153154819Y-58564285D01*
X152154819Y-57278571D02*
X152154819Y-57469047D01*
X152154819Y-57469047D02*
X152202438Y-57564285D01*
X152202438Y-57564285D02*
X152250057Y-57611904D01*
X152250057Y-57611904D02*
X152392914Y-57707142D01*
X152392914Y-57707142D02*
X152583390Y-57754761D01*
X152583390Y-57754761D02*
X152964342Y-57754761D01*
X152964342Y-57754761D02*
X153059580Y-57707142D01*
X153059580Y-57707142D02*
X153107200Y-57659523D01*
X153107200Y-57659523D02*
X153154819Y-57564285D01*
X153154819Y-57564285D02*
X153154819Y-57373809D01*
X153154819Y-57373809D02*
X153107200Y-57278571D01*
X153107200Y-57278571D02*
X153059580Y-57230952D01*
X153059580Y-57230952D02*
X152964342Y-57183333D01*
X152964342Y-57183333D02*
X152726247Y-57183333D01*
X152726247Y-57183333D02*
X152631009Y-57230952D01*
X152631009Y-57230952D02*
X152583390Y-57278571D01*
X152583390Y-57278571D02*
X152535771Y-57373809D01*
X152535771Y-57373809D02*
X152535771Y-57564285D01*
X152535771Y-57564285D02*
X152583390Y-57659523D01*
X152583390Y-57659523D02*
X152631009Y-57707142D01*
X152631009Y-57707142D02*
X152726247Y-57754761D01*
X219614285Y-114904819D02*
X219614285Y-113904819D01*
X219614285Y-113904819D02*
X219947618Y-114619104D01*
X219947618Y-114619104D02*
X220280951Y-113904819D01*
X220280951Y-113904819D02*
X220280951Y-114904819D01*
X220899999Y-114904819D02*
X220804761Y-114857200D01*
X220804761Y-114857200D02*
X220757142Y-114809580D01*
X220757142Y-114809580D02*
X220709523Y-114714342D01*
X220709523Y-114714342D02*
X220709523Y-114428628D01*
X220709523Y-114428628D02*
X220757142Y-114333390D01*
X220757142Y-114333390D02*
X220804761Y-114285771D01*
X220804761Y-114285771D02*
X220899999Y-114238152D01*
X220899999Y-114238152D02*
X221042856Y-114238152D01*
X221042856Y-114238152D02*
X221138094Y-114285771D01*
X221138094Y-114285771D02*
X221185713Y-114333390D01*
X221185713Y-114333390D02*
X221233332Y-114428628D01*
X221233332Y-114428628D02*
X221233332Y-114714342D01*
X221233332Y-114714342D02*
X221185713Y-114809580D01*
X221185713Y-114809580D02*
X221138094Y-114857200D01*
X221138094Y-114857200D02*
X221042856Y-114904819D01*
X221042856Y-114904819D02*
X220899999Y-114904819D01*
X222090475Y-114238152D02*
X222090475Y-114904819D01*
X221661904Y-114238152D02*
X221661904Y-114761961D01*
X221661904Y-114761961D02*
X221709523Y-114857200D01*
X221709523Y-114857200D02*
X221804761Y-114904819D01*
X221804761Y-114904819D02*
X221947618Y-114904819D01*
X221947618Y-114904819D02*
X222042856Y-114857200D01*
X222042856Y-114857200D02*
X222090475Y-114809580D01*
X222566666Y-114238152D02*
X222566666Y-114904819D01*
X222566666Y-114333390D02*
X222614285Y-114285771D01*
X222614285Y-114285771D02*
X222709523Y-114238152D01*
X222709523Y-114238152D02*
X222852380Y-114238152D01*
X222852380Y-114238152D02*
X222947618Y-114285771D01*
X222947618Y-114285771D02*
X222995237Y-114381009D01*
X222995237Y-114381009D02*
X222995237Y-114904819D01*
X223328571Y-114238152D02*
X223709523Y-114238152D01*
X223471428Y-113904819D02*
X223471428Y-114761961D01*
X223471428Y-114761961D02*
X223519047Y-114857200D01*
X223519047Y-114857200D02*
X223614285Y-114904819D01*
X223614285Y-114904819D02*
X223709523Y-114904819D01*
X224042857Y-114904819D02*
X224042857Y-114238152D01*
X224042857Y-113904819D02*
X223995238Y-113952438D01*
X223995238Y-113952438D02*
X224042857Y-114000057D01*
X224042857Y-114000057D02*
X224090476Y-113952438D01*
X224090476Y-113952438D02*
X224042857Y-113904819D01*
X224042857Y-113904819D02*
X224042857Y-114000057D01*
X224519047Y-114238152D02*
X224519047Y-114904819D01*
X224519047Y-114333390D02*
X224566666Y-114285771D01*
X224566666Y-114285771D02*
X224661904Y-114238152D01*
X224661904Y-114238152D02*
X224804761Y-114238152D01*
X224804761Y-114238152D02*
X224899999Y-114285771D01*
X224899999Y-114285771D02*
X224947618Y-114381009D01*
X224947618Y-114381009D02*
X224947618Y-114904819D01*
X225852380Y-114238152D02*
X225852380Y-115047676D01*
X225852380Y-115047676D02*
X225804761Y-115142914D01*
X225804761Y-115142914D02*
X225757142Y-115190533D01*
X225757142Y-115190533D02*
X225661904Y-115238152D01*
X225661904Y-115238152D02*
X225519047Y-115238152D01*
X225519047Y-115238152D02*
X225423809Y-115190533D01*
X225852380Y-114857200D02*
X225757142Y-114904819D01*
X225757142Y-114904819D02*
X225566666Y-114904819D01*
X225566666Y-114904819D02*
X225471428Y-114857200D01*
X225471428Y-114857200D02*
X225423809Y-114809580D01*
X225423809Y-114809580D02*
X225376190Y-114714342D01*
X225376190Y-114714342D02*
X225376190Y-114428628D01*
X225376190Y-114428628D02*
X225423809Y-114333390D01*
X225423809Y-114333390D02*
X225471428Y-114285771D01*
X225471428Y-114285771D02*
X225566666Y-114238152D01*
X225566666Y-114238152D02*
X225757142Y-114238152D01*
X225757142Y-114238152D02*
X225852380Y-114285771D01*
X226328571Y-114904819D02*
X226328571Y-113904819D01*
X226328571Y-114381009D02*
X226899999Y-114381009D01*
X226899999Y-114904819D02*
X226899999Y-113904819D01*
X227519047Y-114904819D02*
X227423809Y-114857200D01*
X227423809Y-114857200D02*
X227376190Y-114809580D01*
X227376190Y-114809580D02*
X227328571Y-114714342D01*
X227328571Y-114714342D02*
X227328571Y-114428628D01*
X227328571Y-114428628D02*
X227376190Y-114333390D01*
X227376190Y-114333390D02*
X227423809Y-114285771D01*
X227423809Y-114285771D02*
X227519047Y-114238152D01*
X227519047Y-114238152D02*
X227661904Y-114238152D01*
X227661904Y-114238152D02*
X227757142Y-114285771D01*
X227757142Y-114285771D02*
X227804761Y-114333390D01*
X227804761Y-114333390D02*
X227852380Y-114428628D01*
X227852380Y-114428628D02*
X227852380Y-114714342D01*
X227852380Y-114714342D02*
X227804761Y-114809580D01*
X227804761Y-114809580D02*
X227757142Y-114857200D01*
X227757142Y-114857200D02*
X227661904Y-114904819D01*
X227661904Y-114904819D02*
X227519047Y-114904819D01*
X228423809Y-114904819D02*
X228328571Y-114857200D01*
X228328571Y-114857200D02*
X228280952Y-114761961D01*
X228280952Y-114761961D02*
X228280952Y-113904819D01*
X229185714Y-114857200D02*
X229090476Y-114904819D01*
X229090476Y-114904819D02*
X228900000Y-114904819D01*
X228900000Y-114904819D02*
X228804762Y-114857200D01*
X228804762Y-114857200D02*
X228757143Y-114761961D01*
X228757143Y-114761961D02*
X228757143Y-114381009D01*
X228757143Y-114381009D02*
X228804762Y-114285771D01*
X228804762Y-114285771D02*
X228900000Y-114238152D01*
X228900000Y-114238152D02*
X229090476Y-114238152D01*
X229090476Y-114238152D02*
X229185714Y-114285771D01*
X229185714Y-114285771D02*
X229233333Y-114381009D01*
X229233333Y-114381009D02*
X229233333Y-114476247D01*
X229233333Y-114476247D02*
X228757143Y-114571485D01*
X222685714Y-125840605D02*
X222685714Y-124840605D01*
X222685714Y-125316795D02*
X223257142Y-125316795D01*
X223257142Y-125840605D02*
X223257142Y-124840605D01*
X223685714Y-124935843D02*
X223733333Y-124888224D01*
X223733333Y-124888224D02*
X223828571Y-124840605D01*
X223828571Y-124840605D02*
X224066666Y-124840605D01*
X224066666Y-124840605D02*
X224161904Y-124888224D01*
X224161904Y-124888224D02*
X224209523Y-124935843D01*
X224209523Y-124935843D02*
X224257142Y-125031081D01*
X224257142Y-125031081D02*
X224257142Y-125126319D01*
X224257142Y-125126319D02*
X224209523Y-125269176D01*
X224209523Y-125269176D02*
X223638095Y-125840605D01*
X223638095Y-125840605D02*
X224257142Y-125840605D01*
X224876190Y-124840605D02*
X224971428Y-124840605D01*
X224971428Y-124840605D02*
X225066666Y-124888224D01*
X225066666Y-124888224D02*
X225114285Y-124935843D01*
X225114285Y-124935843D02*
X225161904Y-125031081D01*
X225161904Y-125031081D02*
X225209523Y-125221557D01*
X225209523Y-125221557D02*
X225209523Y-125459652D01*
X225209523Y-125459652D02*
X225161904Y-125650128D01*
X225161904Y-125650128D02*
X225114285Y-125745366D01*
X225114285Y-125745366D02*
X225066666Y-125792986D01*
X225066666Y-125792986D02*
X224971428Y-125840605D01*
X224971428Y-125840605D02*
X224876190Y-125840605D01*
X224876190Y-125840605D02*
X224780952Y-125792986D01*
X224780952Y-125792986D02*
X224733333Y-125745366D01*
X224733333Y-125745366D02*
X224685714Y-125650128D01*
X224685714Y-125650128D02*
X224638095Y-125459652D01*
X224638095Y-125459652D02*
X224638095Y-125221557D01*
X224638095Y-125221557D02*
X224685714Y-125031081D01*
X224685714Y-125031081D02*
X224733333Y-124935843D01*
X224733333Y-124935843D02*
X224780952Y-124888224D01*
X224780952Y-124888224D02*
X224876190Y-124840605D01*
X225590476Y-124935843D02*
X225638095Y-124888224D01*
X225638095Y-124888224D02*
X225733333Y-124840605D01*
X225733333Y-124840605D02*
X225971428Y-124840605D01*
X225971428Y-124840605D02*
X226066666Y-124888224D01*
X226066666Y-124888224D02*
X226114285Y-124935843D01*
X226114285Y-124935843D02*
X226161904Y-125031081D01*
X226161904Y-125031081D02*
X226161904Y-125126319D01*
X226161904Y-125126319D02*
X226114285Y-125269176D01*
X226114285Y-125269176D02*
X225542857Y-125840605D01*
X225542857Y-125840605D02*
X226161904Y-125840605D01*
D10*
X193287664Y-54845832D02*
X193325760Y-54883928D01*
X193325760Y-54883928D02*
X193363855Y-54998213D01*
X193363855Y-54998213D02*
X193363855Y-55074404D01*
X193363855Y-55074404D02*
X193325760Y-55188690D01*
X193325760Y-55188690D02*
X193249569Y-55264880D01*
X193249569Y-55264880D02*
X193173379Y-55302975D01*
X193173379Y-55302975D02*
X193020998Y-55341071D01*
X193020998Y-55341071D02*
X192906712Y-55341071D01*
X192906712Y-55341071D02*
X192754331Y-55302975D01*
X192754331Y-55302975D02*
X192678140Y-55264880D01*
X192678140Y-55264880D02*
X192601950Y-55188690D01*
X192601950Y-55188690D02*
X192563855Y-55074404D01*
X192563855Y-55074404D02*
X192563855Y-54998213D01*
X192563855Y-54998213D02*
X192601950Y-54883928D01*
X192601950Y-54883928D02*
X192640045Y-54845832D01*
X193363855Y-54083928D02*
X193363855Y-54541071D01*
X193363855Y-54312499D02*
X192563855Y-54312499D01*
X192563855Y-54312499D02*
X192678140Y-54388690D01*
X192678140Y-54388690D02*
X192754331Y-54464880D01*
X192754331Y-54464880D02*
X192792426Y-54541071D01*
X186054762Y-131749641D02*
X185788095Y-131368688D01*
X185597619Y-131749641D02*
X185597619Y-130949641D01*
X185597619Y-130949641D02*
X185902381Y-130949641D01*
X185902381Y-130949641D02*
X185978571Y-130987736D01*
X185978571Y-130987736D02*
X186016666Y-131025831D01*
X186016666Y-131025831D02*
X186054762Y-131102022D01*
X186054762Y-131102022D02*
X186054762Y-131216307D01*
X186054762Y-131216307D02*
X186016666Y-131292498D01*
X186016666Y-131292498D02*
X185978571Y-131330593D01*
X185978571Y-131330593D02*
X185902381Y-131368688D01*
X185902381Y-131368688D02*
X185597619Y-131368688D01*
X186359523Y-131025831D02*
X186397619Y-130987736D01*
X186397619Y-130987736D02*
X186473809Y-130949641D01*
X186473809Y-130949641D02*
X186664285Y-130949641D01*
X186664285Y-130949641D02*
X186740476Y-130987736D01*
X186740476Y-130987736D02*
X186778571Y-131025831D01*
X186778571Y-131025831D02*
X186816666Y-131102022D01*
X186816666Y-131102022D02*
X186816666Y-131178212D01*
X186816666Y-131178212D02*
X186778571Y-131292498D01*
X186778571Y-131292498D02*
X186321428Y-131749641D01*
X186321428Y-131749641D02*
X186816666Y-131749641D01*
X187311905Y-130949641D02*
X187388095Y-130949641D01*
X187388095Y-130949641D02*
X187464286Y-130987736D01*
X187464286Y-130987736D02*
X187502381Y-131025831D01*
X187502381Y-131025831D02*
X187540476Y-131102022D01*
X187540476Y-131102022D02*
X187578571Y-131254403D01*
X187578571Y-131254403D02*
X187578571Y-131444879D01*
X187578571Y-131444879D02*
X187540476Y-131597260D01*
X187540476Y-131597260D02*
X187502381Y-131673450D01*
X187502381Y-131673450D02*
X187464286Y-131711546D01*
X187464286Y-131711546D02*
X187388095Y-131749641D01*
X187388095Y-131749641D02*
X187311905Y-131749641D01*
X187311905Y-131749641D02*
X187235714Y-131711546D01*
X187235714Y-131711546D02*
X187197619Y-131673450D01*
X187197619Y-131673450D02*
X187159524Y-131597260D01*
X187159524Y-131597260D02*
X187121428Y-131444879D01*
X187121428Y-131444879D02*
X187121428Y-131254403D01*
X187121428Y-131254403D02*
X187159524Y-131102022D01*
X187159524Y-131102022D02*
X187197619Y-131025831D01*
X187197619Y-131025831D02*
X187235714Y-130987736D01*
X187235714Y-130987736D02*
X187311905Y-130949641D01*
X187845238Y-130949641D02*
X188340476Y-130949641D01*
X188340476Y-130949641D02*
X188073810Y-131254403D01*
X188073810Y-131254403D02*
X188188095Y-131254403D01*
X188188095Y-131254403D02*
X188264286Y-131292498D01*
X188264286Y-131292498D02*
X188302381Y-131330593D01*
X188302381Y-131330593D02*
X188340476Y-131406784D01*
X188340476Y-131406784D02*
X188340476Y-131597260D01*
X188340476Y-131597260D02*
X188302381Y-131673450D01*
X188302381Y-131673450D02*
X188264286Y-131711546D01*
X188264286Y-131711546D02*
X188188095Y-131749641D01*
X188188095Y-131749641D02*
X187959524Y-131749641D01*
X187959524Y-131749641D02*
X187883333Y-131711546D01*
X187883333Y-131711546D02*
X187845238Y-131673450D01*
D12*
X220154819Y-124621500D02*
X220869104Y-124621500D01*
X220869104Y-124621500D02*
X221011961Y-124669119D01*
X221011961Y-124669119D02*
X221107200Y-124764357D01*
X221107200Y-124764357D02*
X221154819Y-124907214D01*
X221154819Y-124907214D02*
X221154819Y-125002452D01*
X220250057Y-124192928D02*
X220202438Y-124145309D01*
X220202438Y-124145309D02*
X220154819Y-124050071D01*
X220154819Y-124050071D02*
X220154819Y-123811976D01*
X220154819Y-123811976D02*
X220202438Y-123716738D01*
X220202438Y-123716738D02*
X220250057Y-123669119D01*
X220250057Y-123669119D02*
X220345295Y-123621500D01*
X220345295Y-123621500D02*
X220440533Y-123621500D01*
X220440533Y-123621500D02*
X220583390Y-123669119D01*
X220583390Y-123669119D02*
X221154819Y-124240547D01*
X221154819Y-124240547D02*
X221154819Y-123621500D01*
X220154819Y-123002452D02*
X220154819Y-122907214D01*
X220154819Y-122907214D02*
X220202438Y-122811976D01*
X220202438Y-122811976D02*
X220250057Y-122764357D01*
X220250057Y-122764357D02*
X220345295Y-122716738D01*
X220345295Y-122716738D02*
X220535771Y-122669119D01*
X220535771Y-122669119D02*
X220773866Y-122669119D01*
X220773866Y-122669119D02*
X220964342Y-122716738D01*
X220964342Y-122716738D02*
X221059580Y-122764357D01*
X221059580Y-122764357D02*
X221107200Y-122811976D01*
X221107200Y-122811976D02*
X221154819Y-122907214D01*
X221154819Y-122907214D02*
X221154819Y-123002452D01*
X221154819Y-123002452D02*
X221107200Y-123097690D01*
X221107200Y-123097690D02*
X221059580Y-123145309D01*
X221059580Y-123145309D02*
X220964342Y-123192928D01*
X220964342Y-123192928D02*
X220773866Y-123240547D01*
X220773866Y-123240547D02*
X220535771Y-123240547D01*
X220535771Y-123240547D02*
X220345295Y-123192928D01*
X220345295Y-123192928D02*
X220250057Y-123145309D01*
X220250057Y-123145309D02*
X220202438Y-123097690D01*
X220202438Y-123097690D02*
X220154819Y-123002452D01*
X221154819Y-121716738D02*
X221154819Y-122288166D01*
X221154819Y-122002452D02*
X220154819Y-122002452D01*
X220154819Y-122002452D02*
X220297676Y-122097690D01*
X220297676Y-122097690D02*
X220392914Y-122192928D01*
X220392914Y-122192928D02*
X220440533Y-122288166D01*
X161464285Y-128740605D02*
X161464285Y-129454890D01*
X161464285Y-129454890D02*
X161416666Y-129597747D01*
X161416666Y-129597747D02*
X161321428Y-129692986D01*
X161321428Y-129692986D02*
X161178571Y-129740605D01*
X161178571Y-129740605D02*
X161083333Y-129740605D01*
X161892857Y-128835843D02*
X161940476Y-128788224D01*
X161940476Y-128788224D02*
X162035714Y-128740605D01*
X162035714Y-128740605D02*
X162273809Y-128740605D01*
X162273809Y-128740605D02*
X162369047Y-128788224D01*
X162369047Y-128788224D02*
X162416666Y-128835843D01*
X162416666Y-128835843D02*
X162464285Y-128931081D01*
X162464285Y-128931081D02*
X162464285Y-129026319D01*
X162464285Y-129026319D02*
X162416666Y-129169176D01*
X162416666Y-129169176D02*
X161845238Y-129740605D01*
X161845238Y-129740605D02*
X162464285Y-129740605D01*
X163083333Y-128740605D02*
X163178571Y-128740605D01*
X163178571Y-128740605D02*
X163273809Y-128788224D01*
X163273809Y-128788224D02*
X163321428Y-128835843D01*
X163321428Y-128835843D02*
X163369047Y-128931081D01*
X163369047Y-128931081D02*
X163416666Y-129121557D01*
X163416666Y-129121557D02*
X163416666Y-129359652D01*
X163416666Y-129359652D02*
X163369047Y-129550128D01*
X163369047Y-129550128D02*
X163321428Y-129645366D01*
X163321428Y-129645366D02*
X163273809Y-129692986D01*
X163273809Y-129692986D02*
X163178571Y-129740605D01*
X163178571Y-129740605D02*
X163083333Y-129740605D01*
X163083333Y-129740605D02*
X162988095Y-129692986D01*
X162988095Y-129692986D02*
X162940476Y-129645366D01*
X162940476Y-129645366D02*
X162892857Y-129550128D01*
X162892857Y-129550128D02*
X162845238Y-129359652D01*
X162845238Y-129359652D02*
X162845238Y-129121557D01*
X162845238Y-129121557D02*
X162892857Y-128931081D01*
X162892857Y-128931081D02*
X162940476Y-128835843D01*
X162940476Y-128835843D02*
X162988095Y-128788224D01*
X162988095Y-128788224D02*
X163083333Y-128740605D01*
X163797619Y-128835843D02*
X163845238Y-128788224D01*
X163845238Y-128788224D02*
X163940476Y-128740605D01*
X163940476Y-128740605D02*
X164178571Y-128740605D01*
X164178571Y-128740605D02*
X164273809Y-128788224D01*
X164273809Y-128788224D02*
X164321428Y-128835843D01*
X164321428Y-128835843D02*
X164369047Y-128931081D01*
X164369047Y-128931081D02*
X164369047Y-129026319D01*
X164369047Y-129026319D02*
X164321428Y-129169176D01*
X164321428Y-129169176D02*
X163750000Y-129740605D01*
X163750000Y-129740605D02*
X164369047Y-129740605D01*
D10*
X193363855Y-61283332D02*
X192982902Y-61549999D01*
X193363855Y-61740475D02*
X192563855Y-61740475D01*
X192563855Y-61740475D02*
X192563855Y-61435713D01*
X192563855Y-61435713D02*
X192601950Y-61359523D01*
X192601950Y-61359523D02*
X192640045Y-61321428D01*
X192640045Y-61321428D02*
X192716236Y-61283332D01*
X192716236Y-61283332D02*
X192830521Y-61283332D01*
X192830521Y-61283332D02*
X192906712Y-61321428D01*
X192906712Y-61321428D02*
X192944807Y-61359523D01*
X192944807Y-61359523D02*
X192982902Y-61435713D01*
X192982902Y-61435713D02*
X192982902Y-61740475D01*
X193363855Y-60902380D02*
X193363855Y-60749999D01*
X193363855Y-60749999D02*
X193325760Y-60673809D01*
X193325760Y-60673809D02*
X193287664Y-60635713D01*
X193287664Y-60635713D02*
X193173379Y-60559523D01*
X193173379Y-60559523D02*
X193020998Y-60521428D01*
X193020998Y-60521428D02*
X192716236Y-60521428D01*
X192716236Y-60521428D02*
X192640045Y-60559523D01*
X192640045Y-60559523D02*
X192601950Y-60597618D01*
X192601950Y-60597618D02*
X192563855Y-60673809D01*
X192563855Y-60673809D02*
X192563855Y-60826190D01*
X192563855Y-60826190D02*
X192601950Y-60902380D01*
X192601950Y-60902380D02*
X192640045Y-60940475D01*
X192640045Y-60940475D02*
X192716236Y-60978571D01*
X192716236Y-60978571D02*
X192906712Y-60978571D01*
X192906712Y-60978571D02*
X192982902Y-60940475D01*
X192982902Y-60940475D02*
X193020998Y-60902380D01*
X193020998Y-60902380D02*
X193059093Y-60826190D01*
X193059093Y-60826190D02*
X193059093Y-60673809D01*
X193059093Y-60673809D02*
X193020998Y-60597618D01*
X193020998Y-60597618D02*
X192982902Y-60559523D01*
X192982902Y-60559523D02*
X192906712Y-60521428D01*
D11*
X188583437Y-49168571D02*
X188549151Y-49237142D01*
X188549151Y-49237142D02*
X188480580Y-49305714D01*
X188480580Y-49305714D02*
X188377722Y-49408571D01*
X188377722Y-49408571D02*
X188343437Y-49477142D01*
X188343437Y-49477142D02*
X188343437Y-49545714D01*
X188514865Y-49511428D02*
X188480580Y-49580000D01*
X188480580Y-49580000D02*
X188412008Y-49648571D01*
X188412008Y-49648571D02*
X188274865Y-49682857D01*
X188274865Y-49682857D02*
X188034865Y-49682857D01*
X188034865Y-49682857D02*
X187897722Y-49648571D01*
X187897722Y-49648571D02*
X187829151Y-49580000D01*
X187829151Y-49580000D02*
X187794865Y-49511428D01*
X187794865Y-49511428D02*
X187794865Y-49374285D01*
X187794865Y-49374285D02*
X187829151Y-49305714D01*
X187829151Y-49305714D02*
X187897722Y-49237142D01*
X187897722Y-49237142D02*
X188034865Y-49202857D01*
X188034865Y-49202857D02*
X188274865Y-49202857D01*
X188274865Y-49202857D02*
X188412008Y-49237142D01*
X188412008Y-49237142D02*
X188480580Y-49305714D01*
X188480580Y-49305714D02*
X188514865Y-49374285D01*
X188514865Y-49374285D02*
X188514865Y-49511428D01*
X188514865Y-48517142D02*
X188514865Y-48928571D01*
X188514865Y-48722856D02*
X187794865Y-48722856D01*
X187794865Y-48722856D02*
X187897722Y-48791428D01*
X187897722Y-48791428D02*
X187966294Y-48859999D01*
X187966294Y-48859999D02*
X188000580Y-48928571D01*
D12*
X192785714Y-116640605D02*
X192785714Y-115640605D01*
X192785714Y-115640605D02*
X193119047Y-116354890D01*
X193119047Y-116354890D02*
X193452380Y-115640605D01*
X193452380Y-115640605D02*
X193452380Y-116640605D01*
X193928571Y-116640605D02*
X193928571Y-115973938D01*
X193928571Y-115640605D02*
X193880952Y-115688224D01*
X193880952Y-115688224D02*
X193928571Y-115735843D01*
X193928571Y-115735843D02*
X193976190Y-115688224D01*
X193976190Y-115688224D02*
X193928571Y-115640605D01*
X193928571Y-115640605D02*
X193928571Y-115735843D01*
X194404761Y-115973938D02*
X194404761Y-116640605D01*
X194404761Y-116069176D02*
X194452380Y-116021557D01*
X194452380Y-116021557D02*
X194547618Y-115973938D01*
X194547618Y-115973938D02*
X194690475Y-115973938D01*
X194690475Y-115973938D02*
X194785713Y-116021557D01*
X194785713Y-116021557D02*
X194833332Y-116116795D01*
X194833332Y-116116795D02*
X194833332Y-116640605D01*
X195309523Y-116640605D02*
X195309523Y-115973938D01*
X195309523Y-115640605D02*
X195261904Y-115688224D01*
X195261904Y-115688224D02*
X195309523Y-115735843D01*
X195309523Y-115735843D02*
X195357142Y-115688224D01*
X195357142Y-115688224D02*
X195309523Y-115640605D01*
X195309523Y-115640605D02*
X195309523Y-115735843D01*
X196547618Y-116640605D02*
X196547618Y-115640605D01*
X196547618Y-115640605D02*
X196785713Y-115640605D01*
X196785713Y-115640605D02*
X196928570Y-115688224D01*
X196928570Y-115688224D02*
X197023808Y-115783462D01*
X197023808Y-115783462D02*
X197071427Y-115878700D01*
X197071427Y-115878700D02*
X197119046Y-116069176D01*
X197119046Y-116069176D02*
X197119046Y-116212033D01*
X197119046Y-116212033D02*
X197071427Y-116402509D01*
X197071427Y-116402509D02*
X197023808Y-116497747D01*
X197023808Y-116497747D02*
X196928570Y-116592986D01*
X196928570Y-116592986D02*
X196785713Y-116640605D01*
X196785713Y-116640605D02*
X196547618Y-116640605D01*
X198119046Y-116545366D02*
X198071427Y-116592986D01*
X198071427Y-116592986D02*
X197928570Y-116640605D01*
X197928570Y-116640605D02*
X197833332Y-116640605D01*
X197833332Y-116640605D02*
X197690475Y-116592986D01*
X197690475Y-116592986D02*
X197595237Y-116497747D01*
X197595237Y-116497747D02*
X197547618Y-116402509D01*
X197547618Y-116402509D02*
X197499999Y-116212033D01*
X197499999Y-116212033D02*
X197499999Y-116069176D01*
X197499999Y-116069176D02*
X197547618Y-115878700D01*
X197547618Y-115878700D02*
X197595237Y-115783462D01*
X197595237Y-115783462D02*
X197690475Y-115688224D01*
X197690475Y-115688224D02*
X197833332Y-115640605D01*
X197833332Y-115640605D02*
X197928570Y-115640605D01*
X197928570Y-115640605D02*
X198071427Y-115688224D01*
X198071427Y-115688224D02*
X198119046Y-115735843D01*
X198547618Y-116259652D02*
X199309523Y-116259652D01*
X199785713Y-116640605D02*
X199785713Y-115640605D01*
X199785713Y-115640605D02*
X200023808Y-115640605D01*
X200023808Y-115640605D02*
X200166665Y-115688224D01*
X200166665Y-115688224D02*
X200261903Y-115783462D01*
X200261903Y-115783462D02*
X200309522Y-115878700D01*
X200309522Y-115878700D02*
X200357141Y-116069176D01*
X200357141Y-116069176D02*
X200357141Y-116212033D01*
X200357141Y-116212033D02*
X200309522Y-116402509D01*
X200309522Y-116402509D02*
X200261903Y-116497747D01*
X200261903Y-116497747D02*
X200166665Y-116592986D01*
X200166665Y-116592986D02*
X200023808Y-116640605D01*
X200023808Y-116640605D02*
X199785713Y-116640605D01*
X201357141Y-116545366D02*
X201309522Y-116592986D01*
X201309522Y-116592986D02*
X201166665Y-116640605D01*
X201166665Y-116640605D02*
X201071427Y-116640605D01*
X201071427Y-116640605D02*
X200928570Y-116592986D01*
X200928570Y-116592986D02*
X200833332Y-116497747D01*
X200833332Y-116497747D02*
X200785713Y-116402509D01*
X200785713Y-116402509D02*
X200738094Y-116212033D01*
X200738094Y-116212033D02*
X200738094Y-116069176D01*
X200738094Y-116069176D02*
X200785713Y-115878700D01*
X200785713Y-115878700D02*
X200833332Y-115783462D01*
X200833332Y-115783462D02*
X200928570Y-115688224D01*
X200928570Y-115688224D02*
X201071427Y-115640605D01*
X201071427Y-115640605D02*
X201166665Y-115640605D01*
X201166665Y-115640605D02*
X201309522Y-115688224D01*
X201309522Y-115688224D02*
X201357141Y-115735843D01*
X203119046Y-116545366D02*
X203071427Y-116592986D01*
X203071427Y-116592986D02*
X202928570Y-116640605D01*
X202928570Y-116640605D02*
X202833332Y-116640605D01*
X202833332Y-116640605D02*
X202690475Y-116592986D01*
X202690475Y-116592986D02*
X202595237Y-116497747D01*
X202595237Y-116497747D02*
X202547618Y-116402509D01*
X202547618Y-116402509D02*
X202499999Y-116212033D01*
X202499999Y-116212033D02*
X202499999Y-116069176D01*
X202499999Y-116069176D02*
X202547618Y-115878700D01*
X202547618Y-115878700D02*
X202595237Y-115783462D01*
X202595237Y-115783462D02*
X202690475Y-115688224D01*
X202690475Y-115688224D02*
X202833332Y-115640605D01*
X202833332Y-115640605D02*
X202928570Y-115640605D01*
X202928570Y-115640605D02*
X203071427Y-115688224D01*
X203071427Y-115688224D02*
X203119046Y-115735843D01*
X203690475Y-116640605D02*
X203595237Y-116592986D01*
X203595237Y-116592986D02*
X203547618Y-116545366D01*
X203547618Y-116545366D02*
X203499999Y-116450128D01*
X203499999Y-116450128D02*
X203499999Y-116164414D01*
X203499999Y-116164414D02*
X203547618Y-116069176D01*
X203547618Y-116069176D02*
X203595237Y-116021557D01*
X203595237Y-116021557D02*
X203690475Y-115973938D01*
X203690475Y-115973938D02*
X203833332Y-115973938D01*
X203833332Y-115973938D02*
X203928570Y-116021557D01*
X203928570Y-116021557D02*
X203976189Y-116069176D01*
X203976189Y-116069176D02*
X204023808Y-116164414D01*
X204023808Y-116164414D02*
X204023808Y-116450128D01*
X204023808Y-116450128D02*
X203976189Y-116545366D01*
X203976189Y-116545366D02*
X203928570Y-116592986D01*
X203928570Y-116592986D02*
X203833332Y-116640605D01*
X203833332Y-116640605D02*
X203690475Y-116640605D01*
X204452380Y-115973938D02*
X204452380Y-116640605D01*
X204452380Y-116069176D02*
X204499999Y-116021557D01*
X204499999Y-116021557D02*
X204595237Y-115973938D01*
X204595237Y-115973938D02*
X204738094Y-115973938D01*
X204738094Y-115973938D02*
X204833332Y-116021557D01*
X204833332Y-116021557D02*
X204880951Y-116116795D01*
X204880951Y-116116795D02*
X204880951Y-116640605D01*
X205261904Y-115973938D02*
X205499999Y-116640605D01*
X205499999Y-116640605D02*
X205738094Y-115973938D01*
X206499999Y-116592986D02*
X206404761Y-116640605D01*
X206404761Y-116640605D02*
X206214285Y-116640605D01*
X206214285Y-116640605D02*
X206119047Y-116592986D01*
X206119047Y-116592986D02*
X206071428Y-116497747D01*
X206071428Y-116497747D02*
X206071428Y-116116795D01*
X206071428Y-116116795D02*
X206119047Y-116021557D01*
X206119047Y-116021557D02*
X206214285Y-115973938D01*
X206214285Y-115973938D02*
X206404761Y-115973938D01*
X206404761Y-115973938D02*
X206499999Y-116021557D01*
X206499999Y-116021557D02*
X206547618Y-116116795D01*
X206547618Y-116116795D02*
X206547618Y-116212033D01*
X206547618Y-116212033D02*
X206071428Y-116307271D01*
X206976190Y-116640605D02*
X206976190Y-115973938D01*
X206976190Y-116164414D02*
X207023809Y-116069176D01*
X207023809Y-116069176D02*
X207071428Y-116021557D01*
X207071428Y-116021557D02*
X207166666Y-115973938D01*
X207166666Y-115973938D02*
X207261904Y-115973938D01*
X207452381Y-115973938D02*
X207833333Y-115973938D01*
X207595238Y-115640605D02*
X207595238Y-116497747D01*
X207595238Y-116497747D02*
X207642857Y-116592986D01*
X207642857Y-116592986D02*
X207738095Y-116640605D01*
X207738095Y-116640605D02*
X207833333Y-116640605D01*
X208309524Y-116640605D02*
X208214286Y-116592986D01*
X208214286Y-116592986D02*
X208166667Y-116545366D01*
X208166667Y-116545366D02*
X208119048Y-116450128D01*
X208119048Y-116450128D02*
X208119048Y-116164414D01*
X208119048Y-116164414D02*
X208166667Y-116069176D01*
X208166667Y-116069176D02*
X208214286Y-116021557D01*
X208214286Y-116021557D02*
X208309524Y-115973938D01*
X208309524Y-115973938D02*
X208452381Y-115973938D01*
X208452381Y-115973938D02*
X208547619Y-116021557D01*
X208547619Y-116021557D02*
X208595238Y-116069176D01*
X208595238Y-116069176D02*
X208642857Y-116164414D01*
X208642857Y-116164414D02*
X208642857Y-116450128D01*
X208642857Y-116450128D02*
X208595238Y-116545366D01*
X208595238Y-116545366D02*
X208547619Y-116592986D01*
X208547619Y-116592986D02*
X208452381Y-116640605D01*
X208452381Y-116640605D02*
X208309524Y-116640605D01*
X209071429Y-116640605D02*
X209071429Y-115973938D01*
X209071429Y-116164414D02*
X209119048Y-116069176D01*
X209119048Y-116069176D02*
X209166667Y-116021557D01*
X209166667Y-116021557D02*
X209261905Y-115973938D01*
X209261905Y-115973938D02*
X209357143Y-115973938D01*
X199485714Y-127240605D02*
X199485714Y-128050128D01*
X199485714Y-128050128D02*
X199533333Y-128145366D01*
X199533333Y-128145366D02*
X199580952Y-128192986D01*
X199580952Y-128192986D02*
X199676190Y-128240605D01*
X199676190Y-128240605D02*
X199866666Y-128240605D01*
X199866666Y-128240605D02*
X199961904Y-128192986D01*
X199961904Y-128192986D02*
X200009523Y-128145366D01*
X200009523Y-128145366D02*
X200057142Y-128050128D01*
X200057142Y-128050128D02*
X200057142Y-127240605D01*
X200485714Y-127335843D02*
X200533333Y-127288224D01*
X200533333Y-127288224D02*
X200628571Y-127240605D01*
X200628571Y-127240605D02*
X200866666Y-127240605D01*
X200866666Y-127240605D02*
X200961904Y-127288224D01*
X200961904Y-127288224D02*
X201009523Y-127335843D01*
X201009523Y-127335843D02*
X201057142Y-127431081D01*
X201057142Y-127431081D02*
X201057142Y-127526319D01*
X201057142Y-127526319D02*
X201009523Y-127669176D01*
X201009523Y-127669176D02*
X200438095Y-128240605D01*
X200438095Y-128240605D02*
X201057142Y-128240605D01*
X201676190Y-127240605D02*
X201771428Y-127240605D01*
X201771428Y-127240605D02*
X201866666Y-127288224D01*
X201866666Y-127288224D02*
X201914285Y-127335843D01*
X201914285Y-127335843D02*
X201961904Y-127431081D01*
X201961904Y-127431081D02*
X202009523Y-127621557D01*
X202009523Y-127621557D02*
X202009523Y-127859652D01*
X202009523Y-127859652D02*
X201961904Y-128050128D01*
X201961904Y-128050128D02*
X201914285Y-128145366D01*
X201914285Y-128145366D02*
X201866666Y-128192986D01*
X201866666Y-128192986D02*
X201771428Y-128240605D01*
X201771428Y-128240605D02*
X201676190Y-128240605D01*
X201676190Y-128240605D02*
X201580952Y-128192986D01*
X201580952Y-128192986D02*
X201533333Y-128145366D01*
X201533333Y-128145366D02*
X201485714Y-128050128D01*
X201485714Y-128050128D02*
X201438095Y-127859652D01*
X201438095Y-127859652D02*
X201438095Y-127621557D01*
X201438095Y-127621557D02*
X201485714Y-127431081D01*
X201485714Y-127431081D02*
X201533333Y-127335843D01*
X201533333Y-127335843D02*
X201580952Y-127288224D01*
X201580952Y-127288224D02*
X201676190Y-127240605D01*
X202390476Y-127335843D02*
X202438095Y-127288224D01*
X202438095Y-127288224D02*
X202533333Y-127240605D01*
X202533333Y-127240605D02*
X202771428Y-127240605D01*
X202771428Y-127240605D02*
X202866666Y-127288224D01*
X202866666Y-127288224D02*
X202914285Y-127335843D01*
X202914285Y-127335843D02*
X202961904Y-127431081D01*
X202961904Y-127431081D02*
X202961904Y-127526319D01*
X202961904Y-127526319D02*
X202914285Y-127669176D01*
X202914285Y-127669176D02*
X202342857Y-128240605D01*
X202342857Y-128240605D02*
X202961904Y-128240605D01*
D11*
X181658437Y-127940071D02*
X181624151Y-128008642D01*
X181624151Y-128008642D02*
X181555580Y-128077214D01*
X181555580Y-128077214D02*
X181452722Y-128180071D01*
X181452722Y-128180071D02*
X181418437Y-128248642D01*
X181418437Y-128248642D02*
X181418437Y-128317214D01*
X181589865Y-128282928D02*
X181555580Y-128351500D01*
X181555580Y-128351500D02*
X181487008Y-128420071D01*
X181487008Y-128420071D02*
X181349865Y-128454357D01*
X181349865Y-128454357D02*
X181109865Y-128454357D01*
X181109865Y-128454357D02*
X180972722Y-128420071D01*
X180972722Y-128420071D02*
X180904151Y-128351500D01*
X180904151Y-128351500D02*
X180869865Y-128282928D01*
X180869865Y-128282928D02*
X180869865Y-128145785D01*
X180869865Y-128145785D02*
X180904151Y-128077214D01*
X180904151Y-128077214D02*
X180972722Y-128008642D01*
X180972722Y-128008642D02*
X181109865Y-127974357D01*
X181109865Y-127974357D02*
X181349865Y-127974357D01*
X181349865Y-127974357D02*
X181487008Y-128008642D01*
X181487008Y-128008642D02*
X181555580Y-128077214D01*
X181555580Y-128077214D02*
X181589865Y-128145785D01*
X181589865Y-128145785D02*
X181589865Y-128282928D01*
X180938437Y-127700071D02*
X180904151Y-127665785D01*
X180904151Y-127665785D02*
X180869865Y-127597214D01*
X180869865Y-127597214D02*
X180869865Y-127425785D01*
X180869865Y-127425785D02*
X180904151Y-127357214D01*
X180904151Y-127357214D02*
X180938437Y-127322928D01*
X180938437Y-127322928D02*
X181007008Y-127288642D01*
X181007008Y-127288642D02*
X181075580Y-127288642D01*
X181075580Y-127288642D02*
X181178437Y-127322928D01*
X181178437Y-127322928D02*
X181589865Y-127734356D01*
X181589865Y-127734356D02*
X181589865Y-127288642D01*
X180869865Y-126842928D02*
X180869865Y-126774357D01*
X180869865Y-126774357D02*
X180904151Y-126705785D01*
X180904151Y-126705785D02*
X180938437Y-126671500D01*
X180938437Y-126671500D02*
X181007008Y-126637214D01*
X181007008Y-126637214D02*
X181144151Y-126602928D01*
X181144151Y-126602928D02*
X181315580Y-126602928D01*
X181315580Y-126602928D02*
X181452722Y-126637214D01*
X181452722Y-126637214D02*
X181521294Y-126671500D01*
X181521294Y-126671500D02*
X181555580Y-126705785D01*
X181555580Y-126705785D02*
X181589865Y-126774357D01*
X181589865Y-126774357D02*
X181589865Y-126842928D01*
X181589865Y-126842928D02*
X181555580Y-126911500D01*
X181555580Y-126911500D02*
X181521294Y-126945785D01*
X181521294Y-126945785D02*
X181452722Y-126980071D01*
X181452722Y-126980071D02*
X181315580Y-127014357D01*
X181315580Y-127014357D02*
X181144151Y-127014357D01*
X181144151Y-127014357D02*
X181007008Y-126980071D01*
X181007008Y-126980071D02*
X180938437Y-126945785D01*
X180938437Y-126945785D02*
X180904151Y-126911500D01*
X180904151Y-126911500D02*
X180869865Y-126842928D01*
X180938437Y-126328643D02*
X180904151Y-126294357D01*
X180904151Y-126294357D02*
X180869865Y-126225786D01*
X180869865Y-126225786D02*
X180869865Y-126054357D01*
X180869865Y-126054357D02*
X180904151Y-125985786D01*
X180904151Y-125985786D02*
X180938437Y-125951500D01*
X180938437Y-125951500D02*
X181007008Y-125917214D01*
X181007008Y-125917214D02*
X181075580Y-125917214D01*
X181075580Y-125917214D02*
X181178437Y-125951500D01*
X181178437Y-125951500D02*
X181589865Y-126362928D01*
X181589865Y-126362928D02*
X181589865Y-125917214D01*
D12*
X219614285Y-139704819D02*
X219614285Y-138704819D01*
X219614285Y-138704819D02*
X219947618Y-139419104D01*
X219947618Y-139419104D02*
X220280951Y-138704819D01*
X220280951Y-138704819D02*
X220280951Y-139704819D01*
X220899999Y-139704819D02*
X220804761Y-139657200D01*
X220804761Y-139657200D02*
X220757142Y-139609580D01*
X220757142Y-139609580D02*
X220709523Y-139514342D01*
X220709523Y-139514342D02*
X220709523Y-139228628D01*
X220709523Y-139228628D02*
X220757142Y-139133390D01*
X220757142Y-139133390D02*
X220804761Y-139085771D01*
X220804761Y-139085771D02*
X220899999Y-139038152D01*
X220899999Y-139038152D02*
X221042856Y-139038152D01*
X221042856Y-139038152D02*
X221138094Y-139085771D01*
X221138094Y-139085771D02*
X221185713Y-139133390D01*
X221185713Y-139133390D02*
X221233332Y-139228628D01*
X221233332Y-139228628D02*
X221233332Y-139514342D01*
X221233332Y-139514342D02*
X221185713Y-139609580D01*
X221185713Y-139609580D02*
X221138094Y-139657200D01*
X221138094Y-139657200D02*
X221042856Y-139704819D01*
X221042856Y-139704819D02*
X220899999Y-139704819D01*
X222090475Y-139038152D02*
X222090475Y-139704819D01*
X221661904Y-139038152D02*
X221661904Y-139561961D01*
X221661904Y-139561961D02*
X221709523Y-139657200D01*
X221709523Y-139657200D02*
X221804761Y-139704819D01*
X221804761Y-139704819D02*
X221947618Y-139704819D01*
X221947618Y-139704819D02*
X222042856Y-139657200D01*
X222042856Y-139657200D02*
X222090475Y-139609580D01*
X222566666Y-139038152D02*
X222566666Y-139704819D01*
X222566666Y-139133390D02*
X222614285Y-139085771D01*
X222614285Y-139085771D02*
X222709523Y-139038152D01*
X222709523Y-139038152D02*
X222852380Y-139038152D01*
X222852380Y-139038152D02*
X222947618Y-139085771D01*
X222947618Y-139085771D02*
X222995237Y-139181009D01*
X222995237Y-139181009D02*
X222995237Y-139704819D01*
X223328571Y-139038152D02*
X223709523Y-139038152D01*
X223471428Y-138704819D02*
X223471428Y-139561961D01*
X223471428Y-139561961D02*
X223519047Y-139657200D01*
X223519047Y-139657200D02*
X223614285Y-139704819D01*
X223614285Y-139704819D02*
X223709523Y-139704819D01*
X224042857Y-139704819D02*
X224042857Y-139038152D01*
X224042857Y-138704819D02*
X223995238Y-138752438D01*
X223995238Y-138752438D02*
X224042857Y-138800057D01*
X224042857Y-138800057D02*
X224090476Y-138752438D01*
X224090476Y-138752438D02*
X224042857Y-138704819D01*
X224042857Y-138704819D02*
X224042857Y-138800057D01*
X224519047Y-139038152D02*
X224519047Y-139704819D01*
X224519047Y-139133390D02*
X224566666Y-139085771D01*
X224566666Y-139085771D02*
X224661904Y-139038152D01*
X224661904Y-139038152D02*
X224804761Y-139038152D01*
X224804761Y-139038152D02*
X224899999Y-139085771D01*
X224899999Y-139085771D02*
X224947618Y-139181009D01*
X224947618Y-139181009D02*
X224947618Y-139704819D01*
X225852380Y-139038152D02*
X225852380Y-139847676D01*
X225852380Y-139847676D02*
X225804761Y-139942914D01*
X225804761Y-139942914D02*
X225757142Y-139990533D01*
X225757142Y-139990533D02*
X225661904Y-140038152D01*
X225661904Y-140038152D02*
X225519047Y-140038152D01*
X225519047Y-140038152D02*
X225423809Y-139990533D01*
X225852380Y-139657200D02*
X225757142Y-139704819D01*
X225757142Y-139704819D02*
X225566666Y-139704819D01*
X225566666Y-139704819D02*
X225471428Y-139657200D01*
X225471428Y-139657200D02*
X225423809Y-139609580D01*
X225423809Y-139609580D02*
X225376190Y-139514342D01*
X225376190Y-139514342D02*
X225376190Y-139228628D01*
X225376190Y-139228628D02*
X225423809Y-139133390D01*
X225423809Y-139133390D02*
X225471428Y-139085771D01*
X225471428Y-139085771D02*
X225566666Y-139038152D01*
X225566666Y-139038152D02*
X225757142Y-139038152D01*
X225757142Y-139038152D02*
X225852380Y-139085771D01*
X226328571Y-139704819D02*
X226328571Y-138704819D01*
X226328571Y-139181009D02*
X226899999Y-139181009D01*
X226899999Y-139704819D02*
X226899999Y-138704819D01*
X227519047Y-139704819D02*
X227423809Y-139657200D01*
X227423809Y-139657200D02*
X227376190Y-139609580D01*
X227376190Y-139609580D02*
X227328571Y-139514342D01*
X227328571Y-139514342D02*
X227328571Y-139228628D01*
X227328571Y-139228628D02*
X227376190Y-139133390D01*
X227376190Y-139133390D02*
X227423809Y-139085771D01*
X227423809Y-139085771D02*
X227519047Y-139038152D01*
X227519047Y-139038152D02*
X227661904Y-139038152D01*
X227661904Y-139038152D02*
X227757142Y-139085771D01*
X227757142Y-139085771D02*
X227804761Y-139133390D01*
X227804761Y-139133390D02*
X227852380Y-139228628D01*
X227852380Y-139228628D02*
X227852380Y-139514342D01*
X227852380Y-139514342D02*
X227804761Y-139609580D01*
X227804761Y-139609580D02*
X227757142Y-139657200D01*
X227757142Y-139657200D02*
X227661904Y-139704819D01*
X227661904Y-139704819D02*
X227519047Y-139704819D01*
X228423809Y-139704819D02*
X228328571Y-139657200D01*
X228328571Y-139657200D02*
X228280952Y-139561961D01*
X228280952Y-139561961D02*
X228280952Y-138704819D01*
X229185714Y-139657200D02*
X229090476Y-139704819D01*
X229090476Y-139704819D02*
X228900000Y-139704819D01*
X228900000Y-139704819D02*
X228804762Y-139657200D01*
X228804762Y-139657200D02*
X228757143Y-139561961D01*
X228757143Y-139561961D02*
X228757143Y-139181009D01*
X228757143Y-139181009D02*
X228804762Y-139085771D01*
X228804762Y-139085771D02*
X228900000Y-139038152D01*
X228900000Y-139038152D02*
X229090476Y-139038152D01*
X229090476Y-139038152D02*
X229185714Y-139085771D01*
X229185714Y-139085771D02*
X229233333Y-139181009D01*
X229233333Y-139181009D02*
X229233333Y-139276247D01*
X229233333Y-139276247D02*
X228757143Y-139371485D01*
X222685714Y-136254819D02*
X222685714Y-135254819D01*
X222685714Y-135731009D02*
X223257142Y-135731009D01*
X223257142Y-136254819D02*
X223257142Y-135254819D01*
X223685714Y-135350057D02*
X223733333Y-135302438D01*
X223733333Y-135302438D02*
X223828571Y-135254819D01*
X223828571Y-135254819D02*
X224066666Y-135254819D01*
X224066666Y-135254819D02*
X224161904Y-135302438D01*
X224161904Y-135302438D02*
X224209523Y-135350057D01*
X224209523Y-135350057D02*
X224257142Y-135445295D01*
X224257142Y-135445295D02*
X224257142Y-135540533D01*
X224257142Y-135540533D02*
X224209523Y-135683390D01*
X224209523Y-135683390D02*
X223638095Y-136254819D01*
X223638095Y-136254819D02*
X224257142Y-136254819D01*
X224876190Y-135254819D02*
X224971428Y-135254819D01*
X224971428Y-135254819D02*
X225066666Y-135302438D01*
X225066666Y-135302438D02*
X225114285Y-135350057D01*
X225114285Y-135350057D02*
X225161904Y-135445295D01*
X225161904Y-135445295D02*
X225209523Y-135635771D01*
X225209523Y-135635771D02*
X225209523Y-135873866D01*
X225209523Y-135873866D02*
X225161904Y-136064342D01*
X225161904Y-136064342D02*
X225114285Y-136159580D01*
X225114285Y-136159580D02*
X225066666Y-136207200D01*
X225066666Y-136207200D02*
X224971428Y-136254819D01*
X224971428Y-136254819D02*
X224876190Y-136254819D01*
X224876190Y-136254819D02*
X224780952Y-136207200D01*
X224780952Y-136207200D02*
X224733333Y-136159580D01*
X224733333Y-136159580D02*
X224685714Y-136064342D01*
X224685714Y-136064342D02*
X224638095Y-135873866D01*
X224638095Y-135873866D02*
X224638095Y-135635771D01*
X224638095Y-135635771D02*
X224685714Y-135445295D01*
X224685714Y-135445295D02*
X224733333Y-135350057D01*
X224733333Y-135350057D02*
X224780952Y-135302438D01*
X224780952Y-135302438D02*
X224876190Y-135254819D01*
X225542857Y-135254819D02*
X226161904Y-135254819D01*
X226161904Y-135254819D02*
X225828571Y-135635771D01*
X225828571Y-135635771D02*
X225971428Y-135635771D01*
X225971428Y-135635771D02*
X226066666Y-135683390D01*
X226066666Y-135683390D02*
X226114285Y-135731009D01*
X226114285Y-135731009D02*
X226161904Y-135826247D01*
X226161904Y-135826247D02*
X226161904Y-136064342D01*
X226161904Y-136064342D02*
X226114285Y-136159580D01*
X226114285Y-136159580D02*
X226066666Y-136207200D01*
X226066666Y-136207200D02*
X225971428Y-136254819D01*
X225971428Y-136254819D02*
X225685714Y-136254819D01*
X225685714Y-136254819D02*
X225590476Y-136207200D01*
X225590476Y-136207200D02*
X225542857Y-136159580D01*
D10*
X193363855Y-49133332D02*
X192982902Y-49399999D01*
X193363855Y-49590475D02*
X192563855Y-49590475D01*
X192563855Y-49590475D02*
X192563855Y-49285713D01*
X192563855Y-49285713D02*
X192601950Y-49209523D01*
X192601950Y-49209523D02*
X192640045Y-49171428D01*
X192640045Y-49171428D02*
X192716236Y-49133332D01*
X192716236Y-49133332D02*
X192830521Y-49133332D01*
X192830521Y-49133332D02*
X192906712Y-49171428D01*
X192906712Y-49171428D02*
X192944807Y-49209523D01*
X192944807Y-49209523D02*
X192982902Y-49285713D01*
X192982902Y-49285713D02*
X192982902Y-49590475D01*
X193363855Y-48371428D02*
X193363855Y-48828571D01*
X193363855Y-48599999D02*
X192563855Y-48599999D01*
X192563855Y-48599999D02*
X192678140Y-48676190D01*
X192678140Y-48676190D02*
X192754331Y-48752380D01*
X192754331Y-48752380D02*
X192792426Y-48828571D01*
X182538855Y-49640475D02*
X181738855Y-49640475D01*
X181738855Y-49640475D02*
X181738855Y-49449999D01*
X181738855Y-49449999D02*
X181776950Y-49335713D01*
X181776950Y-49335713D02*
X181853140Y-49259523D01*
X181853140Y-49259523D02*
X181929331Y-49221428D01*
X181929331Y-49221428D02*
X182081712Y-49183332D01*
X182081712Y-49183332D02*
X182195998Y-49183332D01*
X182195998Y-49183332D02*
X182348379Y-49221428D01*
X182348379Y-49221428D02*
X182424569Y-49259523D01*
X182424569Y-49259523D02*
X182500760Y-49335713D01*
X182500760Y-49335713D02*
X182538855Y-49449999D01*
X182538855Y-49449999D02*
X182538855Y-49640475D01*
X182538855Y-48421428D02*
X182538855Y-48878571D01*
X182538855Y-48649999D02*
X181738855Y-48649999D01*
X181738855Y-48649999D02*
X181853140Y-48726190D01*
X181853140Y-48726190D02*
X181929331Y-48802380D01*
X181929331Y-48802380D02*
X181967426Y-48878571D01*
D12*
X125214285Y-109504819D02*
X125214285Y-108504819D01*
X125214285Y-108504819D02*
X125547618Y-109219104D01*
X125547618Y-109219104D02*
X125880951Y-108504819D01*
X125880951Y-108504819D02*
X125880951Y-109504819D01*
X126499999Y-109504819D02*
X126404761Y-109457200D01*
X126404761Y-109457200D02*
X126357142Y-109409580D01*
X126357142Y-109409580D02*
X126309523Y-109314342D01*
X126309523Y-109314342D02*
X126309523Y-109028628D01*
X126309523Y-109028628D02*
X126357142Y-108933390D01*
X126357142Y-108933390D02*
X126404761Y-108885771D01*
X126404761Y-108885771D02*
X126499999Y-108838152D01*
X126499999Y-108838152D02*
X126642856Y-108838152D01*
X126642856Y-108838152D02*
X126738094Y-108885771D01*
X126738094Y-108885771D02*
X126785713Y-108933390D01*
X126785713Y-108933390D02*
X126833332Y-109028628D01*
X126833332Y-109028628D02*
X126833332Y-109314342D01*
X126833332Y-109314342D02*
X126785713Y-109409580D01*
X126785713Y-109409580D02*
X126738094Y-109457200D01*
X126738094Y-109457200D02*
X126642856Y-109504819D01*
X126642856Y-109504819D02*
X126499999Y-109504819D01*
X127690475Y-108838152D02*
X127690475Y-109504819D01*
X127261904Y-108838152D02*
X127261904Y-109361961D01*
X127261904Y-109361961D02*
X127309523Y-109457200D01*
X127309523Y-109457200D02*
X127404761Y-109504819D01*
X127404761Y-109504819D02*
X127547618Y-109504819D01*
X127547618Y-109504819D02*
X127642856Y-109457200D01*
X127642856Y-109457200D02*
X127690475Y-109409580D01*
X128166666Y-108838152D02*
X128166666Y-109504819D01*
X128166666Y-108933390D02*
X128214285Y-108885771D01*
X128214285Y-108885771D02*
X128309523Y-108838152D01*
X128309523Y-108838152D02*
X128452380Y-108838152D01*
X128452380Y-108838152D02*
X128547618Y-108885771D01*
X128547618Y-108885771D02*
X128595237Y-108981009D01*
X128595237Y-108981009D02*
X128595237Y-109504819D01*
X128928571Y-108838152D02*
X129309523Y-108838152D01*
X129071428Y-108504819D02*
X129071428Y-109361961D01*
X129071428Y-109361961D02*
X129119047Y-109457200D01*
X129119047Y-109457200D02*
X129214285Y-109504819D01*
X129214285Y-109504819D02*
X129309523Y-109504819D01*
X129642857Y-109504819D02*
X129642857Y-108838152D01*
X129642857Y-108504819D02*
X129595238Y-108552438D01*
X129595238Y-108552438D02*
X129642857Y-108600057D01*
X129642857Y-108600057D02*
X129690476Y-108552438D01*
X129690476Y-108552438D02*
X129642857Y-108504819D01*
X129642857Y-108504819D02*
X129642857Y-108600057D01*
X130119047Y-108838152D02*
X130119047Y-109504819D01*
X130119047Y-108933390D02*
X130166666Y-108885771D01*
X130166666Y-108885771D02*
X130261904Y-108838152D01*
X130261904Y-108838152D02*
X130404761Y-108838152D01*
X130404761Y-108838152D02*
X130499999Y-108885771D01*
X130499999Y-108885771D02*
X130547618Y-108981009D01*
X130547618Y-108981009D02*
X130547618Y-109504819D01*
X131452380Y-108838152D02*
X131452380Y-109647676D01*
X131452380Y-109647676D02*
X131404761Y-109742914D01*
X131404761Y-109742914D02*
X131357142Y-109790533D01*
X131357142Y-109790533D02*
X131261904Y-109838152D01*
X131261904Y-109838152D02*
X131119047Y-109838152D01*
X131119047Y-109838152D02*
X131023809Y-109790533D01*
X131452380Y-109457200D02*
X131357142Y-109504819D01*
X131357142Y-109504819D02*
X131166666Y-109504819D01*
X131166666Y-109504819D02*
X131071428Y-109457200D01*
X131071428Y-109457200D02*
X131023809Y-109409580D01*
X131023809Y-109409580D02*
X130976190Y-109314342D01*
X130976190Y-109314342D02*
X130976190Y-109028628D01*
X130976190Y-109028628D02*
X131023809Y-108933390D01*
X131023809Y-108933390D02*
X131071428Y-108885771D01*
X131071428Y-108885771D02*
X131166666Y-108838152D01*
X131166666Y-108838152D02*
X131357142Y-108838152D01*
X131357142Y-108838152D02*
X131452380Y-108885771D01*
X131928571Y-109504819D02*
X131928571Y-108504819D01*
X131928571Y-108981009D02*
X132499999Y-108981009D01*
X132499999Y-109504819D02*
X132499999Y-108504819D01*
X133119047Y-109504819D02*
X133023809Y-109457200D01*
X133023809Y-109457200D02*
X132976190Y-109409580D01*
X132976190Y-109409580D02*
X132928571Y-109314342D01*
X132928571Y-109314342D02*
X132928571Y-109028628D01*
X132928571Y-109028628D02*
X132976190Y-108933390D01*
X132976190Y-108933390D02*
X133023809Y-108885771D01*
X133023809Y-108885771D02*
X133119047Y-108838152D01*
X133119047Y-108838152D02*
X133261904Y-108838152D01*
X133261904Y-108838152D02*
X133357142Y-108885771D01*
X133357142Y-108885771D02*
X133404761Y-108933390D01*
X133404761Y-108933390D02*
X133452380Y-109028628D01*
X133452380Y-109028628D02*
X133452380Y-109314342D01*
X133452380Y-109314342D02*
X133404761Y-109409580D01*
X133404761Y-109409580D02*
X133357142Y-109457200D01*
X133357142Y-109457200D02*
X133261904Y-109504819D01*
X133261904Y-109504819D02*
X133119047Y-109504819D01*
X134023809Y-109504819D02*
X133928571Y-109457200D01*
X133928571Y-109457200D02*
X133880952Y-109361961D01*
X133880952Y-109361961D02*
X133880952Y-108504819D01*
X134785714Y-109457200D02*
X134690476Y-109504819D01*
X134690476Y-109504819D02*
X134500000Y-109504819D01*
X134500000Y-109504819D02*
X134404762Y-109457200D01*
X134404762Y-109457200D02*
X134357143Y-109361961D01*
X134357143Y-109361961D02*
X134357143Y-108981009D01*
X134357143Y-108981009D02*
X134404762Y-108885771D01*
X134404762Y-108885771D02*
X134500000Y-108838152D01*
X134500000Y-108838152D02*
X134690476Y-108838152D01*
X134690476Y-108838152D02*
X134785714Y-108885771D01*
X134785714Y-108885771D02*
X134833333Y-108981009D01*
X134833333Y-108981009D02*
X134833333Y-109076247D01*
X134833333Y-109076247D02*
X134357143Y-109171485D01*
X129238095Y-105854819D02*
X129238095Y-104854819D01*
X129238095Y-105331009D02*
X129809523Y-105331009D01*
X129809523Y-105854819D02*
X129809523Y-104854819D01*
X130714285Y-105188152D02*
X130714285Y-105854819D01*
X130476190Y-104807200D02*
X130238095Y-105521485D01*
X130238095Y-105521485D02*
X130857142Y-105521485D01*
X136579819Y-77683333D02*
X137294104Y-77683333D01*
X137294104Y-77683333D02*
X137436961Y-77730952D01*
X137436961Y-77730952D02*
X137532200Y-77826190D01*
X137532200Y-77826190D02*
X137579819Y-77969047D01*
X137579819Y-77969047D02*
X137579819Y-78064285D01*
X137579819Y-76683333D02*
X137579819Y-77254761D01*
X137579819Y-76969047D02*
X136579819Y-76969047D01*
X136579819Y-76969047D02*
X136722676Y-77064285D01*
X136722676Y-77064285D02*
X136817914Y-77159523D01*
X136817914Y-77159523D02*
X136865533Y-77254761D01*
D10*
X178038855Y-49652975D02*
X177238855Y-49652975D01*
X177238855Y-49652975D02*
X177238855Y-49462499D01*
X177238855Y-49462499D02*
X177276950Y-49348213D01*
X177276950Y-49348213D02*
X177353140Y-49272023D01*
X177353140Y-49272023D02*
X177429331Y-49233928D01*
X177429331Y-49233928D02*
X177581712Y-49195832D01*
X177581712Y-49195832D02*
X177695998Y-49195832D01*
X177695998Y-49195832D02*
X177848379Y-49233928D01*
X177848379Y-49233928D02*
X177924569Y-49272023D01*
X177924569Y-49272023D02*
X178000760Y-49348213D01*
X178000760Y-49348213D02*
X178038855Y-49462499D01*
X178038855Y-49462499D02*
X178038855Y-49652975D01*
X177315045Y-48891071D02*
X177276950Y-48852975D01*
X177276950Y-48852975D02*
X177238855Y-48776785D01*
X177238855Y-48776785D02*
X177238855Y-48586309D01*
X177238855Y-48586309D02*
X177276950Y-48510118D01*
X177276950Y-48510118D02*
X177315045Y-48472023D01*
X177315045Y-48472023D02*
X177391236Y-48433928D01*
X177391236Y-48433928D02*
X177467426Y-48433928D01*
X177467426Y-48433928D02*
X177581712Y-48472023D01*
X177581712Y-48472023D02*
X178038855Y-48929166D01*
X178038855Y-48929166D02*
X178038855Y-48433928D01*
X160435714Y-56963855D02*
X160169047Y-56582902D01*
X159978571Y-56963855D02*
X159978571Y-56163855D01*
X159978571Y-56163855D02*
X160283333Y-56163855D01*
X160283333Y-56163855D02*
X160359523Y-56201950D01*
X160359523Y-56201950D02*
X160397618Y-56240045D01*
X160397618Y-56240045D02*
X160435714Y-56316236D01*
X160435714Y-56316236D02*
X160435714Y-56430521D01*
X160435714Y-56430521D02*
X160397618Y-56506712D01*
X160397618Y-56506712D02*
X160359523Y-56544807D01*
X160359523Y-56544807D02*
X160283333Y-56582902D01*
X160283333Y-56582902D02*
X159978571Y-56582902D01*
X161197618Y-56963855D02*
X160740475Y-56963855D01*
X160969047Y-56963855D02*
X160969047Y-56163855D01*
X160969047Y-56163855D02*
X160892856Y-56278140D01*
X160892856Y-56278140D02*
X160816666Y-56354331D01*
X160816666Y-56354331D02*
X160740475Y-56392426D01*
X161692857Y-56163855D02*
X161769047Y-56163855D01*
X161769047Y-56163855D02*
X161845238Y-56201950D01*
X161845238Y-56201950D02*
X161883333Y-56240045D01*
X161883333Y-56240045D02*
X161921428Y-56316236D01*
X161921428Y-56316236D02*
X161959523Y-56468617D01*
X161959523Y-56468617D02*
X161959523Y-56659093D01*
X161959523Y-56659093D02*
X161921428Y-56811474D01*
X161921428Y-56811474D02*
X161883333Y-56887664D01*
X161883333Y-56887664D02*
X161845238Y-56925760D01*
X161845238Y-56925760D02*
X161769047Y-56963855D01*
X161769047Y-56963855D02*
X161692857Y-56963855D01*
X161692857Y-56963855D02*
X161616666Y-56925760D01*
X161616666Y-56925760D02*
X161578571Y-56887664D01*
X161578571Y-56887664D02*
X161540476Y-56811474D01*
X161540476Y-56811474D02*
X161502380Y-56659093D01*
X161502380Y-56659093D02*
X161502380Y-56468617D01*
X161502380Y-56468617D02*
X161540476Y-56316236D01*
X161540476Y-56316236D02*
X161578571Y-56240045D01*
X161578571Y-56240045D02*
X161616666Y-56201950D01*
X161616666Y-56201950D02*
X161692857Y-56163855D01*
D12*
X134954819Y-94583333D02*
X135669104Y-94583333D01*
X135669104Y-94583333D02*
X135811961Y-94630952D01*
X135811961Y-94630952D02*
X135907200Y-94726190D01*
X135907200Y-94726190D02*
X135954819Y-94869047D01*
X135954819Y-94869047D02*
X135954819Y-94964285D01*
X135288152Y-93678571D02*
X135954819Y-93678571D01*
X134907200Y-93916666D02*
X135621485Y-94154761D01*
X135621485Y-94154761D02*
X135621485Y-93535714D01*
X180916666Y-69254819D02*
X180916666Y-69969104D01*
X180916666Y-69969104D02*
X180869047Y-70111961D01*
X180869047Y-70111961D02*
X180773809Y-70207200D01*
X180773809Y-70207200D02*
X180630952Y-70254819D01*
X180630952Y-70254819D02*
X180535714Y-70254819D01*
X181869047Y-69254819D02*
X181392857Y-69254819D01*
X181392857Y-69254819D02*
X181345238Y-69731009D01*
X181345238Y-69731009D02*
X181392857Y-69683390D01*
X181392857Y-69683390D02*
X181488095Y-69635771D01*
X181488095Y-69635771D02*
X181726190Y-69635771D01*
X181726190Y-69635771D02*
X181821428Y-69683390D01*
X181821428Y-69683390D02*
X181869047Y-69731009D01*
X181869047Y-69731009D02*
X181916666Y-69826247D01*
X181916666Y-69826247D02*
X181916666Y-70064342D01*
X181916666Y-70064342D02*
X181869047Y-70159580D01*
X181869047Y-70159580D02*
X181821428Y-70207200D01*
X181821428Y-70207200D02*
X181726190Y-70254819D01*
X181726190Y-70254819D02*
X181488095Y-70254819D01*
X181488095Y-70254819D02*
X181392857Y-70207200D01*
X181392857Y-70207200D02*
X181345238Y-70159580D01*
D10*
X215366667Y-47963855D02*
X215100000Y-47582902D01*
X214909524Y-47963855D02*
X214909524Y-47163855D01*
X214909524Y-47163855D02*
X215214286Y-47163855D01*
X215214286Y-47163855D02*
X215290476Y-47201950D01*
X215290476Y-47201950D02*
X215328571Y-47240045D01*
X215328571Y-47240045D02*
X215366667Y-47316236D01*
X215366667Y-47316236D02*
X215366667Y-47430521D01*
X215366667Y-47430521D02*
X215328571Y-47506712D01*
X215328571Y-47506712D02*
X215290476Y-47544807D01*
X215290476Y-47544807D02*
X215214286Y-47582902D01*
X215214286Y-47582902D02*
X214909524Y-47582902D01*
X215823809Y-47506712D02*
X215747619Y-47468617D01*
X215747619Y-47468617D02*
X215709524Y-47430521D01*
X215709524Y-47430521D02*
X215671428Y-47354331D01*
X215671428Y-47354331D02*
X215671428Y-47316236D01*
X215671428Y-47316236D02*
X215709524Y-47240045D01*
X215709524Y-47240045D02*
X215747619Y-47201950D01*
X215747619Y-47201950D02*
X215823809Y-47163855D01*
X215823809Y-47163855D02*
X215976190Y-47163855D01*
X215976190Y-47163855D02*
X216052381Y-47201950D01*
X216052381Y-47201950D02*
X216090476Y-47240045D01*
X216090476Y-47240045D02*
X216128571Y-47316236D01*
X216128571Y-47316236D02*
X216128571Y-47354331D01*
X216128571Y-47354331D02*
X216090476Y-47430521D01*
X216090476Y-47430521D02*
X216052381Y-47468617D01*
X216052381Y-47468617D02*
X215976190Y-47506712D01*
X215976190Y-47506712D02*
X215823809Y-47506712D01*
X215823809Y-47506712D02*
X215747619Y-47544807D01*
X215747619Y-47544807D02*
X215709524Y-47582902D01*
X215709524Y-47582902D02*
X215671428Y-47659093D01*
X215671428Y-47659093D02*
X215671428Y-47811474D01*
X215671428Y-47811474D02*
X215709524Y-47887664D01*
X215709524Y-47887664D02*
X215747619Y-47925760D01*
X215747619Y-47925760D02*
X215823809Y-47963855D01*
X215823809Y-47963855D02*
X215976190Y-47963855D01*
X215976190Y-47963855D02*
X216052381Y-47925760D01*
X216052381Y-47925760D02*
X216090476Y-47887664D01*
X216090476Y-47887664D02*
X216128571Y-47811474D01*
X216128571Y-47811474D02*
X216128571Y-47659093D01*
X216128571Y-47659093D02*
X216090476Y-47582902D01*
X216090476Y-47582902D02*
X216052381Y-47544807D01*
X216052381Y-47544807D02*
X215976190Y-47506712D01*
X204863855Y-59283332D02*
X204482902Y-59549999D01*
X204863855Y-59740475D02*
X204063855Y-59740475D01*
X204063855Y-59740475D02*
X204063855Y-59435713D01*
X204063855Y-59435713D02*
X204101950Y-59359523D01*
X204101950Y-59359523D02*
X204140045Y-59321428D01*
X204140045Y-59321428D02*
X204216236Y-59283332D01*
X204216236Y-59283332D02*
X204330521Y-59283332D01*
X204330521Y-59283332D02*
X204406712Y-59321428D01*
X204406712Y-59321428D02*
X204444807Y-59359523D01*
X204444807Y-59359523D02*
X204482902Y-59435713D01*
X204482902Y-59435713D02*
X204482902Y-59740475D01*
X204063855Y-58559523D02*
X204063855Y-58940475D01*
X204063855Y-58940475D02*
X204444807Y-58978571D01*
X204444807Y-58978571D02*
X204406712Y-58940475D01*
X204406712Y-58940475D02*
X204368617Y-58864285D01*
X204368617Y-58864285D02*
X204368617Y-58673809D01*
X204368617Y-58673809D02*
X204406712Y-58597618D01*
X204406712Y-58597618D02*
X204444807Y-58559523D01*
X204444807Y-58559523D02*
X204520998Y-58521428D01*
X204520998Y-58521428D02*
X204711474Y-58521428D01*
X204711474Y-58521428D02*
X204787664Y-58559523D01*
X204787664Y-58559523D02*
X204825760Y-58597618D01*
X204825760Y-58597618D02*
X204863855Y-58673809D01*
X204863855Y-58673809D02*
X204863855Y-58864285D01*
X204863855Y-58864285D02*
X204825760Y-58940475D01*
X204825760Y-58940475D02*
X204787664Y-58978571D01*
X185942262Y-115673450D02*
X185904166Y-115711546D01*
X185904166Y-115711546D02*
X185789881Y-115749641D01*
X185789881Y-115749641D02*
X185713690Y-115749641D01*
X185713690Y-115749641D02*
X185599404Y-115711546D01*
X185599404Y-115711546D02*
X185523214Y-115635355D01*
X185523214Y-115635355D02*
X185485119Y-115559165D01*
X185485119Y-115559165D02*
X185447023Y-115406784D01*
X185447023Y-115406784D02*
X185447023Y-115292498D01*
X185447023Y-115292498D02*
X185485119Y-115140117D01*
X185485119Y-115140117D02*
X185523214Y-115063926D01*
X185523214Y-115063926D02*
X185599404Y-114987736D01*
X185599404Y-114987736D02*
X185713690Y-114949641D01*
X185713690Y-114949641D02*
X185789881Y-114949641D01*
X185789881Y-114949641D02*
X185904166Y-114987736D01*
X185904166Y-114987736D02*
X185942262Y-115025831D01*
X186247023Y-115025831D02*
X186285119Y-114987736D01*
X186285119Y-114987736D02*
X186361309Y-114949641D01*
X186361309Y-114949641D02*
X186551785Y-114949641D01*
X186551785Y-114949641D02*
X186627976Y-114987736D01*
X186627976Y-114987736D02*
X186666071Y-115025831D01*
X186666071Y-115025831D02*
X186704166Y-115102022D01*
X186704166Y-115102022D02*
X186704166Y-115178212D01*
X186704166Y-115178212D02*
X186666071Y-115292498D01*
X186666071Y-115292498D02*
X186208928Y-115749641D01*
X186208928Y-115749641D02*
X186704166Y-115749641D01*
X187199405Y-114949641D02*
X187275595Y-114949641D01*
X187275595Y-114949641D02*
X187351786Y-114987736D01*
X187351786Y-114987736D02*
X187389881Y-115025831D01*
X187389881Y-115025831D02*
X187427976Y-115102022D01*
X187427976Y-115102022D02*
X187466071Y-115254403D01*
X187466071Y-115254403D02*
X187466071Y-115444879D01*
X187466071Y-115444879D02*
X187427976Y-115597260D01*
X187427976Y-115597260D02*
X187389881Y-115673450D01*
X187389881Y-115673450D02*
X187351786Y-115711546D01*
X187351786Y-115711546D02*
X187275595Y-115749641D01*
X187275595Y-115749641D02*
X187199405Y-115749641D01*
X187199405Y-115749641D02*
X187123214Y-115711546D01*
X187123214Y-115711546D02*
X187085119Y-115673450D01*
X187085119Y-115673450D02*
X187047024Y-115597260D01*
X187047024Y-115597260D02*
X187008928Y-115444879D01*
X187008928Y-115444879D02*
X187008928Y-115254403D01*
X187008928Y-115254403D02*
X187047024Y-115102022D01*
X187047024Y-115102022D02*
X187085119Y-115025831D01*
X187085119Y-115025831D02*
X187123214Y-114987736D01*
X187123214Y-114987736D02*
X187199405Y-114949641D01*
X188227976Y-115749641D02*
X187770833Y-115749641D01*
X187999405Y-115749641D02*
X187999405Y-114949641D01*
X187999405Y-114949641D02*
X187923214Y-115063926D01*
X187923214Y-115063926D02*
X187847024Y-115140117D01*
X187847024Y-115140117D02*
X187770833Y-115178212D01*
X186154762Y-128149641D02*
X185888095Y-127768688D01*
X185697619Y-128149641D02*
X185697619Y-127349641D01*
X185697619Y-127349641D02*
X186002381Y-127349641D01*
X186002381Y-127349641D02*
X186078571Y-127387736D01*
X186078571Y-127387736D02*
X186116666Y-127425831D01*
X186116666Y-127425831D02*
X186154762Y-127502022D01*
X186154762Y-127502022D02*
X186154762Y-127616307D01*
X186154762Y-127616307D02*
X186116666Y-127692498D01*
X186116666Y-127692498D02*
X186078571Y-127730593D01*
X186078571Y-127730593D02*
X186002381Y-127768688D01*
X186002381Y-127768688D02*
X185697619Y-127768688D01*
X186459523Y-127425831D02*
X186497619Y-127387736D01*
X186497619Y-127387736D02*
X186573809Y-127349641D01*
X186573809Y-127349641D02*
X186764285Y-127349641D01*
X186764285Y-127349641D02*
X186840476Y-127387736D01*
X186840476Y-127387736D02*
X186878571Y-127425831D01*
X186878571Y-127425831D02*
X186916666Y-127502022D01*
X186916666Y-127502022D02*
X186916666Y-127578212D01*
X186916666Y-127578212D02*
X186878571Y-127692498D01*
X186878571Y-127692498D02*
X186421428Y-128149641D01*
X186421428Y-128149641D02*
X186916666Y-128149641D01*
X187411905Y-127349641D02*
X187488095Y-127349641D01*
X187488095Y-127349641D02*
X187564286Y-127387736D01*
X187564286Y-127387736D02*
X187602381Y-127425831D01*
X187602381Y-127425831D02*
X187640476Y-127502022D01*
X187640476Y-127502022D02*
X187678571Y-127654403D01*
X187678571Y-127654403D02*
X187678571Y-127844879D01*
X187678571Y-127844879D02*
X187640476Y-127997260D01*
X187640476Y-127997260D02*
X187602381Y-128073450D01*
X187602381Y-128073450D02*
X187564286Y-128111546D01*
X187564286Y-128111546D02*
X187488095Y-128149641D01*
X187488095Y-128149641D02*
X187411905Y-128149641D01*
X187411905Y-128149641D02*
X187335714Y-128111546D01*
X187335714Y-128111546D02*
X187297619Y-128073450D01*
X187297619Y-128073450D02*
X187259524Y-127997260D01*
X187259524Y-127997260D02*
X187221428Y-127844879D01*
X187221428Y-127844879D02*
X187221428Y-127654403D01*
X187221428Y-127654403D02*
X187259524Y-127502022D01*
X187259524Y-127502022D02*
X187297619Y-127425831D01*
X187297619Y-127425831D02*
X187335714Y-127387736D01*
X187335714Y-127387736D02*
X187411905Y-127349641D01*
X188440476Y-128149641D02*
X187983333Y-128149641D01*
X188211905Y-128149641D02*
X188211905Y-127349641D01*
X188211905Y-127349641D02*
X188135714Y-127463926D01*
X188135714Y-127463926D02*
X188059524Y-127540117D01*
X188059524Y-127540117D02*
X187983333Y-127578212D01*
X185992262Y-119349641D02*
X185725595Y-118968688D01*
X185535119Y-119349641D02*
X185535119Y-118549641D01*
X185535119Y-118549641D02*
X185839881Y-118549641D01*
X185839881Y-118549641D02*
X185916071Y-118587736D01*
X185916071Y-118587736D02*
X185954166Y-118625831D01*
X185954166Y-118625831D02*
X185992262Y-118702022D01*
X185992262Y-118702022D02*
X185992262Y-118816307D01*
X185992262Y-118816307D02*
X185954166Y-118892498D01*
X185954166Y-118892498D02*
X185916071Y-118930593D01*
X185916071Y-118930593D02*
X185839881Y-118968688D01*
X185839881Y-118968688D02*
X185535119Y-118968688D01*
X186297023Y-118625831D02*
X186335119Y-118587736D01*
X186335119Y-118587736D02*
X186411309Y-118549641D01*
X186411309Y-118549641D02*
X186601785Y-118549641D01*
X186601785Y-118549641D02*
X186677976Y-118587736D01*
X186677976Y-118587736D02*
X186716071Y-118625831D01*
X186716071Y-118625831D02*
X186754166Y-118702022D01*
X186754166Y-118702022D02*
X186754166Y-118778212D01*
X186754166Y-118778212D02*
X186716071Y-118892498D01*
X186716071Y-118892498D02*
X186258928Y-119349641D01*
X186258928Y-119349641D02*
X186754166Y-119349641D01*
X187249405Y-118549641D02*
X187325595Y-118549641D01*
X187325595Y-118549641D02*
X187401786Y-118587736D01*
X187401786Y-118587736D02*
X187439881Y-118625831D01*
X187439881Y-118625831D02*
X187477976Y-118702022D01*
X187477976Y-118702022D02*
X187516071Y-118854403D01*
X187516071Y-118854403D02*
X187516071Y-119044879D01*
X187516071Y-119044879D02*
X187477976Y-119197260D01*
X187477976Y-119197260D02*
X187439881Y-119273450D01*
X187439881Y-119273450D02*
X187401786Y-119311546D01*
X187401786Y-119311546D02*
X187325595Y-119349641D01*
X187325595Y-119349641D02*
X187249405Y-119349641D01*
X187249405Y-119349641D02*
X187173214Y-119311546D01*
X187173214Y-119311546D02*
X187135119Y-119273450D01*
X187135119Y-119273450D02*
X187097024Y-119197260D01*
X187097024Y-119197260D02*
X187058928Y-119044879D01*
X187058928Y-119044879D02*
X187058928Y-118854403D01*
X187058928Y-118854403D02*
X187097024Y-118702022D01*
X187097024Y-118702022D02*
X187135119Y-118625831D01*
X187135119Y-118625831D02*
X187173214Y-118587736D01*
X187173214Y-118587736D02*
X187249405Y-118549641D01*
X187820833Y-118625831D02*
X187858929Y-118587736D01*
X187858929Y-118587736D02*
X187935119Y-118549641D01*
X187935119Y-118549641D02*
X188125595Y-118549641D01*
X188125595Y-118549641D02*
X188201786Y-118587736D01*
X188201786Y-118587736D02*
X188239881Y-118625831D01*
X188239881Y-118625831D02*
X188277976Y-118702022D01*
X188277976Y-118702022D02*
X188277976Y-118778212D01*
X188277976Y-118778212D02*
X188239881Y-118892498D01*
X188239881Y-118892498D02*
X187782738Y-119349641D01*
X187782738Y-119349641D02*
X188277976Y-119349641D01*
X207787664Y-59170832D02*
X207825760Y-59208928D01*
X207825760Y-59208928D02*
X207863855Y-59323213D01*
X207863855Y-59323213D02*
X207863855Y-59399404D01*
X207863855Y-59399404D02*
X207825760Y-59513690D01*
X207825760Y-59513690D02*
X207749569Y-59589880D01*
X207749569Y-59589880D02*
X207673379Y-59627975D01*
X207673379Y-59627975D02*
X207520998Y-59666071D01*
X207520998Y-59666071D02*
X207406712Y-59666071D01*
X207406712Y-59666071D02*
X207254331Y-59627975D01*
X207254331Y-59627975D02*
X207178140Y-59589880D01*
X207178140Y-59589880D02*
X207101950Y-59513690D01*
X207101950Y-59513690D02*
X207063855Y-59399404D01*
X207063855Y-59399404D02*
X207063855Y-59323213D01*
X207063855Y-59323213D02*
X207101950Y-59208928D01*
X207101950Y-59208928D02*
X207140045Y-59170832D01*
X207140045Y-58866071D02*
X207101950Y-58827975D01*
X207101950Y-58827975D02*
X207063855Y-58751785D01*
X207063855Y-58751785D02*
X207063855Y-58561309D01*
X207063855Y-58561309D02*
X207101950Y-58485118D01*
X207101950Y-58485118D02*
X207140045Y-58447023D01*
X207140045Y-58447023D02*
X207216236Y-58408928D01*
X207216236Y-58408928D02*
X207292426Y-58408928D01*
X207292426Y-58408928D02*
X207406712Y-58447023D01*
X207406712Y-58447023D02*
X207863855Y-58904166D01*
X207863855Y-58904166D02*
X207863855Y-58408928D01*
D11*
X188333437Y-61218571D02*
X188299151Y-61287142D01*
X188299151Y-61287142D02*
X188230580Y-61355714D01*
X188230580Y-61355714D02*
X188127722Y-61458571D01*
X188127722Y-61458571D02*
X188093437Y-61527142D01*
X188093437Y-61527142D02*
X188093437Y-61595714D01*
X188264865Y-61561428D02*
X188230580Y-61630000D01*
X188230580Y-61630000D02*
X188162008Y-61698571D01*
X188162008Y-61698571D02*
X188024865Y-61732857D01*
X188024865Y-61732857D02*
X187784865Y-61732857D01*
X187784865Y-61732857D02*
X187647722Y-61698571D01*
X187647722Y-61698571D02*
X187579151Y-61630000D01*
X187579151Y-61630000D02*
X187544865Y-61561428D01*
X187544865Y-61561428D02*
X187544865Y-61424285D01*
X187544865Y-61424285D02*
X187579151Y-61355714D01*
X187579151Y-61355714D02*
X187647722Y-61287142D01*
X187647722Y-61287142D02*
X187784865Y-61252857D01*
X187784865Y-61252857D02*
X188024865Y-61252857D01*
X188024865Y-61252857D02*
X188162008Y-61287142D01*
X188162008Y-61287142D02*
X188230580Y-61355714D01*
X188230580Y-61355714D02*
X188264865Y-61424285D01*
X188264865Y-61424285D02*
X188264865Y-61561428D01*
X187544865Y-61012856D02*
X187544865Y-60567142D01*
X187544865Y-60567142D02*
X187819151Y-60807142D01*
X187819151Y-60807142D02*
X187819151Y-60704285D01*
X187819151Y-60704285D02*
X187853437Y-60635714D01*
X187853437Y-60635714D02*
X187887722Y-60601428D01*
X187887722Y-60601428D02*
X187956294Y-60567142D01*
X187956294Y-60567142D02*
X188127722Y-60567142D01*
X188127722Y-60567142D02*
X188196294Y-60601428D01*
X188196294Y-60601428D02*
X188230580Y-60635714D01*
X188230580Y-60635714D02*
X188264865Y-60704285D01*
X188264865Y-60704285D02*
X188264865Y-60909999D01*
X188264865Y-60909999D02*
X188230580Y-60978571D01*
X188230580Y-60978571D02*
X188196294Y-61012856D01*
D10*
X203863855Y-93783332D02*
X203482902Y-94049999D01*
X203863855Y-94240475D02*
X203063855Y-94240475D01*
X203063855Y-94240475D02*
X203063855Y-93935713D01*
X203063855Y-93935713D02*
X203101950Y-93859523D01*
X203101950Y-93859523D02*
X203140045Y-93821428D01*
X203140045Y-93821428D02*
X203216236Y-93783332D01*
X203216236Y-93783332D02*
X203330521Y-93783332D01*
X203330521Y-93783332D02*
X203406712Y-93821428D01*
X203406712Y-93821428D02*
X203444807Y-93859523D01*
X203444807Y-93859523D02*
X203482902Y-93935713D01*
X203482902Y-93935713D02*
X203482902Y-94240475D01*
X203063855Y-93516666D02*
X203063855Y-92983332D01*
X203063855Y-92983332D02*
X203863855Y-93326190D01*
D12*
X219464285Y-51704819D02*
X219464285Y-50704819D01*
X219464285Y-50704819D02*
X219797618Y-51419104D01*
X219797618Y-51419104D02*
X220130951Y-50704819D01*
X220130951Y-50704819D02*
X220130951Y-51704819D01*
X220749999Y-51704819D02*
X220654761Y-51657200D01*
X220654761Y-51657200D02*
X220607142Y-51609580D01*
X220607142Y-51609580D02*
X220559523Y-51514342D01*
X220559523Y-51514342D02*
X220559523Y-51228628D01*
X220559523Y-51228628D02*
X220607142Y-51133390D01*
X220607142Y-51133390D02*
X220654761Y-51085771D01*
X220654761Y-51085771D02*
X220749999Y-51038152D01*
X220749999Y-51038152D02*
X220892856Y-51038152D01*
X220892856Y-51038152D02*
X220988094Y-51085771D01*
X220988094Y-51085771D02*
X221035713Y-51133390D01*
X221035713Y-51133390D02*
X221083332Y-51228628D01*
X221083332Y-51228628D02*
X221083332Y-51514342D01*
X221083332Y-51514342D02*
X221035713Y-51609580D01*
X221035713Y-51609580D02*
X220988094Y-51657200D01*
X220988094Y-51657200D02*
X220892856Y-51704819D01*
X220892856Y-51704819D02*
X220749999Y-51704819D01*
X221940475Y-51038152D02*
X221940475Y-51704819D01*
X221511904Y-51038152D02*
X221511904Y-51561961D01*
X221511904Y-51561961D02*
X221559523Y-51657200D01*
X221559523Y-51657200D02*
X221654761Y-51704819D01*
X221654761Y-51704819D02*
X221797618Y-51704819D01*
X221797618Y-51704819D02*
X221892856Y-51657200D01*
X221892856Y-51657200D02*
X221940475Y-51609580D01*
X222416666Y-51038152D02*
X222416666Y-51704819D01*
X222416666Y-51133390D02*
X222464285Y-51085771D01*
X222464285Y-51085771D02*
X222559523Y-51038152D01*
X222559523Y-51038152D02*
X222702380Y-51038152D01*
X222702380Y-51038152D02*
X222797618Y-51085771D01*
X222797618Y-51085771D02*
X222845237Y-51181009D01*
X222845237Y-51181009D02*
X222845237Y-51704819D01*
X223178571Y-51038152D02*
X223559523Y-51038152D01*
X223321428Y-50704819D02*
X223321428Y-51561961D01*
X223321428Y-51561961D02*
X223369047Y-51657200D01*
X223369047Y-51657200D02*
X223464285Y-51704819D01*
X223464285Y-51704819D02*
X223559523Y-51704819D01*
X223892857Y-51704819D02*
X223892857Y-51038152D01*
X223892857Y-50704819D02*
X223845238Y-50752438D01*
X223845238Y-50752438D02*
X223892857Y-50800057D01*
X223892857Y-50800057D02*
X223940476Y-50752438D01*
X223940476Y-50752438D02*
X223892857Y-50704819D01*
X223892857Y-50704819D02*
X223892857Y-50800057D01*
X224369047Y-51038152D02*
X224369047Y-51704819D01*
X224369047Y-51133390D02*
X224416666Y-51085771D01*
X224416666Y-51085771D02*
X224511904Y-51038152D01*
X224511904Y-51038152D02*
X224654761Y-51038152D01*
X224654761Y-51038152D02*
X224749999Y-51085771D01*
X224749999Y-51085771D02*
X224797618Y-51181009D01*
X224797618Y-51181009D02*
X224797618Y-51704819D01*
X225702380Y-51038152D02*
X225702380Y-51847676D01*
X225702380Y-51847676D02*
X225654761Y-51942914D01*
X225654761Y-51942914D02*
X225607142Y-51990533D01*
X225607142Y-51990533D02*
X225511904Y-52038152D01*
X225511904Y-52038152D02*
X225369047Y-52038152D01*
X225369047Y-52038152D02*
X225273809Y-51990533D01*
X225702380Y-51657200D02*
X225607142Y-51704819D01*
X225607142Y-51704819D02*
X225416666Y-51704819D01*
X225416666Y-51704819D02*
X225321428Y-51657200D01*
X225321428Y-51657200D02*
X225273809Y-51609580D01*
X225273809Y-51609580D02*
X225226190Y-51514342D01*
X225226190Y-51514342D02*
X225226190Y-51228628D01*
X225226190Y-51228628D02*
X225273809Y-51133390D01*
X225273809Y-51133390D02*
X225321428Y-51085771D01*
X225321428Y-51085771D02*
X225416666Y-51038152D01*
X225416666Y-51038152D02*
X225607142Y-51038152D01*
X225607142Y-51038152D02*
X225702380Y-51085771D01*
X226178571Y-51704819D02*
X226178571Y-50704819D01*
X226178571Y-51181009D02*
X226749999Y-51181009D01*
X226749999Y-51704819D02*
X226749999Y-50704819D01*
X227369047Y-51704819D02*
X227273809Y-51657200D01*
X227273809Y-51657200D02*
X227226190Y-51609580D01*
X227226190Y-51609580D02*
X227178571Y-51514342D01*
X227178571Y-51514342D02*
X227178571Y-51228628D01*
X227178571Y-51228628D02*
X227226190Y-51133390D01*
X227226190Y-51133390D02*
X227273809Y-51085771D01*
X227273809Y-51085771D02*
X227369047Y-51038152D01*
X227369047Y-51038152D02*
X227511904Y-51038152D01*
X227511904Y-51038152D02*
X227607142Y-51085771D01*
X227607142Y-51085771D02*
X227654761Y-51133390D01*
X227654761Y-51133390D02*
X227702380Y-51228628D01*
X227702380Y-51228628D02*
X227702380Y-51514342D01*
X227702380Y-51514342D02*
X227654761Y-51609580D01*
X227654761Y-51609580D02*
X227607142Y-51657200D01*
X227607142Y-51657200D02*
X227511904Y-51704819D01*
X227511904Y-51704819D02*
X227369047Y-51704819D01*
X228273809Y-51704819D02*
X228178571Y-51657200D01*
X228178571Y-51657200D02*
X228130952Y-51561961D01*
X228130952Y-51561961D02*
X228130952Y-50704819D01*
X229035714Y-51657200D02*
X228940476Y-51704819D01*
X228940476Y-51704819D02*
X228750000Y-51704819D01*
X228750000Y-51704819D02*
X228654762Y-51657200D01*
X228654762Y-51657200D02*
X228607143Y-51561961D01*
X228607143Y-51561961D02*
X228607143Y-51181009D01*
X228607143Y-51181009D02*
X228654762Y-51085771D01*
X228654762Y-51085771D02*
X228750000Y-51038152D01*
X228750000Y-51038152D02*
X228940476Y-51038152D01*
X228940476Y-51038152D02*
X229035714Y-51085771D01*
X229035714Y-51085771D02*
X229083333Y-51181009D01*
X229083333Y-51181009D02*
X229083333Y-51276247D01*
X229083333Y-51276247D02*
X228607143Y-51371485D01*
X223488095Y-48054819D02*
X223488095Y-47054819D01*
X223488095Y-47531009D02*
X224059523Y-47531009D01*
X224059523Y-48054819D02*
X224059523Y-47054819D01*
X224488095Y-47150057D02*
X224535714Y-47102438D01*
X224535714Y-47102438D02*
X224630952Y-47054819D01*
X224630952Y-47054819D02*
X224869047Y-47054819D01*
X224869047Y-47054819D02*
X224964285Y-47102438D01*
X224964285Y-47102438D02*
X225011904Y-47150057D01*
X225011904Y-47150057D02*
X225059523Y-47245295D01*
X225059523Y-47245295D02*
X225059523Y-47340533D01*
X225059523Y-47340533D02*
X225011904Y-47483390D01*
X225011904Y-47483390D02*
X224440476Y-48054819D01*
X224440476Y-48054819D02*
X225059523Y-48054819D01*
X219464285Y-117090605D02*
X219464285Y-116090605D01*
X219464285Y-116090605D02*
X219797618Y-116804890D01*
X219797618Y-116804890D02*
X220130951Y-116090605D01*
X220130951Y-116090605D02*
X220130951Y-117090605D01*
X220749999Y-117090605D02*
X220654761Y-117042986D01*
X220654761Y-117042986D02*
X220607142Y-116995366D01*
X220607142Y-116995366D02*
X220559523Y-116900128D01*
X220559523Y-116900128D02*
X220559523Y-116614414D01*
X220559523Y-116614414D02*
X220607142Y-116519176D01*
X220607142Y-116519176D02*
X220654761Y-116471557D01*
X220654761Y-116471557D02*
X220749999Y-116423938D01*
X220749999Y-116423938D02*
X220892856Y-116423938D01*
X220892856Y-116423938D02*
X220988094Y-116471557D01*
X220988094Y-116471557D02*
X221035713Y-116519176D01*
X221035713Y-116519176D02*
X221083332Y-116614414D01*
X221083332Y-116614414D02*
X221083332Y-116900128D01*
X221083332Y-116900128D02*
X221035713Y-116995366D01*
X221035713Y-116995366D02*
X220988094Y-117042986D01*
X220988094Y-117042986D02*
X220892856Y-117090605D01*
X220892856Y-117090605D02*
X220749999Y-117090605D01*
X221940475Y-116423938D02*
X221940475Y-117090605D01*
X221511904Y-116423938D02*
X221511904Y-116947747D01*
X221511904Y-116947747D02*
X221559523Y-117042986D01*
X221559523Y-117042986D02*
X221654761Y-117090605D01*
X221654761Y-117090605D02*
X221797618Y-117090605D01*
X221797618Y-117090605D02*
X221892856Y-117042986D01*
X221892856Y-117042986D02*
X221940475Y-116995366D01*
X222416666Y-116423938D02*
X222416666Y-117090605D01*
X222416666Y-116519176D02*
X222464285Y-116471557D01*
X222464285Y-116471557D02*
X222559523Y-116423938D01*
X222559523Y-116423938D02*
X222702380Y-116423938D01*
X222702380Y-116423938D02*
X222797618Y-116471557D01*
X222797618Y-116471557D02*
X222845237Y-116566795D01*
X222845237Y-116566795D02*
X222845237Y-117090605D01*
X223178571Y-116423938D02*
X223559523Y-116423938D01*
X223321428Y-116090605D02*
X223321428Y-116947747D01*
X223321428Y-116947747D02*
X223369047Y-117042986D01*
X223369047Y-117042986D02*
X223464285Y-117090605D01*
X223464285Y-117090605D02*
X223559523Y-117090605D01*
X223892857Y-117090605D02*
X223892857Y-116423938D01*
X223892857Y-116090605D02*
X223845238Y-116138224D01*
X223845238Y-116138224D02*
X223892857Y-116185843D01*
X223892857Y-116185843D02*
X223940476Y-116138224D01*
X223940476Y-116138224D02*
X223892857Y-116090605D01*
X223892857Y-116090605D02*
X223892857Y-116185843D01*
X224369047Y-116423938D02*
X224369047Y-117090605D01*
X224369047Y-116519176D02*
X224416666Y-116471557D01*
X224416666Y-116471557D02*
X224511904Y-116423938D01*
X224511904Y-116423938D02*
X224654761Y-116423938D01*
X224654761Y-116423938D02*
X224749999Y-116471557D01*
X224749999Y-116471557D02*
X224797618Y-116566795D01*
X224797618Y-116566795D02*
X224797618Y-117090605D01*
X225702380Y-116423938D02*
X225702380Y-117233462D01*
X225702380Y-117233462D02*
X225654761Y-117328700D01*
X225654761Y-117328700D02*
X225607142Y-117376319D01*
X225607142Y-117376319D02*
X225511904Y-117423938D01*
X225511904Y-117423938D02*
X225369047Y-117423938D01*
X225369047Y-117423938D02*
X225273809Y-117376319D01*
X225702380Y-117042986D02*
X225607142Y-117090605D01*
X225607142Y-117090605D02*
X225416666Y-117090605D01*
X225416666Y-117090605D02*
X225321428Y-117042986D01*
X225321428Y-117042986D02*
X225273809Y-116995366D01*
X225273809Y-116995366D02*
X225226190Y-116900128D01*
X225226190Y-116900128D02*
X225226190Y-116614414D01*
X225226190Y-116614414D02*
X225273809Y-116519176D01*
X225273809Y-116519176D02*
X225321428Y-116471557D01*
X225321428Y-116471557D02*
X225416666Y-116423938D01*
X225416666Y-116423938D02*
X225607142Y-116423938D01*
X225607142Y-116423938D02*
X225702380Y-116471557D01*
X226178571Y-117090605D02*
X226178571Y-116090605D01*
X226178571Y-116566795D02*
X226749999Y-116566795D01*
X226749999Y-117090605D02*
X226749999Y-116090605D01*
X227369047Y-117090605D02*
X227273809Y-117042986D01*
X227273809Y-117042986D02*
X227226190Y-116995366D01*
X227226190Y-116995366D02*
X227178571Y-116900128D01*
X227178571Y-116900128D02*
X227178571Y-116614414D01*
X227178571Y-116614414D02*
X227226190Y-116519176D01*
X227226190Y-116519176D02*
X227273809Y-116471557D01*
X227273809Y-116471557D02*
X227369047Y-116423938D01*
X227369047Y-116423938D02*
X227511904Y-116423938D01*
X227511904Y-116423938D02*
X227607142Y-116471557D01*
X227607142Y-116471557D02*
X227654761Y-116519176D01*
X227654761Y-116519176D02*
X227702380Y-116614414D01*
X227702380Y-116614414D02*
X227702380Y-116900128D01*
X227702380Y-116900128D02*
X227654761Y-116995366D01*
X227654761Y-116995366D02*
X227607142Y-117042986D01*
X227607142Y-117042986D02*
X227511904Y-117090605D01*
X227511904Y-117090605D02*
X227369047Y-117090605D01*
X228273809Y-117090605D02*
X228178571Y-117042986D01*
X228178571Y-117042986D02*
X228130952Y-116947747D01*
X228130952Y-116947747D02*
X228130952Y-116090605D01*
X229035714Y-117042986D02*
X228940476Y-117090605D01*
X228940476Y-117090605D02*
X228750000Y-117090605D01*
X228750000Y-117090605D02*
X228654762Y-117042986D01*
X228654762Y-117042986D02*
X228607143Y-116947747D01*
X228607143Y-116947747D02*
X228607143Y-116566795D01*
X228607143Y-116566795D02*
X228654762Y-116471557D01*
X228654762Y-116471557D02*
X228750000Y-116423938D01*
X228750000Y-116423938D02*
X228940476Y-116423938D01*
X228940476Y-116423938D02*
X229035714Y-116471557D01*
X229035714Y-116471557D02*
X229083333Y-116566795D01*
X229083333Y-116566795D02*
X229083333Y-116662033D01*
X229083333Y-116662033D02*
X228607143Y-116757271D01*
X223488095Y-105654819D02*
X223488095Y-104654819D01*
X223488095Y-105131009D02*
X224059523Y-105131009D01*
X224059523Y-105654819D02*
X224059523Y-104654819D01*
X224440476Y-104654819D02*
X225059523Y-104654819D01*
X225059523Y-104654819D02*
X224726190Y-105035771D01*
X224726190Y-105035771D02*
X224869047Y-105035771D01*
X224869047Y-105035771D02*
X224964285Y-105083390D01*
X224964285Y-105083390D02*
X225011904Y-105131009D01*
X225011904Y-105131009D02*
X225059523Y-105226247D01*
X225059523Y-105226247D02*
X225059523Y-105464342D01*
X225059523Y-105464342D02*
X225011904Y-105559580D01*
X225011904Y-105559580D02*
X224964285Y-105607200D01*
X224964285Y-105607200D02*
X224869047Y-105654819D01*
X224869047Y-105654819D02*
X224583333Y-105654819D01*
X224583333Y-105654819D02*
X224488095Y-105607200D01*
X224488095Y-105607200D02*
X224440476Y-105559580D01*
X129014285Y-139704819D02*
X129014285Y-138704819D01*
X129014285Y-138704819D02*
X129347618Y-139419104D01*
X129347618Y-139419104D02*
X129680951Y-138704819D01*
X129680951Y-138704819D02*
X129680951Y-139704819D01*
X130299999Y-139704819D02*
X130204761Y-139657200D01*
X130204761Y-139657200D02*
X130157142Y-139609580D01*
X130157142Y-139609580D02*
X130109523Y-139514342D01*
X130109523Y-139514342D02*
X130109523Y-139228628D01*
X130109523Y-139228628D02*
X130157142Y-139133390D01*
X130157142Y-139133390D02*
X130204761Y-139085771D01*
X130204761Y-139085771D02*
X130299999Y-139038152D01*
X130299999Y-139038152D02*
X130442856Y-139038152D01*
X130442856Y-139038152D02*
X130538094Y-139085771D01*
X130538094Y-139085771D02*
X130585713Y-139133390D01*
X130585713Y-139133390D02*
X130633332Y-139228628D01*
X130633332Y-139228628D02*
X130633332Y-139514342D01*
X130633332Y-139514342D02*
X130585713Y-139609580D01*
X130585713Y-139609580D02*
X130538094Y-139657200D01*
X130538094Y-139657200D02*
X130442856Y-139704819D01*
X130442856Y-139704819D02*
X130299999Y-139704819D01*
X131490475Y-139038152D02*
X131490475Y-139704819D01*
X131061904Y-139038152D02*
X131061904Y-139561961D01*
X131061904Y-139561961D02*
X131109523Y-139657200D01*
X131109523Y-139657200D02*
X131204761Y-139704819D01*
X131204761Y-139704819D02*
X131347618Y-139704819D01*
X131347618Y-139704819D02*
X131442856Y-139657200D01*
X131442856Y-139657200D02*
X131490475Y-139609580D01*
X131966666Y-139038152D02*
X131966666Y-139704819D01*
X131966666Y-139133390D02*
X132014285Y-139085771D01*
X132014285Y-139085771D02*
X132109523Y-139038152D01*
X132109523Y-139038152D02*
X132252380Y-139038152D01*
X132252380Y-139038152D02*
X132347618Y-139085771D01*
X132347618Y-139085771D02*
X132395237Y-139181009D01*
X132395237Y-139181009D02*
X132395237Y-139704819D01*
X132728571Y-139038152D02*
X133109523Y-139038152D01*
X132871428Y-138704819D02*
X132871428Y-139561961D01*
X132871428Y-139561961D02*
X132919047Y-139657200D01*
X132919047Y-139657200D02*
X133014285Y-139704819D01*
X133014285Y-139704819D02*
X133109523Y-139704819D01*
X133442857Y-139704819D02*
X133442857Y-139038152D01*
X133442857Y-138704819D02*
X133395238Y-138752438D01*
X133395238Y-138752438D02*
X133442857Y-138800057D01*
X133442857Y-138800057D02*
X133490476Y-138752438D01*
X133490476Y-138752438D02*
X133442857Y-138704819D01*
X133442857Y-138704819D02*
X133442857Y-138800057D01*
X133919047Y-139038152D02*
X133919047Y-139704819D01*
X133919047Y-139133390D02*
X133966666Y-139085771D01*
X133966666Y-139085771D02*
X134061904Y-139038152D01*
X134061904Y-139038152D02*
X134204761Y-139038152D01*
X134204761Y-139038152D02*
X134299999Y-139085771D01*
X134299999Y-139085771D02*
X134347618Y-139181009D01*
X134347618Y-139181009D02*
X134347618Y-139704819D01*
X135252380Y-139038152D02*
X135252380Y-139847676D01*
X135252380Y-139847676D02*
X135204761Y-139942914D01*
X135204761Y-139942914D02*
X135157142Y-139990533D01*
X135157142Y-139990533D02*
X135061904Y-140038152D01*
X135061904Y-140038152D02*
X134919047Y-140038152D01*
X134919047Y-140038152D02*
X134823809Y-139990533D01*
X135252380Y-139657200D02*
X135157142Y-139704819D01*
X135157142Y-139704819D02*
X134966666Y-139704819D01*
X134966666Y-139704819D02*
X134871428Y-139657200D01*
X134871428Y-139657200D02*
X134823809Y-139609580D01*
X134823809Y-139609580D02*
X134776190Y-139514342D01*
X134776190Y-139514342D02*
X134776190Y-139228628D01*
X134776190Y-139228628D02*
X134823809Y-139133390D01*
X134823809Y-139133390D02*
X134871428Y-139085771D01*
X134871428Y-139085771D02*
X134966666Y-139038152D01*
X134966666Y-139038152D02*
X135157142Y-139038152D01*
X135157142Y-139038152D02*
X135252380Y-139085771D01*
X135728571Y-139704819D02*
X135728571Y-138704819D01*
X135728571Y-139181009D02*
X136299999Y-139181009D01*
X136299999Y-139704819D02*
X136299999Y-138704819D01*
X136919047Y-139704819D02*
X136823809Y-139657200D01*
X136823809Y-139657200D02*
X136776190Y-139609580D01*
X136776190Y-139609580D02*
X136728571Y-139514342D01*
X136728571Y-139514342D02*
X136728571Y-139228628D01*
X136728571Y-139228628D02*
X136776190Y-139133390D01*
X136776190Y-139133390D02*
X136823809Y-139085771D01*
X136823809Y-139085771D02*
X136919047Y-139038152D01*
X136919047Y-139038152D02*
X137061904Y-139038152D01*
X137061904Y-139038152D02*
X137157142Y-139085771D01*
X137157142Y-139085771D02*
X137204761Y-139133390D01*
X137204761Y-139133390D02*
X137252380Y-139228628D01*
X137252380Y-139228628D02*
X137252380Y-139514342D01*
X137252380Y-139514342D02*
X137204761Y-139609580D01*
X137204761Y-139609580D02*
X137157142Y-139657200D01*
X137157142Y-139657200D02*
X137061904Y-139704819D01*
X137061904Y-139704819D02*
X136919047Y-139704819D01*
X137823809Y-139704819D02*
X137728571Y-139657200D01*
X137728571Y-139657200D02*
X137680952Y-139561961D01*
X137680952Y-139561961D02*
X137680952Y-138704819D01*
X138585714Y-139657200D02*
X138490476Y-139704819D01*
X138490476Y-139704819D02*
X138300000Y-139704819D01*
X138300000Y-139704819D02*
X138204762Y-139657200D01*
X138204762Y-139657200D02*
X138157143Y-139561961D01*
X138157143Y-139561961D02*
X138157143Y-139181009D01*
X138157143Y-139181009D02*
X138204762Y-139085771D01*
X138204762Y-139085771D02*
X138300000Y-139038152D01*
X138300000Y-139038152D02*
X138490476Y-139038152D01*
X138490476Y-139038152D02*
X138585714Y-139085771D01*
X138585714Y-139085771D02*
X138633333Y-139181009D01*
X138633333Y-139181009D02*
X138633333Y-139276247D01*
X138633333Y-139276247D02*
X138157143Y-139371485D01*
X132085714Y-136254819D02*
X132085714Y-135254819D01*
X132085714Y-135731009D02*
X132657142Y-135731009D01*
X132657142Y-136254819D02*
X132657142Y-135254819D01*
X133085714Y-135350057D02*
X133133333Y-135302438D01*
X133133333Y-135302438D02*
X133228571Y-135254819D01*
X133228571Y-135254819D02*
X133466666Y-135254819D01*
X133466666Y-135254819D02*
X133561904Y-135302438D01*
X133561904Y-135302438D02*
X133609523Y-135350057D01*
X133609523Y-135350057D02*
X133657142Y-135445295D01*
X133657142Y-135445295D02*
X133657142Y-135540533D01*
X133657142Y-135540533D02*
X133609523Y-135683390D01*
X133609523Y-135683390D02*
X133038095Y-136254819D01*
X133038095Y-136254819D02*
X133657142Y-136254819D01*
X134276190Y-135254819D02*
X134371428Y-135254819D01*
X134371428Y-135254819D02*
X134466666Y-135302438D01*
X134466666Y-135302438D02*
X134514285Y-135350057D01*
X134514285Y-135350057D02*
X134561904Y-135445295D01*
X134561904Y-135445295D02*
X134609523Y-135635771D01*
X134609523Y-135635771D02*
X134609523Y-135873866D01*
X134609523Y-135873866D02*
X134561904Y-136064342D01*
X134561904Y-136064342D02*
X134514285Y-136159580D01*
X134514285Y-136159580D02*
X134466666Y-136207200D01*
X134466666Y-136207200D02*
X134371428Y-136254819D01*
X134371428Y-136254819D02*
X134276190Y-136254819D01*
X134276190Y-136254819D02*
X134180952Y-136207200D01*
X134180952Y-136207200D02*
X134133333Y-136159580D01*
X134133333Y-136159580D02*
X134085714Y-136064342D01*
X134085714Y-136064342D02*
X134038095Y-135873866D01*
X134038095Y-135873866D02*
X134038095Y-135635771D01*
X134038095Y-135635771D02*
X134085714Y-135445295D01*
X134085714Y-135445295D02*
X134133333Y-135350057D01*
X134133333Y-135350057D02*
X134180952Y-135302438D01*
X134180952Y-135302438D02*
X134276190Y-135254819D01*
X135466666Y-135588152D02*
X135466666Y-136254819D01*
X135228571Y-135207200D02*
X134990476Y-135921485D01*
X134990476Y-135921485D02*
X135609523Y-135921485D01*
D10*
X178038855Y-55133332D02*
X177657902Y-55399999D01*
X178038855Y-55590475D02*
X177238855Y-55590475D01*
X177238855Y-55590475D02*
X177238855Y-55285713D01*
X177238855Y-55285713D02*
X177276950Y-55209523D01*
X177276950Y-55209523D02*
X177315045Y-55171428D01*
X177315045Y-55171428D02*
X177391236Y-55133332D01*
X177391236Y-55133332D02*
X177505521Y-55133332D01*
X177505521Y-55133332D02*
X177581712Y-55171428D01*
X177581712Y-55171428D02*
X177619807Y-55209523D01*
X177619807Y-55209523D02*
X177657902Y-55285713D01*
X177657902Y-55285713D02*
X177657902Y-55590475D01*
X177315045Y-54828571D02*
X177276950Y-54790475D01*
X177276950Y-54790475D02*
X177238855Y-54714285D01*
X177238855Y-54714285D02*
X177238855Y-54523809D01*
X177238855Y-54523809D02*
X177276950Y-54447618D01*
X177276950Y-54447618D02*
X177315045Y-54409523D01*
X177315045Y-54409523D02*
X177391236Y-54371428D01*
X177391236Y-54371428D02*
X177467426Y-54371428D01*
X177467426Y-54371428D02*
X177581712Y-54409523D01*
X177581712Y-54409523D02*
X178038855Y-54866666D01*
X178038855Y-54866666D02*
X178038855Y-54371428D01*
D11*
X181858437Y-120540071D02*
X181824151Y-120608642D01*
X181824151Y-120608642D02*
X181755580Y-120677214D01*
X181755580Y-120677214D02*
X181652722Y-120780071D01*
X181652722Y-120780071D02*
X181618437Y-120848642D01*
X181618437Y-120848642D02*
X181618437Y-120917214D01*
X181789865Y-120882928D02*
X181755580Y-120951500D01*
X181755580Y-120951500D02*
X181687008Y-121020071D01*
X181687008Y-121020071D02*
X181549865Y-121054357D01*
X181549865Y-121054357D02*
X181309865Y-121054357D01*
X181309865Y-121054357D02*
X181172722Y-121020071D01*
X181172722Y-121020071D02*
X181104151Y-120951500D01*
X181104151Y-120951500D02*
X181069865Y-120882928D01*
X181069865Y-120882928D02*
X181069865Y-120745785D01*
X181069865Y-120745785D02*
X181104151Y-120677214D01*
X181104151Y-120677214D02*
X181172722Y-120608642D01*
X181172722Y-120608642D02*
X181309865Y-120574357D01*
X181309865Y-120574357D02*
X181549865Y-120574357D01*
X181549865Y-120574357D02*
X181687008Y-120608642D01*
X181687008Y-120608642D02*
X181755580Y-120677214D01*
X181755580Y-120677214D02*
X181789865Y-120745785D01*
X181789865Y-120745785D02*
X181789865Y-120882928D01*
X181138437Y-120300071D02*
X181104151Y-120265785D01*
X181104151Y-120265785D02*
X181069865Y-120197214D01*
X181069865Y-120197214D02*
X181069865Y-120025785D01*
X181069865Y-120025785D02*
X181104151Y-119957214D01*
X181104151Y-119957214D02*
X181138437Y-119922928D01*
X181138437Y-119922928D02*
X181207008Y-119888642D01*
X181207008Y-119888642D02*
X181275580Y-119888642D01*
X181275580Y-119888642D02*
X181378437Y-119922928D01*
X181378437Y-119922928D02*
X181789865Y-120334356D01*
X181789865Y-120334356D02*
X181789865Y-119888642D01*
X181069865Y-119442928D02*
X181069865Y-119374357D01*
X181069865Y-119374357D02*
X181104151Y-119305785D01*
X181104151Y-119305785D02*
X181138437Y-119271500D01*
X181138437Y-119271500D02*
X181207008Y-119237214D01*
X181207008Y-119237214D02*
X181344151Y-119202928D01*
X181344151Y-119202928D02*
X181515580Y-119202928D01*
X181515580Y-119202928D02*
X181652722Y-119237214D01*
X181652722Y-119237214D02*
X181721294Y-119271500D01*
X181721294Y-119271500D02*
X181755580Y-119305785D01*
X181755580Y-119305785D02*
X181789865Y-119374357D01*
X181789865Y-119374357D02*
X181789865Y-119442928D01*
X181789865Y-119442928D02*
X181755580Y-119511500D01*
X181755580Y-119511500D02*
X181721294Y-119545785D01*
X181721294Y-119545785D02*
X181652722Y-119580071D01*
X181652722Y-119580071D02*
X181515580Y-119614357D01*
X181515580Y-119614357D02*
X181344151Y-119614357D01*
X181344151Y-119614357D02*
X181207008Y-119580071D01*
X181207008Y-119580071D02*
X181138437Y-119545785D01*
X181138437Y-119545785D02*
X181104151Y-119511500D01*
X181104151Y-119511500D02*
X181069865Y-119442928D01*
X181069865Y-118962928D02*
X181069865Y-118517214D01*
X181069865Y-118517214D02*
X181344151Y-118757214D01*
X181344151Y-118757214D02*
X181344151Y-118654357D01*
X181344151Y-118654357D02*
X181378437Y-118585786D01*
X181378437Y-118585786D02*
X181412722Y-118551500D01*
X181412722Y-118551500D02*
X181481294Y-118517214D01*
X181481294Y-118517214D02*
X181652722Y-118517214D01*
X181652722Y-118517214D02*
X181721294Y-118551500D01*
X181721294Y-118551500D02*
X181755580Y-118585786D01*
X181755580Y-118585786D02*
X181789865Y-118654357D01*
X181789865Y-118654357D02*
X181789865Y-118860071D01*
X181789865Y-118860071D02*
X181755580Y-118928643D01*
X181755580Y-118928643D02*
X181721294Y-118962928D01*
X186295937Y-124190071D02*
X186261651Y-124258642D01*
X186261651Y-124258642D02*
X186193080Y-124327214D01*
X186193080Y-124327214D02*
X186090222Y-124430071D01*
X186090222Y-124430071D02*
X186055937Y-124498642D01*
X186055937Y-124498642D02*
X186055937Y-124567214D01*
X186227365Y-124532928D02*
X186193080Y-124601500D01*
X186193080Y-124601500D02*
X186124508Y-124670071D01*
X186124508Y-124670071D02*
X185987365Y-124704357D01*
X185987365Y-124704357D02*
X185747365Y-124704357D01*
X185747365Y-124704357D02*
X185610222Y-124670071D01*
X185610222Y-124670071D02*
X185541651Y-124601500D01*
X185541651Y-124601500D02*
X185507365Y-124532928D01*
X185507365Y-124532928D02*
X185507365Y-124395785D01*
X185507365Y-124395785D02*
X185541651Y-124327214D01*
X185541651Y-124327214D02*
X185610222Y-124258642D01*
X185610222Y-124258642D02*
X185747365Y-124224357D01*
X185747365Y-124224357D02*
X185987365Y-124224357D01*
X185987365Y-124224357D02*
X186124508Y-124258642D01*
X186124508Y-124258642D02*
X186193080Y-124327214D01*
X186193080Y-124327214D02*
X186227365Y-124395785D01*
X186227365Y-124395785D02*
X186227365Y-124532928D01*
X185575937Y-123950071D02*
X185541651Y-123915785D01*
X185541651Y-123915785D02*
X185507365Y-123847214D01*
X185507365Y-123847214D02*
X185507365Y-123675785D01*
X185507365Y-123675785D02*
X185541651Y-123607214D01*
X185541651Y-123607214D02*
X185575937Y-123572928D01*
X185575937Y-123572928D02*
X185644508Y-123538642D01*
X185644508Y-123538642D02*
X185713080Y-123538642D01*
X185713080Y-123538642D02*
X185815937Y-123572928D01*
X185815937Y-123572928D02*
X186227365Y-123984356D01*
X186227365Y-123984356D02*
X186227365Y-123538642D01*
X185507365Y-123092928D02*
X185507365Y-123024357D01*
X185507365Y-123024357D02*
X185541651Y-122955785D01*
X185541651Y-122955785D02*
X185575937Y-122921500D01*
X185575937Y-122921500D02*
X185644508Y-122887214D01*
X185644508Y-122887214D02*
X185781651Y-122852928D01*
X185781651Y-122852928D02*
X185953080Y-122852928D01*
X185953080Y-122852928D02*
X186090222Y-122887214D01*
X186090222Y-122887214D02*
X186158794Y-122921500D01*
X186158794Y-122921500D02*
X186193080Y-122955785D01*
X186193080Y-122955785D02*
X186227365Y-123024357D01*
X186227365Y-123024357D02*
X186227365Y-123092928D01*
X186227365Y-123092928D02*
X186193080Y-123161500D01*
X186193080Y-123161500D02*
X186158794Y-123195785D01*
X186158794Y-123195785D02*
X186090222Y-123230071D01*
X186090222Y-123230071D02*
X185953080Y-123264357D01*
X185953080Y-123264357D02*
X185781651Y-123264357D01*
X185781651Y-123264357D02*
X185644508Y-123230071D01*
X185644508Y-123230071D02*
X185575937Y-123195785D01*
X185575937Y-123195785D02*
X185541651Y-123161500D01*
X185541651Y-123161500D02*
X185507365Y-123092928D01*
X186227365Y-122167214D02*
X186227365Y-122578643D01*
X186227365Y-122372928D02*
X185507365Y-122372928D01*
X185507365Y-122372928D02*
X185610222Y-122441500D01*
X185610222Y-122441500D02*
X185678794Y-122510071D01*
X185678794Y-122510071D02*
X185713080Y-122578643D01*
D12*
X124714285Y-51704819D02*
X124714285Y-50704819D01*
X124714285Y-50704819D02*
X125047618Y-51419104D01*
X125047618Y-51419104D02*
X125380951Y-50704819D01*
X125380951Y-50704819D02*
X125380951Y-51704819D01*
X125999999Y-51704819D02*
X125904761Y-51657200D01*
X125904761Y-51657200D02*
X125857142Y-51609580D01*
X125857142Y-51609580D02*
X125809523Y-51514342D01*
X125809523Y-51514342D02*
X125809523Y-51228628D01*
X125809523Y-51228628D02*
X125857142Y-51133390D01*
X125857142Y-51133390D02*
X125904761Y-51085771D01*
X125904761Y-51085771D02*
X125999999Y-51038152D01*
X125999999Y-51038152D02*
X126142856Y-51038152D01*
X126142856Y-51038152D02*
X126238094Y-51085771D01*
X126238094Y-51085771D02*
X126285713Y-51133390D01*
X126285713Y-51133390D02*
X126333332Y-51228628D01*
X126333332Y-51228628D02*
X126333332Y-51514342D01*
X126333332Y-51514342D02*
X126285713Y-51609580D01*
X126285713Y-51609580D02*
X126238094Y-51657200D01*
X126238094Y-51657200D02*
X126142856Y-51704819D01*
X126142856Y-51704819D02*
X125999999Y-51704819D01*
X127190475Y-51038152D02*
X127190475Y-51704819D01*
X126761904Y-51038152D02*
X126761904Y-51561961D01*
X126761904Y-51561961D02*
X126809523Y-51657200D01*
X126809523Y-51657200D02*
X126904761Y-51704819D01*
X126904761Y-51704819D02*
X127047618Y-51704819D01*
X127047618Y-51704819D02*
X127142856Y-51657200D01*
X127142856Y-51657200D02*
X127190475Y-51609580D01*
X127666666Y-51038152D02*
X127666666Y-51704819D01*
X127666666Y-51133390D02*
X127714285Y-51085771D01*
X127714285Y-51085771D02*
X127809523Y-51038152D01*
X127809523Y-51038152D02*
X127952380Y-51038152D01*
X127952380Y-51038152D02*
X128047618Y-51085771D01*
X128047618Y-51085771D02*
X128095237Y-51181009D01*
X128095237Y-51181009D02*
X128095237Y-51704819D01*
X128428571Y-51038152D02*
X128809523Y-51038152D01*
X128571428Y-50704819D02*
X128571428Y-51561961D01*
X128571428Y-51561961D02*
X128619047Y-51657200D01*
X128619047Y-51657200D02*
X128714285Y-51704819D01*
X128714285Y-51704819D02*
X128809523Y-51704819D01*
X129142857Y-51704819D02*
X129142857Y-51038152D01*
X129142857Y-50704819D02*
X129095238Y-50752438D01*
X129095238Y-50752438D02*
X129142857Y-50800057D01*
X129142857Y-50800057D02*
X129190476Y-50752438D01*
X129190476Y-50752438D02*
X129142857Y-50704819D01*
X129142857Y-50704819D02*
X129142857Y-50800057D01*
X129619047Y-51038152D02*
X129619047Y-51704819D01*
X129619047Y-51133390D02*
X129666666Y-51085771D01*
X129666666Y-51085771D02*
X129761904Y-51038152D01*
X129761904Y-51038152D02*
X129904761Y-51038152D01*
X129904761Y-51038152D02*
X129999999Y-51085771D01*
X129999999Y-51085771D02*
X130047618Y-51181009D01*
X130047618Y-51181009D02*
X130047618Y-51704819D01*
X130952380Y-51038152D02*
X130952380Y-51847676D01*
X130952380Y-51847676D02*
X130904761Y-51942914D01*
X130904761Y-51942914D02*
X130857142Y-51990533D01*
X130857142Y-51990533D02*
X130761904Y-52038152D01*
X130761904Y-52038152D02*
X130619047Y-52038152D01*
X130619047Y-52038152D02*
X130523809Y-51990533D01*
X130952380Y-51657200D02*
X130857142Y-51704819D01*
X130857142Y-51704819D02*
X130666666Y-51704819D01*
X130666666Y-51704819D02*
X130571428Y-51657200D01*
X130571428Y-51657200D02*
X130523809Y-51609580D01*
X130523809Y-51609580D02*
X130476190Y-51514342D01*
X130476190Y-51514342D02*
X130476190Y-51228628D01*
X130476190Y-51228628D02*
X130523809Y-51133390D01*
X130523809Y-51133390D02*
X130571428Y-51085771D01*
X130571428Y-51085771D02*
X130666666Y-51038152D01*
X130666666Y-51038152D02*
X130857142Y-51038152D01*
X130857142Y-51038152D02*
X130952380Y-51085771D01*
X131428571Y-51704819D02*
X131428571Y-50704819D01*
X131428571Y-51181009D02*
X131999999Y-51181009D01*
X131999999Y-51704819D02*
X131999999Y-50704819D01*
X132619047Y-51704819D02*
X132523809Y-51657200D01*
X132523809Y-51657200D02*
X132476190Y-51609580D01*
X132476190Y-51609580D02*
X132428571Y-51514342D01*
X132428571Y-51514342D02*
X132428571Y-51228628D01*
X132428571Y-51228628D02*
X132476190Y-51133390D01*
X132476190Y-51133390D02*
X132523809Y-51085771D01*
X132523809Y-51085771D02*
X132619047Y-51038152D01*
X132619047Y-51038152D02*
X132761904Y-51038152D01*
X132761904Y-51038152D02*
X132857142Y-51085771D01*
X132857142Y-51085771D02*
X132904761Y-51133390D01*
X132904761Y-51133390D02*
X132952380Y-51228628D01*
X132952380Y-51228628D02*
X132952380Y-51514342D01*
X132952380Y-51514342D02*
X132904761Y-51609580D01*
X132904761Y-51609580D02*
X132857142Y-51657200D01*
X132857142Y-51657200D02*
X132761904Y-51704819D01*
X132761904Y-51704819D02*
X132619047Y-51704819D01*
X133523809Y-51704819D02*
X133428571Y-51657200D01*
X133428571Y-51657200D02*
X133380952Y-51561961D01*
X133380952Y-51561961D02*
X133380952Y-50704819D01*
X134285714Y-51657200D02*
X134190476Y-51704819D01*
X134190476Y-51704819D02*
X134000000Y-51704819D01*
X134000000Y-51704819D02*
X133904762Y-51657200D01*
X133904762Y-51657200D02*
X133857143Y-51561961D01*
X133857143Y-51561961D02*
X133857143Y-51181009D01*
X133857143Y-51181009D02*
X133904762Y-51085771D01*
X133904762Y-51085771D02*
X134000000Y-51038152D01*
X134000000Y-51038152D02*
X134190476Y-51038152D01*
X134190476Y-51038152D02*
X134285714Y-51085771D01*
X134285714Y-51085771D02*
X134333333Y-51181009D01*
X134333333Y-51181009D02*
X134333333Y-51276247D01*
X134333333Y-51276247D02*
X133857143Y-51371485D01*
X128738095Y-48054819D02*
X128738095Y-47054819D01*
X128738095Y-47531009D02*
X129309523Y-47531009D01*
X129309523Y-48054819D02*
X129309523Y-47054819D01*
X130309523Y-48054819D02*
X129738095Y-48054819D01*
X130023809Y-48054819D02*
X130023809Y-47054819D01*
X130023809Y-47054819D02*
X129928571Y-47197676D01*
X129928571Y-47197676D02*
X129833333Y-47292914D01*
X129833333Y-47292914D02*
X129738095Y-47340533D01*
D10*
X204863855Y-53283332D02*
X204482902Y-53549999D01*
X204863855Y-53740475D02*
X204063855Y-53740475D01*
X204063855Y-53740475D02*
X204063855Y-53435713D01*
X204063855Y-53435713D02*
X204101950Y-53359523D01*
X204101950Y-53359523D02*
X204140045Y-53321428D01*
X204140045Y-53321428D02*
X204216236Y-53283332D01*
X204216236Y-53283332D02*
X204330521Y-53283332D01*
X204330521Y-53283332D02*
X204406712Y-53321428D01*
X204406712Y-53321428D02*
X204444807Y-53359523D01*
X204444807Y-53359523D02*
X204482902Y-53435713D01*
X204482902Y-53435713D02*
X204482902Y-53740475D01*
X204330521Y-52597618D02*
X204863855Y-52597618D01*
X204025760Y-52788094D02*
X204597188Y-52978571D01*
X204597188Y-52978571D02*
X204597188Y-52483332D01*
D12*
X144654819Y-59108333D02*
X145369104Y-59108333D01*
X145369104Y-59108333D02*
X145511961Y-59155952D01*
X145511961Y-59155952D02*
X145607200Y-59251190D01*
X145607200Y-59251190D02*
X145654819Y-59394047D01*
X145654819Y-59394047D02*
X145654819Y-59489285D01*
X144654819Y-58727380D02*
X144654819Y-58108333D01*
X144654819Y-58108333D02*
X145035771Y-58441666D01*
X145035771Y-58441666D02*
X145035771Y-58298809D01*
X145035771Y-58298809D02*
X145083390Y-58203571D01*
X145083390Y-58203571D02*
X145131009Y-58155952D01*
X145131009Y-58155952D02*
X145226247Y-58108333D01*
X145226247Y-58108333D02*
X145464342Y-58108333D01*
X145464342Y-58108333D02*
X145559580Y-58155952D01*
X145559580Y-58155952D02*
X145607200Y-58203571D01*
X145607200Y-58203571D02*
X145654819Y-58298809D01*
X145654819Y-58298809D02*
X145654819Y-58584523D01*
X145654819Y-58584523D02*
X145607200Y-58679761D01*
X145607200Y-58679761D02*
X145559580Y-58727380D01*
%TO.C,R205*%
D13*
X161650000Y-114800000D02*
X164850000Y-114800000D01*
X164850000Y-116400000D01*
X161650000Y-116400000D01*
X161650000Y-114800000D01*
%TO.C,R204*%
X213650000Y-114800000D02*
X216850000Y-114800000D01*
X216850000Y-116400000D01*
X213650000Y-116400000D01*
X213650000Y-114800000D01*
%TO.C,D201*%
X223887500Y-116000000D02*
X223887500Y-114800000D01*
X223887500Y-114800000D02*
X220687500Y-114800000D01*
X223487500Y-116400000D02*
X223887500Y-116000000D01*
X220687500Y-116400000D02*
X223487500Y-116400000D01*
X220687500Y-114800000D02*
X220687500Y-116400000D01*
%TO.C,R6*%
X216650000Y-57400000D02*
X213450000Y-57400000D01*
X213450000Y-55800000D01*
X216650000Y-55800000D01*
X216650000Y-57400000D01*
%TO.C,Q2*%
X188712500Y-56550000D02*
X187412500Y-56550000D01*
X187412500Y-53975000D01*
X187737500Y-53650000D01*
X188712500Y-53650000D01*
X188712500Y-56550000D01*
%TO.C,R3*%
X181375000Y-56700000D02*
X182975000Y-56700000D01*
X182975000Y-53500000D01*
X181375000Y-53500000D01*
X181375000Y-56700000D01*
%TO.C,J2*%
X132150000Y-67225000D02*
X133150000Y-66600000D01*
X133150000Y-66600000D02*
X132150000Y-65975000D01*
X132150000Y-69050000D02*
X137900000Y-69050000D01*
X137900000Y-46650000D01*
X132150000Y-46650000D01*
X132150000Y-69050000D01*
%TO.C,SW201*%
X169550000Y-120335786D02*
X175550000Y-120335786D01*
X169550000Y-126335786D02*
X169550000Y-120335786D01*
X175550000Y-120335786D02*
X175550000Y-123335786D01*
X175550000Y-123335786D02*
X175550000Y-126335786D01*
X175550000Y-126335786D02*
X169550000Y-126335786D01*
X174565564Y-123335786D02*
G75*
G02*
X170534436Y-123335786I-2015564J0D01*
G01*
X170534436Y-123335786D02*
G75*
G02*
X174565564Y-123335786I2015564J0D01*
G01*
%TO.C,SW1*%
X160250000Y-74350000D02*
X166250000Y-74350000D01*
X160250000Y-77350000D02*
X160250000Y-74350000D01*
X160250000Y-80350000D02*
X160250000Y-77350000D01*
X166250000Y-74350000D02*
X166250000Y-80350000D01*
X166250000Y-80350000D02*
X160250000Y-80350000D01*
X165265564Y-77350000D02*
G75*
G02*
X161234436Y-77350000I-2015564J0D01*
G01*
X161234436Y-77350000D02*
G75*
G02*
X165265564Y-77350000I2015564J0D01*
G01*
%TO.C,R11*%
X159350000Y-66300000D02*
X162550000Y-66300000D01*
X162550000Y-67900000D01*
X159350000Y-67900000D01*
X159350000Y-66300000D01*
%TO.C,J6*%
X147650000Y-67225000D02*
X148650000Y-66600000D01*
X148650000Y-66600000D02*
X147650000Y-65975000D01*
X147650000Y-69050000D02*
X153400000Y-69050000D01*
X153400000Y-46650000D01*
X147650000Y-46650000D01*
X147650000Y-69050000D01*
%TO.C,C1*%
X192200000Y-56312500D02*
X193800000Y-56312500D01*
X193800000Y-53112500D01*
X192200000Y-53112500D01*
X192200000Y-56312500D01*
%TO.C,R203*%
X188550000Y-132185786D02*
X185350000Y-132185786D01*
X185350000Y-130585786D01*
X188550000Y-130585786D01*
X188550000Y-132185786D01*
%TO.C,J201*%
X224750000Y-122085786D02*
X225750000Y-122710786D01*
X225750000Y-121460786D02*
X224750000Y-122085786D01*
X225750000Y-119635786D02*
X220000000Y-119635786D01*
X220000000Y-127035786D01*
X225750000Y-127035786D01*
X225750000Y-119635786D01*
%TO.C,J202*%
X164000000Y-133335786D02*
X163375000Y-134335786D01*
X164625000Y-134335786D02*
X164000000Y-133335786D01*
X166450000Y-134335786D02*
X159050000Y-134335786D01*
X159050000Y-128585786D01*
X166450000Y-128585786D01*
X166450000Y-134335786D01*
%TO.C,R9*%
X192200000Y-62750000D02*
X193800000Y-62750000D01*
X193800000Y-59550000D01*
X192200000Y-59550000D01*
X192200000Y-62750000D01*
%TO.C,Q1*%
X188837500Y-50550000D02*
X187537500Y-50550000D01*
X187537500Y-47975000D01*
X187862500Y-47650000D01*
X188837500Y-47650000D01*
X188837500Y-50550000D01*
%TO.C,Q202*%
X181912500Y-128635786D02*
X180612500Y-128635786D01*
X180612500Y-126060786D01*
X180937500Y-125735786D01*
X181912500Y-125735786D01*
X181912500Y-128635786D01*
%TO.C,R1*%
X192200000Y-50600000D02*
X193800000Y-50600000D01*
X193800000Y-47400000D01*
X192200000Y-47400000D01*
X192200000Y-50600000D01*
%TO.C,D1*%
X181375000Y-47450000D02*
X181375000Y-50250000D01*
X181375000Y-50250000D02*
X181775000Y-50650000D01*
X181775000Y-50650000D02*
X182975000Y-50650000D01*
X182975000Y-47450000D02*
X181375000Y-47450000D01*
X182975000Y-50650000D02*
X182975000Y-47450000D01*
%TO.C,J1*%
X132075000Y-81725000D02*
X133075000Y-81100000D01*
X133075000Y-81100000D02*
X132075000Y-80475000D01*
X132075000Y-83550000D02*
X137825000Y-83550000D01*
X137825000Y-71150000D01*
X132075000Y-71150000D01*
X132075000Y-83550000D01*
D14*
%TO.C,U3*%
X173500000Y-73260000D02*
X173500000Y-78630000D01*
X173500000Y-73260000D02*
X224450000Y-73260000D01*
X173500000Y-78630000D02*
X173500000Y-96320000D01*
X173500000Y-78630000D02*
X179990000Y-78630000D01*
X173500000Y-96320000D02*
X173500000Y-101770000D01*
X179990000Y-78630000D02*
X179990000Y-96320000D01*
X179990000Y-78630000D02*
X192620000Y-78630000D01*
X179990000Y-96320000D02*
X173500000Y-96320000D01*
X192620000Y-78630000D02*
X192620000Y-96320000D01*
X192620000Y-96320000D02*
X179990000Y-96320000D01*
X220560000Y-84329000D02*
X224450000Y-84329000D01*
X220560000Y-91040000D02*
X220560000Y-84329000D01*
X224450000Y-73260000D02*
X224450000Y-84329000D01*
X224450000Y-84329000D02*
X224450000Y-91040000D01*
X224450000Y-91040000D02*
X220560000Y-91040000D01*
X224450000Y-91040000D02*
X224450000Y-101770000D01*
X224450000Y-101770000D02*
X173500000Y-101770000D01*
D15*
X214590000Y-72690000D02*
G75*
G02*
X214390000Y-72690000I-100000J0D01*
G01*
X214390000Y-72690000D02*
G75*
G02*
X214590000Y-72690000I100000J0D01*
G01*
D13*
%TO.C,D2*%
X176875000Y-47462500D02*
X176875000Y-50262500D01*
X176875000Y-50262500D02*
X177275000Y-50662500D01*
X177275000Y-50662500D02*
X178475000Y-50662500D01*
X178475000Y-47462500D02*
X176875000Y-47462500D01*
X178475000Y-50662500D02*
X178475000Y-47462500D01*
%TO.C,U201*%
X127360000Y-114805786D02*
X155300000Y-114805786D01*
X127360000Y-132585786D02*
X127360000Y-114805786D01*
X155300000Y-114805786D02*
X155300000Y-132585786D01*
X155300000Y-132585786D02*
X127360000Y-132585786D01*
%TO.C,R10*%
X159350000Y-55800000D02*
X162550000Y-55800000D01*
X162550000Y-57400000D01*
X159350000Y-57400000D01*
X159350000Y-55800000D01*
%TO.C,J4*%
X134230000Y-86630000D02*
X136770000Y-86630000D01*
X134230000Y-101235000D02*
X134230000Y-86630000D01*
X134865000Y-101870000D02*
X134230000Y-101235000D01*
X136770000Y-86630000D02*
X136770000Y-101870000D01*
X136770000Y-101870000D02*
X134865000Y-101870000D01*
%TO.C,J5*%
X179375000Y-64750000D02*
X180000000Y-65750000D01*
X180000000Y-65750000D02*
X180625000Y-64750000D01*
X177550000Y-64750000D02*
X184950000Y-64750000D01*
X184950000Y-70500000D01*
X177550000Y-70500000D01*
X177550000Y-64750000D01*
%TO.C,R8*%
X213900000Y-46800000D02*
X217100000Y-46800000D01*
X217100000Y-48400000D01*
X213900000Y-48400000D01*
X213900000Y-46800000D01*
%TO.C,R5*%
X205300000Y-57550000D02*
X203700000Y-57550000D01*
X203700000Y-60750000D01*
X205300000Y-60750000D01*
X205300000Y-57550000D01*
%TO.C,C201*%
X185237500Y-114585786D02*
X188437500Y-114585786D01*
X188437500Y-116185786D01*
X185237500Y-116185786D01*
X185237500Y-114585786D01*
%TO.C,R201*%
X185450000Y-126985786D02*
X188650000Y-126985786D01*
X188650000Y-128585786D01*
X185450000Y-128585786D01*
X185450000Y-126985786D01*
%TO.C,R202*%
X185287500Y-118185786D02*
X188487500Y-118185786D01*
X188487500Y-119785786D01*
X185287500Y-119785786D01*
X185287500Y-118185786D01*
%TO.C,C2*%
X208300000Y-57437500D02*
X206700000Y-57437500D01*
X206700000Y-60637500D01*
X208300000Y-60637500D01*
X208300000Y-57437500D01*
%TO.C,Q3*%
X188587500Y-62600000D02*
X187287500Y-62600000D01*
X187287500Y-60025000D01*
X187612500Y-59700000D01*
X188587500Y-59700000D01*
X188587500Y-62600000D01*
%TO.C,R7*%
X202700000Y-95250000D02*
X204300000Y-95250000D01*
X204300000Y-92050000D01*
X202700000Y-92050000D01*
X202700000Y-95250000D01*
%TO.C,R2*%
X178475000Y-53400000D02*
X176875000Y-53400000D01*
X176875000Y-56600000D01*
X178475000Y-56600000D01*
X178475000Y-53400000D01*
%TO.C,Q203*%
X182112500Y-121235786D02*
X180812500Y-121235786D01*
X180812500Y-118660786D01*
X181137500Y-118335786D01*
X182112500Y-118335786D01*
X182112500Y-121235786D01*
%TO.C,Q201*%
X186550000Y-124560786D02*
X186225000Y-124885786D01*
X185250000Y-124885786D01*
X185250000Y-121985786D01*
X186550000Y-121985786D01*
X186550000Y-124560786D01*
%TO.C,R4*%
X205300000Y-51550000D02*
X203700000Y-51550000D01*
X203700000Y-54750000D01*
X205300000Y-54750000D01*
X205300000Y-51550000D01*
%TO.C,J3*%
X140150000Y-64400000D02*
X141150000Y-63775000D01*
X141150000Y-63775000D02*
X140150000Y-63150000D01*
X140150000Y-66225000D02*
X145900000Y-66225000D01*
X145900000Y-51325000D01*
X140150000Y-51325000D01*
X140150000Y-66225000D01*
%TD*%
M02*
