%TF.GenerationSoftware,KiCad,Pcbnew,9.0.7*%
%TF.CreationDate,2026-02-15T13:03:06+01:00*%
%TF.ProjectId,handheldAerosolSensor,68616e64-6865-46c6-9441-65726f736f6c,Rev. 1.0*%
%TF.SameCoordinates,Original*%
%TF.FileFunction,Paste,Top*%
%TF.FilePolarity,Positive*%
%FSLAX46Y46*%
G04 Gerber Fmt 4.6, Leading zero omitted, Abs format (unit mm)*
G04 Created by KiCad (PCBNEW 9.0.7) date 2026-02-15 13:03:06*
%MOMM*%
%LPD*%
G01*
G04 APERTURE LIST*
G04 Aperture macros list*
%AMRoundRect*
0 Rectangle with rounded corners*
0 $1 Rounding radius*
0 $2 $3 $4 $5 $6 $7 $8 $9 X,Y pos of 4 corners*
0 Add a 4 corners polygon primitive as box body*
4,1,4,$2,$3,$4,$5,$6,$7,$8,$9,$2,$3,0*
0 Add four circle primitives for the rounded corners*
1,1,$1+$1,$2,$3*
1,1,$1+$1,$4,$5*
1,1,$1+$1,$6,$7*
1,1,$1+$1,$8,$9*
0 Add four rect primitives between the rounded corners*
20,1,$1+$1,$2,$3,$4,$5,0*
20,1,$1+$1,$4,$5,$6,$7,0*
20,1,$1+$1,$6,$7,$8,$9,0*
20,1,$1+$1,$8,$9,$2,$3,0*%
G04 Aperture macros list end*
%ADD10RoundRect,0.250000X-0.400000X-0.625000X0.400000X-0.625000X0.400000X0.625000X-0.400000X0.625000X0*%
%ADD11RoundRect,0.250001X0.462499X0.624999X-0.462499X0.624999X-0.462499X-0.624999X0.462499X-0.624999X0*%
%ADD12RoundRect,0.250000X0.400000X0.625000X-0.400000X0.625000X-0.400000X-0.625000X0.400000X-0.625000X0*%
%ADD13RoundRect,0.150000X-0.587500X-0.150000X0.587500X-0.150000X0.587500X0.150000X-0.587500X0.150000X0*%
%ADD14RoundRect,0.250000X0.625000X-0.400000X0.625000X0.400000X-0.625000X0.400000X-0.625000X-0.400000X0*%
%ADD15RoundRect,0.250000X0.650000X-0.412500X0.650000X0.412500X-0.650000X0.412500X-0.650000X-0.412500X0*%
%ADD16RoundRect,0.250001X0.624999X-0.462499X0.624999X0.462499X-0.624999X0.462499X-0.624999X-0.462499X0*%
%ADD17RoundRect,0.250000X-0.625000X0.400000X-0.625000X-0.400000X0.625000X-0.400000X0.625000X0.400000X0*%
%ADD18RoundRect,0.250000X-0.412500X-0.650000X0.412500X-0.650000X0.412500X0.650000X-0.412500X0.650000X0*%
%ADD19RoundRect,0.250000X-0.650000X0.412500X-0.650000X-0.412500X0.650000X-0.412500X0.650000X0.412500X0*%
%ADD20RoundRect,0.150000X0.587500X0.150000X-0.587500X0.150000X-0.587500X-0.150000X0.587500X-0.150000X0*%
G04 APERTURE END LIST*
D10*
%TO.C,R205*%
X161700000Y-115600000D03*
X164800000Y-115600000D03*
%TD*%
%TO.C,R204*%
X213700000Y-115600000D03*
X216800000Y-115600000D03*
%TD*%
D11*
%TO.C,D201*%
X223775000Y-115600000D03*
X220800000Y-115600000D03*
%TD*%
D12*
%TO.C,R6*%
X216600000Y-56600000D03*
X213500000Y-56600000D03*
%TD*%
D13*
%TO.C,Q2*%
X187125000Y-54150000D03*
X187125000Y-56050000D03*
X189000000Y-55100000D03*
%TD*%
D14*
%TO.C,R3*%
X182175000Y-56650000D03*
X182175000Y-53550000D03*
%TD*%
D10*
%TO.C,R11*%
X159400000Y-67100000D03*
X162500000Y-67100000D03*
%TD*%
D15*
%TO.C,C1*%
X193000000Y-56275000D03*
X193000000Y-53150000D03*
%TD*%
D12*
%TO.C,R203*%
X188500000Y-131385786D03*
X185400000Y-131385786D03*
%TD*%
D14*
%TO.C,R9*%
X193000000Y-62700000D03*
X193000000Y-59600000D03*
%TD*%
D13*
%TO.C,Q1*%
X187250000Y-48150000D03*
X187250000Y-50050000D03*
X189125000Y-49100000D03*
%TD*%
%TO.C,Q202*%
X180325000Y-126235786D03*
X180325000Y-128135786D03*
X182200000Y-127185786D03*
%TD*%
D14*
%TO.C,R1*%
X193000000Y-50550000D03*
X193000000Y-47450000D03*
%TD*%
D16*
%TO.C,D1*%
X182175000Y-50537500D03*
X182175000Y-47562500D03*
%TD*%
%TO.C,D2*%
X177675000Y-50550000D03*
X177675000Y-47575000D03*
%TD*%
D10*
%TO.C,R10*%
X159400000Y-56600000D03*
X162500000Y-56600000D03*
%TD*%
%TO.C,R8*%
X213950000Y-47600000D03*
X217050000Y-47600000D03*
%TD*%
D17*
%TO.C,R5*%
X204500000Y-57600000D03*
X204500000Y-60700000D03*
%TD*%
D18*
%TO.C,C201*%
X185275000Y-115385786D03*
X188400000Y-115385786D03*
%TD*%
D10*
%TO.C,R201*%
X185500000Y-127785786D03*
X188600000Y-127785786D03*
%TD*%
%TO.C,R202*%
X185337500Y-118985786D03*
X188437500Y-118985786D03*
%TD*%
D19*
%TO.C,C2*%
X207500000Y-57475000D03*
X207500000Y-60600000D03*
%TD*%
D13*
%TO.C,Q3*%
X187000000Y-60200000D03*
X187000000Y-62100000D03*
X188875000Y-61150000D03*
%TD*%
D14*
%TO.C,R7*%
X203500000Y-95200000D03*
X203500000Y-92100000D03*
%TD*%
D17*
%TO.C,R2*%
X177675000Y-53450000D03*
X177675000Y-56550000D03*
%TD*%
D13*
%TO.C,Q203*%
X180525000Y-118835786D03*
X180525000Y-120735786D03*
X182400000Y-119785786D03*
%TD*%
D20*
%TO.C,Q201*%
X186837500Y-124385786D03*
X186837500Y-122485786D03*
X184962500Y-123435786D03*
%TD*%
D17*
%TO.C,R4*%
X204500000Y-51600000D03*
X204500000Y-54700000D03*
%TD*%
M02*
